<svg width="397" height="177" viewBox="0 0 397 177" fill="none" xmlns="http://www.w3.org/2000/svg">
<g filter="url(#filter0_d_1187_10016)">
<rect x="3.66162" y="2.78516" width="241.07" height="150.993" rx="9.1222" fill="white"/>
<rect x="3.66162" y="2.78516" width="241.07" height="150.993" rx="9.1222" stroke="black" stroke-width="0.00091222"/>
</g>
<path d="M41.703 25.1493C41.703 26.2118 41.5087 27.1253 41.1199 27.8898C40.7312 28.6511 40.1983 29.2374 39.5213 29.6488C38.8475 30.057 38.0814 30.2611 37.2229 30.2611C36.3612 30.2611 35.5919 30.057 34.9148 29.6488C34.241 29.2374 33.7098 28.6494 33.321 27.8849C32.9323 27.1204 32.7379 26.2085 32.7379 25.1493C32.7379 24.0867 32.9323 23.1748 33.321 22.4136C33.7098 21.6491 34.241 21.0627 34.9148 20.6546C35.5919 20.2432 36.3612 20.0374 37.2229 20.0374C38.0814 20.0374 38.8475 20.2432 39.5213 20.6546C40.1983 21.0627 40.7312 21.6491 41.1199 22.4136C41.5087 23.1748 41.703 24.0867 41.703 25.1493ZM40.2161 25.1493C40.2161 24.3394 40.0849 23.6575 39.8225 23.1036C39.5634 22.5464 39.2071 22.1253 38.7535 21.8402C38.3033 21.5519 37.793 21.4077 37.2229 21.4077C36.6495 21.4077 36.1377 21.5519 35.6874 21.8402C35.2371 22.1253 34.8808 22.5464 34.6184 23.1036C34.3593 23.6575 34.2297 24.3394 34.2297 25.1493C34.2297 25.9591 34.3593 26.6426 34.6184 27.1998C34.8808 27.7537 35.2371 28.1749 35.6874 28.4632C36.1377 28.7482 36.6495 28.8908 37.2229 28.8908C37.793 28.8908 38.3033 28.7482 38.7535 28.4632C39.2071 28.1749 39.5634 27.7537 39.8225 27.1998C40.0849 26.6426 40.2161 25.9591 40.2161 25.1493ZM49.8433 22.6614L47.1367 30.125H45.5818L42.8704 22.6614H44.4302L46.3204 28.4049H46.3982L48.2835 22.6614H49.8433ZM54.1715 30.2756C53.4362 30.2756 52.8029 30.1185 52.2716 29.8043C51.7436 29.4868 51.3354 29.0414 51.0471 28.468C50.7621 27.8914 50.6195 27.216 50.6195 26.4418C50.6195 25.6773 50.7621 25.0035 51.0471 24.4204C51.3354 23.8373 51.7371 23.3821 52.2522 23.055C52.7705 22.7278 53.3763 22.5642 54.0695 22.5642C54.4906 22.5642 54.8988 22.6338 55.294 22.7731C55.6892 22.9124 56.0439 23.1311 56.3582 23.4291C56.6724 23.7271 56.9202 24.1143 57.1016 24.5905C57.283 25.0634 57.3737 25.6384 57.3737 26.3154V26.8305H51.4407V25.7421H55.95C55.95 25.3598 55.8722 25.0213 55.7167 24.7265C55.5613 24.4285 55.3426 24.1936 55.0608 24.0219C54.7822 23.8502 54.455 23.7644 54.0792 23.7644C53.6711 23.7644 53.3147 23.8648 53.0102 24.0657C52.7089 24.2633 52.4757 24.5224 52.3105 24.8431C52.1485 25.1606 52.0675 25.5056 52.0675 25.8781V26.7285C52.0675 27.2273 52.155 27.6517 52.3299 28.0016C52.5081 28.3514 52.7559 28.6187 53.0734 28.8033C53.3908 28.9847 53.7618 29.0754 54.1861 29.0754C54.4615 29.0754 54.7125 29.0366 54.9393 28.9588C55.166 28.8778 55.362 28.758 55.5272 28.5992C55.6925 28.4405 55.8188 28.2445 55.9063 28.0113L57.2814 28.2591C57.1712 28.664 56.9736 29.0187 56.6886 29.3232C56.4067 29.6245 56.052 29.8594 55.6244 30.0278C55.2001 30.193 54.7158 30.2756 54.1715 30.2756ZM58.9857 30.125V22.6614H60.39V23.847H60.4678C60.6038 23.4453 60.8435 23.1295 61.1869 22.8995C61.5335 22.6662 61.9255 22.5496 62.3628 22.5496C62.4535 22.5496 62.5604 22.5529 62.6835 22.5593C62.8099 22.5658 62.9087 22.5739 62.9799 22.5836V23.9733C62.9216 23.9571 62.818 23.9393 62.6689 23.9199C62.5199 23.8972 62.3709 23.8859 62.2219 23.8859C61.8785 23.8859 61.5724 23.9588 61.3035 24.1045C61.0379 24.2471 60.8273 24.4463 60.6718 24.7022C60.5164 24.9549 60.4386 25.2432 60.4386 25.5671V30.125H58.9857ZM70.8493 22.6614L68.1428 30.125H66.5878L63.8764 22.6614H65.4362L67.3264 28.4049H67.4042L69.2895 22.6614H70.8493ZM72.2147 30.125V22.6614H73.6676V30.125H72.2147ZM72.9484 21.5098C72.6958 21.5098 72.4787 21.4255 72.2973 21.2571C72.1191 21.0854 72.0301 20.8813 72.0301 20.6448C72.0301 20.4051 72.1191 20.201 72.2973 20.0326C72.4787 19.8609 72.6958 19.7751 72.9484 19.7751C73.2011 19.7751 73.4165 19.8609 73.5947 20.0326C73.7761 20.201 73.8668 20.4051 73.8668 20.6448C73.8668 20.8813 73.7761 21.0854 73.5947 21.2571C73.4165 21.4255 73.2011 21.5098 72.9484 21.5098ZM78.8389 30.2756C78.1036 30.2756 77.4703 30.1185 76.939 29.8043C76.411 29.4868 76.0028 29.0414 75.7145 28.468C75.4294 27.8914 75.2869 27.216 75.2869 26.4418C75.2869 25.6773 75.4294 25.0035 75.7145 24.4204C76.0028 23.8373 76.4045 23.3821 76.9196 23.055C77.4379 22.7278 78.0436 22.5642 78.7369 22.5642C79.158 22.5642 79.5662 22.6338 79.9614 22.7731C80.3566 22.9124 80.7113 23.1311 81.0255 23.4291C81.3397 23.7271 81.5876 24.1143 81.769 24.5905C81.9504 25.0634 82.0411 25.6384 82.0411 26.3154V26.8305H76.1081V25.7421H80.6174C80.6174 25.3598 80.5396 25.0213 80.3841 24.7265C80.2286 24.4285 80.01 24.1936 79.7281 24.0219C79.4495 23.8502 79.1224 23.7644 78.7466 23.7644C78.3384 23.7644 77.9821 23.8648 77.6776 24.0657C77.3763 24.2633 77.1431 24.5224 76.9779 24.8431C76.8159 25.1606 76.7349 25.5056 76.7349 25.8781V26.7285C76.7349 27.2273 76.8224 27.6517 76.9973 28.0016C77.1755 28.3514 77.4233 28.6187 77.7407 28.8033C78.0582 28.9847 78.4291 29.0754 78.8535 29.0754C79.1288 29.0754 79.3799 29.0366 79.6067 28.9588C79.8334 28.8778 80.0294 28.758 80.1946 28.5992C80.3598 28.4405 80.4862 28.2445 80.5736 28.0113L81.9488 28.2591C81.8386 28.664 81.641 29.0187 81.3559 29.3232C81.0741 29.6245 80.7194 29.8594 80.2918 30.0278C79.8674 30.193 79.3831 30.2756 78.8389 30.2756ZM85.2578 30.125L83.0615 22.6614H84.563L86.0256 28.1425H86.0984L87.5659 22.6614H89.0674L90.5251 28.1182H90.598L92.0509 22.6614H93.5524L91.3609 30.125H89.8788L88.3628 24.7362H88.251L86.735 30.125H85.2578Z" fill="black"/>
<path d="M32.9294 61.9648V54.0036H35.6194C36.244 54.0036 36.7545 54.1164 37.151 54.3418C37.5501 54.5647 37.8455 54.8666 38.0373 55.2476C38.2291 55.6285 38.325 56.0536 38.325 56.5226C38.325 56.9917 38.2291 57.418 38.0373 57.8015C37.8481 58.1851 37.5553 58.4909 37.1588 58.7189C36.7623 58.9444 36.2543 59.0571 35.6349 59.0571H33.7068V58.2019H35.6038C36.0315 58.2019 36.3748 58.1281 36.634 57.9804C36.8931 57.8326 37.081 57.6331 37.1976 57.3817C37.3169 57.1277 37.3765 56.8414 37.3765 56.5226C37.3765 56.2039 37.3169 55.9188 37.1976 55.6674C37.081 55.416 36.8918 55.2191 36.6301 55.0765C36.3683 54.9314 36.0211 54.8589 35.5883 54.8589H33.8934V61.9648H32.9294ZM39.7535 61.9648V55.9939H40.6398V56.8958H40.702C40.8109 56.6004 41.0078 56.3606 41.2929 56.1767C41.578 55.9927 41.8993 55.9007 42.257 55.9007C42.3243 55.9007 42.4086 55.9019 42.5096 55.9045C42.6107 55.9071 42.6872 55.911 42.739 55.9162V56.8492C42.7079 56.8414 42.6366 56.8297 42.5252 56.8142C42.4163 56.796 42.301 56.787 42.1792 56.787C41.889 56.787 41.6298 56.8479 41.4018 56.9697C41.1763 57.0889 40.9975 57.2547 40.8653 57.4672C40.7357 57.6771 40.6709 57.9169 40.6709 58.1864V61.9648H39.7535ZM46.0704 62.0892C45.5314 62.0892 45.0584 61.961 44.6515 61.7044C44.2473 61.4478 43.9311 61.0889 43.703 60.6276C43.4776 60.1663 43.3648 59.6273 43.3648 59.0105C43.3648 58.3885 43.4776 57.8456 43.703 57.3817C43.9311 56.9178 44.2473 56.5576 44.6515 56.301C45.0584 56.0445 45.5314 55.9162 46.0704 55.9162C46.6094 55.9162 47.0811 56.0445 47.4854 56.301C47.8923 56.5576 48.2084 56.9178 48.4339 57.3817C48.6619 57.8456 48.776 58.3885 48.776 59.0105C48.776 59.6273 48.6619 60.1663 48.4339 60.6276C48.2084 61.0889 47.8923 61.4478 47.4854 61.7044C47.0811 61.961 46.6094 62.0892 46.0704 62.0892ZM46.0704 61.2651C46.4799 61.2651 46.8168 61.1602 47.0811 60.9503C47.3454 60.7403 47.5411 60.4643 47.6681 60.1223C47.7951 59.7802 47.8586 59.4096 47.8586 59.0105C47.8586 58.6114 47.7951 58.2395 47.6681 57.8948C47.5411 57.5502 47.3454 57.2716 47.0811 57.0591C46.8168 56.8466 46.4799 56.7403 46.0704 56.7403C45.6609 56.7403 45.324 56.8466 45.0597 57.0591C44.7954 57.2716 44.5997 57.5502 44.4727 57.8948C44.3457 58.2395 44.2822 58.6114 44.2822 59.0105C44.2822 59.4096 44.3457 59.7802 44.4727 60.1223C44.5997 60.4643 44.7954 60.7403 45.0597 60.9503C45.324 61.1602 45.6609 61.2651 46.0704 61.2651ZM50.1764 55.9939H51.0938V62.4002C51.0938 62.7682 51.0303 63.087 50.9033 63.3565C50.7789 63.626 50.5897 63.8346 50.3358 63.9824C50.0844 64.1301 49.7669 64.2039 49.3834 64.2039C49.3523 64.2039 49.3212 64.2039 49.2901 64.2039C49.259 64.2039 49.2279 64.2039 49.1968 64.2039V63.3487C49.2279 63.3487 49.2564 63.3487 49.2823 63.3487C49.3082 63.3487 49.3367 63.3487 49.3678 63.3487C49.6477 63.3487 49.8524 63.2658 49.982 63.0999C50.1116 62.9367 50.1764 62.7034 50.1764 62.4002V55.9939ZM50.6273 54.9988C50.4485 54.9988 50.2943 54.9379 50.1647 54.8161C50.0377 54.6943 49.9742 54.5479 49.9742 54.3768C49.9742 54.2058 50.0377 54.0594 50.1647 53.9376C50.2943 53.8158 50.4485 53.7549 50.6273 53.7549C50.8061 53.7549 50.959 53.8158 51.086 53.9376C51.2156 54.0594 51.2804 54.2058 51.2804 54.3768C51.2804 54.5479 51.2156 54.6943 51.086 54.8161C50.959 54.9379 50.8061 54.9988 50.6273 54.9988ZM55.2775 62.0892C54.7022 62.0892 54.2059 61.9623 53.7886 61.7083C53.374 61.4517 53.0539 61.0941 52.8285 60.6354C52.6056 60.1741 52.4942 59.6376 52.4942 59.026C52.4942 58.4144 52.6056 57.8754 52.8285 57.4089C53.0539 56.9399 53.3675 56.5745 53.7692 56.3127C54.1735 56.0484 54.6451 55.9162 55.1842 55.9162C55.4952 55.9162 55.8023 55.968 56.1055 56.0717C56.4087 56.1754 56.6847 56.3438 56.9335 56.577C57.1823 56.8077 57.3805 57.1135 57.5282 57.4944C57.6759 57.8754 57.7498 58.3445 57.7498 58.9016V59.2904H53.1472V58.4974H56.8169C56.8169 58.1605 56.7495 57.8599 56.6147 57.5955C56.4825 57.3312 56.2934 57.1226 56.0472 56.9697C55.8036 56.8168 55.5159 56.7403 55.1842 56.7403C54.8188 56.7403 54.5026 56.831 54.2357 57.0124C53.9713 57.1912 53.7679 57.4245 53.6254 57.7121C53.4828 57.9998 53.4116 58.3082 53.4116 58.6373V59.166C53.4116 59.6169 53.4893 59.9992 53.6448 60.3127C53.8029 60.6237 54.0219 60.8608 54.3018 61.0241C54.5817 61.1848 54.9069 61.2651 55.2775 61.2651C55.5185 61.2651 55.7362 61.2314 55.9305 61.1641C56.1275 61.0941 56.2973 60.9904 56.4398 60.8531C56.5823 60.7131 56.6925 60.5395 56.7702 60.3322L57.6565 60.581C57.5632 60.8816 57.4064 61.1459 57.1861 61.374C56.9659 61.5994 56.6938 61.7757 56.3698 61.9026C56.0459 62.027 55.6818 62.0892 55.2775 62.0892ZM61.571 62.0892C61.0113 62.0892 60.5292 61.9571 60.1249 61.6927C59.7207 61.4284 59.4097 61.0643 59.192 60.6004C58.9743 60.1365 58.8655 59.6065 58.8655 59.0105C58.8655 58.4041 58.9769 57.8689 59.1998 57.405C59.4252 56.9386 59.7388 56.5745 60.1405 56.3127C60.5448 56.0484 61.0164 55.9162 61.5555 55.9162C61.9753 55.9162 62.3537 55.9939 62.6906 56.1494C63.0275 56.3049 63.3035 56.5226 63.5186 56.8025C63.7337 57.0824 63.8671 57.4089 63.919 57.7821H63.0016C62.9316 57.51 62.7761 57.269 62.5351 57.0591C62.2967 56.8466 61.9753 56.7403 61.571 56.7403C61.2134 56.7403 60.8998 56.8336 60.6303 57.0202C60.3634 57.2042 60.1548 57.4646 60.0044 57.8015C59.8567 58.1359 59.7829 58.5285 59.7829 58.9794C59.7829 59.4407 59.8554 59.8424 60.0006 60.1845C60.1483 60.5265 60.3556 60.7922 60.6225 60.9814C60.892 61.1705 61.2082 61.2651 61.571 61.2651C61.8094 61.2651 62.0258 61.2237 62.2202 61.1407C62.4146 61.0578 62.5791 60.9386 62.7139 60.7831C62.8487 60.6276 62.9445 60.441 63.0016 60.2233H63.919C63.8671 60.5758 63.7388 60.8932 63.5341 61.1757C63.332 61.4556 63.0637 61.6785 62.7294 61.8443C62.3977 62.0076 62.0116 62.0892 61.571 62.0892ZM67.8568 55.9939V56.7714H64.7625V55.9939H67.8568ZM65.6644 54.5634H66.5818V60.2544C66.5818 60.5136 66.6193 60.7079 66.6945 60.8375C66.7722 60.9645 66.8707 61.05 66.9899 61.0941C67.1117 61.1356 67.24 61.1563 67.3748 61.1563C67.4758 61.1563 67.5588 61.1511 67.6236 61.1407C67.6883 61.1278 67.7402 61.1174 67.779 61.1096L67.9656 61.9337C67.9034 61.9571 67.8166 61.9804 67.7052 62.0037C67.5938 62.0296 67.4525 62.0426 67.2815 62.0426C67.0223 62.0426 66.7683 61.9869 66.5196 61.8754C66.2734 61.764 66.0686 61.5943 65.9054 61.3662C65.7447 61.1381 65.6644 60.8505 65.6644 60.5032V54.5634ZM72.4399 61.9648V54.0036H73.404V61.1096H77.1047V61.9648H72.4399ZM80.8987 62.0892C80.3597 62.0892 79.8867 61.961 79.4798 61.7044C79.0755 61.4478 78.7594 61.0889 78.5313 60.6276C78.3059 60.1663 78.1931 59.6273 78.1931 59.0105C78.1931 58.3885 78.3059 57.8456 78.5313 57.3817C78.7594 56.9178 79.0755 56.5576 79.4798 56.301C79.8867 56.0445 80.3597 55.9162 80.8987 55.9162C81.4377 55.9162 81.9094 56.0445 82.3137 56.301C82.7205 56.5576 83.0367 56.9178 83.2622 57.3817C83.4902 57.8456 83.6043 58.3885 83.6043 59.0105C83.6043 59.6273 83.4902 60.1663 83.2622 60.6276C83.0367 61.0889 82.7205 61.4478 82.3137 61.7044C81.9094 61.961 81.4377 62.0892 80.8987 62.0892ZM80.8987 61.2651C81.3082 61.2651 81.6451 61.1602 81.9094 60.9503C82.1737 60.7403 82.3694 60.4643 82.4964 60.1223C82.6234 59.7802 82.6869 59.4096 82.6869 59.0105C82.6869 58.6114 82.6234 58.2395 82.4964 57.8948C82.3694 57.5502 82.1737 57.2716 81.9094 57.0591C81.6451 56.8466 81.3082 56.7403 80.8987 56.7403C80.4892 56.7403 80.1523 56.8466 79.888 57.0591C79.6237 57.2716 79.428 57.5502 79.301 57.8948C79.174 58.2395 79.1105 58.6114 79.1105 59.0105C79.1105 59.4096 79.174 59.7802 79.301 60.1223C79.428 60.4643 79.6237 60.7403 79.888 60.9503C80.1523 61.1602 80.4892 61.2651 80.8987 61.2651ZM87.4303 62.0892C86.8706 62.0892 86.3885 61.9571 85.9843 61.6927C85.58 61.4284 85.269 61.0643 85.0513 60.6004C84.8336 60.1365 84.7248 59.6065 84.7248 59.0105C84.7248 58.4041 84.8362 57.8689 85.0591 57.405C85.2845 56.9386 85.5981 56.5745 85.9998 56.3127C86.4041 56.0484 86.8757 55.9162 87.4148 55.9162C87.8346 55.9162 88.213 55.9939 88.5499 56.1494C88.8868 56.3049 89.1628 56.5226 89.3779 56.8025C89.593 57.0824 89.7264 57.4089 89.7783 57.7821H88.8609C88.7909 57.51 88.6354 57.269 88.3944 57.0591C88.156 56.8466 87.8346 56.7403 87.4303 56.7403C87.0727 56.7403 86.7591 56.8336 86.4896 57.0202C86.2227 57.2042 86.0141 57.4646 85.8637 57.8015C85.716 58.1359 85.6422 58.5285 85.6422 58.9794C85.6422 59.4407 85.7147 59.8424 85.8599 60.1845C86.0076 60.5265 86.2149 60.7922 86.4818 60.9814C86.7513 61.1705 87.0675 61.2651 87.4303 61.2651C87.6688 61.2651 87.8851 61.2237 88.0795 61.1407C88.2739 61.0578 88.4384 60.9386 88.5732 60.7831C88.708 60.6276 88.8038 60.441 88.8609 60.2233H89.7783C89.7264 60.5758 89.5981 60.8932 89.3934 61.1757C89.1913 61.4556 88.9231 61.6785 88.5887 61.8443C88.257 62.0076 87.8709 62.0892 87.4303 62.0892ZM92.8764 62.1048C92.4981 62.1048 92.1547 62.0335 91.8463 61.891C91.5379 61.7459 91.293 61.5372 91.1116 61.2651C90.9302 60.9904 90.8395 60.6587 90.8395 60.27C90.8395 59.9279 90.9069 59.6506 91.0416 59.4381C91.1764 59.223 91.3565 59.0546 91.582 58.9327C91.8074 58.8109 92.0562 58.7202 92.3283 58.6606C92.603 58.5984 92.879 58.5492 93.1563 58.5129C93.5191 58.4663 93.8133 58.4313 94.0387 58.408C94.2668 58.382 94.4327 58.3393 94.5363 58.2797C94.6426 58.2201 94.6957 58.1164 94.6957 57.9687V57.9376C94.6957 57.5541 94.5907 57.256 94.3808 57.0435C94.1735 56.831 93.8586 56.7248 93.4362 56.7248C92.9982 56.7248 92.6549 56.8206 92.4061 57.0124C92.1573 57.2042 91.9824 57.4089 91.8813 57.6266L91.0105 57.3156C91.166 56.9528 91.3734 56.6703 91.6325 56.4682C91.8943 56.2635 92.1793 56.1209 92.4877 56.0406C92.7987 55.9577 93.1045 55.9162 93.4051 55.9162C93.5969 55.9162 93.8172 55.9395 94.066 55.9862C94.3173 56.0302 94.5596 56.1222 94.7929 56.2622C95.0287 56.4021 95.2244 56.6133 95.3799 56.8958C95.5354 57.1783 95.6131 57.5566 95.6131 58.0309V61.9648H94.6957V61.1563H94.6491C94.5869 61.2859 94.4832 61.4245 94.3381 61.5722C94.1929 61.7199 93.9999 61.8456 93.7589 61.9493C93.5178 62.053 93.2237 62.1048 92.8764 62.1048ZM93.0164 61.2807C93.3792 61.2807 93.685 61.2094 93.9338 61.0669C94.1852 60.9243 94.3743 60.7403 94.5013 60.5149C94.6309 60.2894 94.6957 60.0523 94.6957 59.8035V58.9638C94.6568 59.0105 94.5713 59.0533 94.4391 59.0921C94.3096 59.1284 94.1593 59.1608 93.9882 59.1893C93.8198 59.2152 93.6552 59.2385 93.4945 59.2593C93.3364 59.2774 93.2082 59.293 93.1097 59.3059C92.8713 59.337 92.6484 59.3876 92.4411 59.4575C92.2363 59.5249 92.0705 59.6273 91.9435 59.7646C91.8191 59.8994 91.7569 60.0834 91.7569 60.3166C91.7569 60.6354 91.8748 60.8764 92.1106 61.0397C92.3491 61.2003 92.651 61.2807 93.0164 61.2807ZM99.8843 55.9939V56.7714H96.79V55.9939H99.8843ZM97.6918 54.5634H98.6092V60.2544C98.6092 60.5136 98.6468 60.7079 98.722 60.8375C98.7997 60.9645 98.8982 61.05 99.0174 61.0941C99.1392 61.1356 99.2675 61.1563 99.4022 61.1563C99.5033 61.1563 99.5862 61.1511 99.651 61.1407C99.7158 61.1278 99.7677 61.1174 99.8065 61.1096L99.9931 61.9337C99.9309 61.9571 99.8441 61.9804 99.7327 62.0037C99.6212 62.0296 99.48 62.0426 99.309 62.0426C99.0498 62.0426 98.7958 61.9869 98.547 61.8754C98.3008 61.764 98.0961 61.5943 97.9328 61.3662C97.7722 61.1381 97.6918 60.8505 97.6918 60.5032V54.5634ZM101.264 61.9648V55.9939H102.182V61.9648H101.264ZM101.731 54.9988C101.552 54.9988 101.398 54.9379 101.268 54.8161C101.141 54.6943 101.078 54.5479 101.078 54.3768C101.078 54.2058 101.141 54.0594 101.268 53.9376C101.398 53.8158 101.552 53.7549 101.731 53.7549C101.91 53.7549 102.062 53.8158 102.189 53.9376C102.319 54.0594 102.384 54.2058 102.384 54.3768C102.384 54.5479 102.319 54.6943 102.189 54.8161C102.062 54.9379 101.91 54.9988 101.731 54.9988ZM106.288 62.0892C105.749 62.0892 105.276 61.961 104.869 61.7044C104.464 61.4478 104.148 61.0889 103.92 60.6276C103.695 60.1663 103.582 59.6273 103.582 59.0105C103.582 58.3885 103.695 57.8456 103.92 57.3817C104.148 56.9178 104.464 56.5576 104.869 56.301C105.276 56.0445 105.749 55.9162 106.288 55.9162C106.827 55.9162 107.298 56.0445 107.703 56.301C108.109 56.5576 108.426 56.9178 108.651 57.3817C108.879 57.8456 108.993 58.3885 108.993 59.0105C108.993 59.6273 108.879 60.1663 108.651 60.6276C108.426 61.0889 108.109 61.4478 107.703 61.7044C107.298 61.961 106.827 62.0892 106.288 62.0892ZM106.288 61.2651C106.697 61.2651 107.034 61.1602 107.298 60.9503C107.563 60.7403 107.758 60.4643 107.885 60.1223C108.012 59.7802 108.076 59.4096 108.076 59.0105C108.076 58.6114 108.012 58.2395 107.885 57.8948C107.758 57.5502 107.563 57.2716 107.298 57.0591C107.034 56.8466 106.697 56.7403 106.288 56.7403C105.878 56.7403 105.541 56.8466 105.277 57.0591C105.013 57.2716 104.817 57.5502 104.69 57.8948C104.563 58.2395 104.499 58.6114 104.499 59.0105C104.499 59.4096 104.563 59.7802 104.69 60.1223C104.817 60.4643 105.013 60.7403 105.277 60.9503C105.541 61.1602 105.878 61.2651 106.288 61.2651ZM111.311 58.373V61.9648H110.394V55.9939H111.28V56.9269H111.358C111.498 56.6237 111.71 56.3801 111.995 56.1961C112.28 56.0095 112.648 55.9162 113.099 55.9162C113.503 55.9162 113.857 55.9991 114.16 56.165C114.464 56.3283 114.699 56.577 114.868 56.9114C115.036 57.2431 115.121 57.6629 115.121 58.1708V61.9648H114.203V58.233C114.203 57.764 114.081 57.3986 113.838 57.1368C113.594 56.8725 113.26 56.7403 112.835 56.7403C112.542 56.7403 112.28 56.8038 112.05 56.9308C111.822 57.0578 111.641 57.2431 111.509 57.4867C111.377 57.7303 111.311 58.0257 111.311 58.373Z" fill="black" fill-opacity="0.64"/>
<path d="M35.3862 98.457H32.9294V90.4958H35.495C36.2673 90.4958 36.9281 90.6552 37.4775 90.974C38.0269 91.2901 38.4481 91.745 38.7409 92.3384C39.0337 92.9293 39.1802 93.6368 39.1802 94.4609C39.1802 95.2902 39.0324 96.0041 38.737 96.6028C38.4416 97.1988 38.0114 97.6575 37.4464 97.9789C36.8815 98.2977 36.1947 98.457 35.3862 98.457ZM33.8934 97.6018H35.324C35.9822 97.6018 36.5277 97.4748 36.9605 97.2209C37.3933 96.9669 37.7159 96.6054 37.9285 96.1363C38.141 95.6672 38.2472 95.1088 38.2472 94.4609C38.2472 93.8182 38.1423 93.2649 37.9323 92.801C37.7224 92.3345 37.4089 91.9769 36.9916 91.7281C36.5744 91.4767 36.0548 91.351 35.4328 91.351H33.8934V97.6018ZM43.1763 98.5814C42.601 98.5814 42.1047 98.4544 41.6875 98.2005C41.2728 97.9439 40.9528 97.5863 40.7273 97.1276C40.5044 96.6663 40.393 96.1298 40.393 95.5182C40.393 94.9066 40.5044 94.3676 40.7273 93.9011C40.9528 93.432 41.2664 93.0666 41.668 92.8049C42.0723 92.5406 42.544 92.4084 43.083 92.4084C43.394 92.4084 43.7011 92.4602 44.0043 92.5639C44.3075 92.6675 44.5835 92.836 44.8323 93.0692C45.0811 93.2999 45.2793 93.6057 45.4271 93.9866C45.5748 94.3676 45.6486 94.8367 45.6486 95.3938V95.7826H41.0461V94.9896H44.7157C44.7157 94.6527 44.6483 94.352 44.5135 94.0877C44.3814 93.8234 44.1922 93.6147 43.946 93.4618C43.7024 93.3089 43.4147 93.2325 43.083 93.2325C42.7176 93.2325 42.4014 93.3232 42.1345 93.5046C41.8702 93.6834 41.6667 93.9167 41.5242 94.2043C41.3817 94.492 41.3104 94.8004 41.3104 95.1295V95.6582C41.3104 96.1091 41.3882 96.4914 41.5436 96.8049C41.7017 97.1159 41.9207 97.353 42.2006 97.5163C42.4805 97.677 42.8057 97.7573 43.1763 97.7573C43.4173 97.7573 43.635 97.7236 43.8294 97.6562C44.0263 97.5863 44.1961 97.4826 44.3386 97.3453C44.4811 97.2053 44.5913 97.0317 44.669 96.8244L45.5553 97.0732C45.462 97.3738 45.3053 97.6381 45.085 97.8662C44.8647 98.0916 44.5926 98.2678 44.2686 98.3948C43.9447 98.5192 43.5806 98.5814 43.1763 98.5814ZM51.2736 93.8234L50.4495 94.0566C50.3976 93.9193 50.3212 93.7858 50.2201 93.6562C50.1216 93.524 49.9869 93.4152 49.8158 93.3297C49.6448 93.2442 49.4258 93.2014 49.1589 93.2014C48.7935 93.2014 48.489 93.2856 48.2454 93.4541C48.0043 93.6199 47.8838 93.8311 47.8838 94.0877C47.8838 94.3158 47.9668 94.4959 48.1326 94.628C48.2985 94.7602 48.5576 94.8703 48.9101 94.9585L49.7964 95.1761C50.3302 95.3057 50.728 95.504 50.9898 95.7709C51.2515 96.0352 51.3824 96.376 51.3824 96.7933C51.3824 97.1353 51.2839 97.4411 51.087 97.7107C50.8926 97.9802 50.6205 98.1927 50.2706 98.3482C49.9208 98.5037 49.5139 98.5814 49.05 98.5814C48.441 98.5814 47.937 98.4493 47.5379 98.1849C47.1388 97.9206 46.8861 97.5344 46.7798 97.0265L47.6506 96.8088C47.7335 97.1302 47.8903 97.3712 48.121 97.5319C48.3542 97.6925 48.6587 97.7729 49.0345 97.7729C49.4621 97.7729 49.8016 97.6822 50.0529 97.5008C50.3069 97.3168 50.4339 97.0965 50.4339 96.8399C50.4339 96.6326 50.3613 96.459 50.2162 96.319C50.0711 96.1765 49.8482 96.0702 49.5476 96.0003L48.5524 95.767C48.0056 95.6374 47.6039 95.4366 47.3474 95.1645C47.0934 94.8898 46.9664 94.5464 46.9664 94.1344C46.9664 93.7975 47.061 93.4994 47.2502 93.2403C47.442 92.9811 47.7024 92.7777 48.0316 92.63C48.3633 92.4822 48.739 92.4084 49.1589 92.4084C49.7497 92.4084 50.2136 92.538 50.5505 92.7971C50.89 93.0563 51.131 93.3984 51.2736 93.8234ZM55.189 98.5814C54.6293 98.5814 54.1473 98.4493 53.743 98.1849C53.3387 97.9206 53.0277 97.5565 52.81 97.0926C52.5923 96.6287 52.4835 96.0987 52.4835 95.5027C52.4835 94.8963 52.5949 94.3611 52.8178 93.8972C53.0433 93.4307 53.3568 93.0666 53.7585 92.8049C54.1628 92.5406 54.6345 92.4084 55.1735 92.4084C55.5933 92.4084 55.9717 92.4861 56.3086 92.6416C56.6455 92.7971 56.9215 93.0148 57.1366 93.2947C57.3517 93.5746 57.4851 93.9011 57.537 94.2743H56.6196C56.5496 94.0022 56.3941 93.7612 56.1531 93.5513C55.9147 93.3387 55.5933 93.2325 55.189 93.2325C54.8314 93.2325 54.5178 93.3258 54.2483 93.5124C53.9814 93.6964 53.7728 93.9568 53.6225 94.2937C53.4747 94.628 53.4009 95.0207 53.4009 95.4716C53.4009 95.9329 53.4735 96.3346 53.6186 96.6766C53.7663 97.0187 53.9736 97.2844 54.2405 97.4735C54.5101 97.6627 54.8262 97.7573 55.189 97.7573C55.4275 97.7573 55.6439 97.7159 55.8382 97.6329C56.0326 97.55 56.1972 97.4308 56.3319 97.2753C56.4667 97.1198 56.5626 96.9332 56.6196 96.7155H57.537C57.4851 97.068 57.3569 97.3854 57.1521 97.6679C56.95 97.9478 56.6818 98.1707 56.3475 98.3365C56.0157 98.4998 55.6296 98.5814 55.189 98.5814ZM58.8781 98.457V92.4861H59.7644V93.388H59.8266C59.9354 93.0926 60.1324 92.8528 60.4175 92.6688C60.7025 92.4848 61.0239 92.3928 61.3815 92.3928C61.4489 92.3928 61.5331 92.3941 61.6342 92.3967C61.7353 92.3993 61.8117 92.4032 61.8635 92.4084V93.3413C61.8324 93.3336 61.7612 93.3219 61.6497 93.3064C61.5409 93.2882 61.4256 93.2791 61.3038 93.2791C61.0135 93.2791 60.7544 93.34 60.5263 93.4618C60.3008 93.5811 60.122 93.7469 59.9899 93.9594C59.8603 94.1693 59.7955 94.4091 59.7955 94.6786V98.457H58.8781ZM62.951 98.457V92.4861H63.8684V98.457H62.951ZM63.4175 91.491C63.2387 91.491 63.0845 91.4301 62.9549 91.3083C62.8279 91.1865 62.7644 91.0401 62.7644 90.869C62.7644 90.698 62.8279 90.5516 62.9549 90.4298C63.0845 90.308 63.2387 90.247 63.4175 90.247C63.5963 90.247 63.7492 90.308 63.8762 90.4298C64.0058 90.5516 64.0706 90.698 64.0706 90.869C64.0706 91.0401 64.0058 91.1865 63.8762 91.3083C63.7492 91.4301 63.5963 91.491 63.4175 91.491ZM65.5487 100.696V92.4861H66.435V93.4346H66.5439C66.6112 93.331 66.7045 93.1988 66.8237 93.0381C66.9455 92.8749 67.1192 92.7297 67.3446 92.6028C67.5727 92.4732 67.8811 92.4084 68.2698 92.4084C68.7726 92.4084 69.2157 92.5341 69.5993 92.7855C69.9828 93.0368 70.2821 93.3932 70.4972 93.8545C70.7123 94.3158 70.8199 94.86 70.8199 95.4871C70.8199 96.1195 70.7123 96.6676 70.4972 97.1315C70.2821 97.5928 69.9841 97.9504 69.6032 98.2044C69.2222 98.4557 68.7829 98.5814 68.2854 98.5814C67.9018 98.5814 67.5947 98.5179 67.3641 98.3909C67.1334 98.2614 66.9559 98.1149 66.8315 97.9517C66.7071 97.7858 66.6112 97.6485 66.5439 97.5396H66.4661V100.696H65.5487ZM66.4506 95.4716C66.4506 95.9225 66.5166 96.3203 66.6488 96.665C66.781 97.0071 66.9741 97.2753 67.228 97.4697C67.482 97.6614 67.793 97.7573 68.161 97.7573C68.5445 97.7573 68.8646 97.6562 69.1211 97.4541C69.3803 97.2494 69.5747 96.9747 69.7042 96.63C69.8364 96.2827 69.9025 95.8966 69.9025 95.4716C69.9025 95.0518 69.8377 94.6734 69.7081 94.3365C69.5811 93.997 69.3881 93.7288 69.1289 93.5318C68.8723 93.3323 68.5497 93.2325 68.161 93.2325C67.7878 93.2325 67.4742 93.3271 67.2202 93.5163C66.9663 93.7029 66.7745 93.9646 66.6449 94.3015C66.5153 94.6358 66.4506 95.0258 66.4506 95.4716ZM74.816 92.4861V93.2636H71.7217V92.4861H74.816ZM72.6236 91.0556H73.541V96.7466C73.541 97.0058 73.5786 97.2001 73.6537 97.3297C73.7315 97.4567 73.83 97.5422 73.9492 97.5863C74.071 97.6277 74.1993 97.6485 74.334 97.6485C74.4351 97.6485 74.518 97.6433 74.5828 97.6329C74.6476 97.62 74.6994 97.6096 74.7383 97.6018L74.9249 98.4259C74.8627 98.4493 74.7759 98.4726 74.6644 98.4959C74.553 98.5218 74.4118 98.5348 74.2407 98.5348C73.9816 98.5348 73.7276 98.4791 73.4788 98.3676C73.2326 98.2562 73.0279 98.0864 72.8646 97.8584C72.7039 97.6303 72.6236 97.3427 72.6236 96.9954V91.0556ZM76.196 98.457V92.4861H77.1134V98.457H76.196ZM76.6625 91.491C76.4837 91.491 76.3295 91.4301 76.1999 91.3083C76.0729 91.1865 76.0094 91.0401 76.0094 90.869C76.0094 90.698 76.0729 90.5516 76.1999 90.4298C76.3295 90.308 76.4837 90.247 76.6625 90.247C76.8413 90.247 76.9942 90.308 77.1212 90.4298C77.2508 90.5516 77.3156 90.698 77.3156 90.869C77.3156 91.0401 77.2508 91.1865 77.1212 91.3083C76.9942 91.4301 76.8413 91.491 76.6625 91.491ZM81.2194 98.5814C80.6804 98.5814 80.2074 98.4531 79.8005 98.1966C79.3962 97.94 79.0801 97.5811 78.852 97.1198C78.6266 96.6585 78.5138 96.1195 78.5138 95.5027C78.5138 94.8807 78.6266 94.3378 78.852 93.8739C79.0801 93.41 79.3962 93.0498 79.8005 92.7932C80.2074 92.5367 80.6804 92.4084 81.2194 92.4084C81.7584 92.4084 82.2301 92.5367 82.6344 92.7932C83.0412 93.0498 83.3574 93.41 83.5829 93.8739C83.8109 94.3378 83.925 94.8807 83.925 95.5027C83.925 96.1195 83.8109 96.6585 83.5829 97.1198C83.3574 97.5811 83.0412 97.94 82.6344 98.1966C82.2301 98.4531 81.7584 98.5814 81.2194 98.5814ZM81.2194 97.7573C81.6289 97.7573 81.9658 97.6524 82.2301 97.4424C82.4944 97.2325 82.6901 96.9565 82.8171 96.6144C82.9441 96.2724 83.0076 95.9018 83.0076 95.5027C83.0076 95.1036 82.9441 94.7317 82.8171 94.387C82.6901 94.0424 82.4944 93.7638 82.2301 93.5513C81.9658 93.3387 81.6289 93.2325 81.2194 93.2325C80.8099 93.2325 80.473 93.3387 80.2087 93.5513C79.9444 93.7638 79.7487 94.0424 79.6217 94.387C79.4947 94.7317 79.4312 95.1036 79.4312 95.5027C79.4312 95.9018 79.4947 96.2724 79.6217 96.6144C79.7487 96.9565 79.9444 97.2325 80.2087 97.4424C80.473 97.6524 80.8099 97.7573 81.2194 97.7573ZM86.2428 94.8652V98.457H85.3254V92.4861H86.2117V93.4191H86.2894C86.4293 93.1159 86.6419 92.8723 86.9269 92.6883C87.212 92.5017 87.58 92.4084 88.0309 92.4084C88.4352 92.4084 88.7889 92.4913 89.0922 92.6572C89.3954 92.8204 89.6312 93.0692 89.7996 93.4035C89.9681 93.7353 90.0523 94.1551 90.0523 94.663V98.457H89.1349V94.7252C89.1349 94.2562 89.0131 93.8907 88.7695 93.629C88.5259 93.3647 88.1916 93.2325 87.7666 93.2325C87.4737 93.2325 87.212 93.296 86.9813 93.423C86.7533 93.55 86.5732 93.7353 86.441 93.9789C86.3088 94.2225 86.2428 94.5179 86.2428 94.8652Z" fill="black" fill-opacity="0.64"/>
<rect x="31.9653" y="70.5977" width="53.821" height="5.47332" rx="2.73666" fill="#D9D9D9" fill-opacity="0.7"/>
<rect x="31.9653" y="106.172" width="73.8898" height="5.47332" rx="2.73666" fill="#D9D9D9" fill-opacity="0.7"/>
<rect x="31.9653" y="33.1953" width="64.7676" height="1.82444" rx="0.91222" fill="black"/>
<rect x="130.485" y="3.08984" width="42.8744" height="150.516" fill="white"/>
<g filter="url(#filter1_d_1187_10016)">
<rect x="173.448" y="50.7422" width="219.845" height="121.325" rx="9.1222" fill="white"/>
<rect x="173.448" y="50.7422" width="219.845" height="121.325" rx="9.1222" stroke="black" stroke-width="0.00091222"/>
</g>
<rect width="52.9088" height="4.5611" rx="2.28055" transform="matrix(0 -1 -1 0 324.876 141.055)" fill="#D9D9D9"/>
<rect width="19.1566" height="4.5611" rx="2.28055" transform="matrix(0 -1 -1 0 324.876 141.055)" fill="#1E5EFF" fill-opacity="0.7"/>
<rect width="57.4699" height="4.5611" rx="2.28055" transform="matrix(0 -1 -1 0 336.735 141.055)" fill="#D9D9D9"/>
<rect width="34.6644" height="4.5611" rx="2.28055" transform="matrix(0 -1 -1 0 336.735 141.055)" fill="#1E5EFF" fill-opacity="0.7"/>
<rect width="44.6988" height="5.47332" rx="2.73666" transform="matrix(0 -1 -1 0 349.506 141.055)" fill="#D9D9D9"/>
<rect width="7.29776" height="5.47332" rx="2.73666" transform="matrix(0 -1 -1 0 349.506 141.055)" fill="#1E5EFF" fill-opacity="0.7"/>
<rect width="67.8109" height="5.06051" rx="2.53026" transform="matrix(0 -1 -1 0 360.952 141.359)" fill="#D9D9D9"/>
<rect width="34.4115" height="5.06051" rx="2.53026" transform="matrix(0 -1 -1 0 360.952 141.055)" fill="#1E5EFF" fill-opacity="0.7"/>
<rect x="320.315" y="146.527" width="6.38554" height="2.73666" rx="1.36833" fill="#D9D9D9" fill-opacity="0.7"/>
<rect x="328.525" y="146.527" width="33.7522" height="2.73666" rx="1.36833" fill="#D9D9D9" fill-opacity="0.7"/>
<rect x="320.315" y="151.996" width="6.38554" height="2.73666" rx="1.36833" fill="#F99600"/>
<rect x="328.525" y="151.996" width="33.7522" height="2.73666" rx="1.36833" fill="#D9D9D9" fill-opacity="0.7"/>
<path d="M202.748 78.6875H201.155L204.736 68.736H206.47L210.052 78.6875H208.458L205.644 70.5436H205.567L202.748 78.6875ZM203.016 74.7905H208.186V76.0539H203.016V74.7905ZM212.825 74.256V78.6875H211.372V71.2239H212.767V72.4387H212.859C213.031 72.0435 213.3 71.726 213.666 71.4863C214.035 71.2466 214.5 71.1267 215.06 71.1267C215.569 71.1267 216.014 71.2336 216.396 71.4474C216.779 71.658 217.075 71.9722 217.286 72.3901C217.496 72.808 217.602 73.3246 217.602 73.9401V78.6875H216.149V74.1151C216.149 73.5741 216.008 73.1513 215.726 72.8468C215.444 72.5391 215.057 72.3852 214.565 72.3852C214.228 72.3852 213.928 72.4581 213.666 72.6039C213.406 72.7496 213.201 72.9634 213.049 73.2453C212.9 73.5239 212.825 73.8608 212.825 74.256ZM221.722 78.8527C221.249 78.8527 220.822 78.7652 220.439 78.5903C220.057 78.4121 219.754 78.1546 219.531 77.8177C219.31 77.4808 219.2 77.0678 219.2 76.5786C219.2 76.1575 219.281 75.8109 219.443 75.5388C219.605 75.2667 219.824 75.0513 220.099 74.8925C220.374 74.7338 220.682 74.6139 221.022 74.5329C221.362 74.452 221.709 74.3904 222.062 74.3483C222.509 74.2965 222.872 74.2544 223.151 74.222C223.429 74.1863 223.632 74.1296 223.758 74.0519C223.884 73.9741 223.948 73.8478 223.948 73.6729V73.6389C223.948 73.2145 223.828 72.8857 223.588 72.6525C223.351 72.4192 222.998 72.3026 222.529 72.3026C222.04 72.3026 221.654 72.4111 221.372 72.6282C221.094 72.842 220.901 73.0801 220.794 73.3425L219.429 73.0315C219.591 72.578 219.827 72.2119 220.138 71.9333C220.452 71.6515 220.813 71.4474 221.222 71.3211C221.63 71.1915 222.059 71.1267 222.509 71.1267C222.807 71.1267 223.123 71.1623 223.457 71.2336C223.794 71.3016 224.108 71.428 224.399 71.6126C224.694 71.7973 224.936 72.0613 225.123 72.4046C225.311 72.7448 225.405 73.187 225.405 73.7312V78.6875H223.986V77.6671H223.928C223.834 77.855 223.693 78.0396 223.505 78.221C223.317 78.4024 223.076 78.5531 222.781 78.6729C222.487 78.7928 222.133 78.8527 221.722 78.8527ZM222.038 77.6865C222.44 77.6865 222.783 77.6072 223.068 77.4484C223.356 77.2897 223.575 77.0824 223.724 76.8265C223.876 76.5673 223.952 76.2903 223.952 75.9955V75.0334C223.901 75.0853 223.8 75.1339 223.651 75.1792C223.505 75.2213 223.339 75.2586 223.151 75.291C222.963 75.3201 222.78 75.3477 222.602 75.3736C222.423 75.3963 222.274 75.4157 222.155 75.4319C221.873 75.4675 221.615 75.5274 221.382 75.6117C221.152 75.6959 220.967 75.8174 220.828 75.9761C220.692 76.1316 220.624 76.3389 220.624 76.5981C220.624 76.9577 220.757 77.2298 221.022 77.4144C221.288 77.5958 221.627 77.6865 222.038 77.6865ZM228.793 68.736V78.6875H227.34V68.736H228.793ZM231.666 81.4864C231.449 81.4864 231.252 81.4685 231.073 81.4329C230.895 81.4005 230.762 81.3649 230.675 81.326L231.025 80.1355C231.291 80.2068 231.527 80.2376 231.734 80.2278C231.942 80.2181 232.125 80.1404 232.283 79.9946C232.445 79.8488 232.588 79.6107 232.711 79.2803L232.891 78.7847L230.16 71.2239H231.715L233.605 77.016H233.683L235.573 71.2239H237.133L234.057 79.6836C233.914 80.0724 233.733 80.4012 233.513 80.67C233.292 80.9421 233.03 81.1462 232.726 81.2823C232.421 81.4183 232.068 81.4864 231.666 81.4864ZM244.091 73.0461L242.774 73.2793C242.719 73.1108 242.632 72.9505 242.512 72.7982C242.395 72.646 242.236 72.5213 242.036 72.4241C241.835 72.3269 241.584 72.2783 241.282 72.2783C240.871 72.2783 240.528 72.3706 240.252 72.5553C239.977 72.7367 239.839 72.9715 239.839 73.2599C239.839 73.5093 239.932 73.7101 240.116 73.8624C240.301 74.0146 240.599 74.1394 241.01 74.2365L242.196 74.5086C242.883 74.6674 243.395 74.912 243.731 75.2424C244.068 75.5728 244.237 76.002 244.237 76.53C244.237 76.9771 244.107 77.3755 243.848 77.7254C243.592 78.072 243.234 78.3441 242.774 78.5417C242.317 78.7393 241.788 78.8381 241.185 78.8381C240.35 78.8381 239.668 78.66 239.14 78.3036C238.612 77.9441 238.288 77.4338 238.168 76.773L239.572 76.5592C239.66 76.9253 239.839 77.2022 240.111 77.3901C240.384 77.5748 240.738 77.6671 241.176 77.6671C241.652 77.6671 242.032 77.5683 242.317 77.3707C242.603 77.1698 242.745 76.9253 242.745 76.6369C242.745 76.4037 242.658 76.2077 242.483 76.049C242.311 75.8903 242.047 75.7704 241.691 75.6894L240.427 75.4124C239.731 75.2537 239.216 75.001 238.882 74.6544C238.552 74.3078 238.386 73.8689 238.386 73.3376C238.386 72.897 238.51 72.5115 238.756 72.1811C239.002 71.8507 239.342 71.5932 239.776 71.4085C240.21 71.2206 240.707 71.1267 241.268 71.1267C242.075 71.1267 242.709 71.3016 243.173 71.6515C243.636 71.9981 243.942 72.463 244.091 73.0461ZM245.834 78.6875V71.2239H247.287V78.6875H245.834ZM246.568 70.0723C246.315 70.0723 246.098 69.988 245.917 69.8196C245.739 69.6479 245.65 69.4438 245.65 69.2073C245.65 68.9676 245.739 68.7635 245.917 68.5951C246.098 68.4234 246.315 68.3376 246.568 68.3376C246.821 68.3376 247.036 68.4234 247.214 68.5951C247.396 68.7635 247.486 68.9676 247.486 69.2073C247.486 69.4438 247.396 69.6479 247.214 69.8196C247.036 69.988 246.821 70.0723 246.568 70.0723ZM254.835 73.0461L253.518 73.2793C253.463 73.1108 253.375 72.9505 253.255 72.7982C253.139 72.646 252.98 72.5213 252.779 72.4241C252.578 72.3269 252.327 72.2783 252.026 72.2783C251.615 72.2783 251.271 72.3706 250.996 72.5553C250.721 72.7367 250.583 72.9715 250.583 73.2599C250.583 73.5093 250.675 73.7101 250.86 73.8624C251.044 74.0146 251.343 74.1394 251.754 74.2365L252.94 74.5086C253.626 74.6674 254.138 74.912 254.475 75.2424C254.812 75.5728 254.98 76.002 254.98 76.53C254.98 76.9771 254.851 77.3755 254.592 77.7254C254.336 78.072 253.978 78.3441 253.518 78.5417C253.061 78.7393 252.531 78.8381 251.929 78.8381C251.093 78.8381 250.411 78.66 249.883 78.3036C249.355 77.9441 249.031 77.4338 248.911 76.773L250.316 76.5592C250.403 76.9253 250.583 77.2022 250.855 77.3901C251.127 77.5748 251.482 77.6671 251.919 77.6671C252.395 77.6671 252.776 77.5683 253.061 77.3707C253.346 77.1698 253.489 76.9253 253.489 76.6369C253.489 76.4037 253.401 76.2077 253.226 76.049C253.055 75.8903 252.791 75.7704 252.434 75.6894L251.171 75.4124C250.474 75.2537 249.959 75.001 249.626 74.6544C249.295 74.3078 249.13 73.8689 249.13 73.3376C249.13 72.897 249.253 72.5115 249.499 72.1811C249.745 71.8507 250.086 71.5932 250.52 71.4085C250.954 71.2206 251.451 71.1267 252.011 71.1267C252.818 71.1267 253.453 71.3016 253.916 71.6515C254.379 71.9981 254.686 72.463 254.835 73.0461Z" fill="black"/>
<rect x="200.814" y="81.7578" width="56.5577" height="1.82444" rx="0.91222" fill="black"/>
<path d="M206.132 99.0838C206.086 98.6899 205.896 98.3841 205.565 98.1664C205.233 97.9487 204.826 97.8399 204.344 97.8399C203.992 97.8399 203.683 97.8969 203.419 98.0109C203.157 98.1249 202.952 98.2817 202.805 98.4813C202.66 98.6808 202.587 98.9076 202.587 99.1615C202.587 99.374 202.638 99.5567 202.739 99.7096C202.842 99.86 202.974 99.9856 203.135 100.087C203.296 100.185 203.464 100.267 203.641 100.332C203.817 100.394 203.979 100.444 204.126 100.483L204.935 100.701C205.142 100.755 205.373 100.83 205.627 100.926C205.883 101.022 206.128 101.153 206.362 101.319C206.597 101.482 206.792 101.692 206.945 101.949C207.098 102.205 207.174 102.52 207.174 102.893C207.174 103.324 207.061 103.712 206.836 104.06C206.613 104.407 206.286 104.683 205.856 104.888C205.429 105.092 204.909 105.195 204.297 105.195C203.727 105.195 203.234 105.103 202.816 104.919C202.402 104.735 202.075 104.478 201.837 104.149C201.601 103.82 201.468 103.438 201.436 103.002H202.432C202.457 103.303 202.559 103.552 202.735 103.749C202.914 103.943 203.139 104.088 203.411 104.184C203.686 104.277 203.981 104.324 204.297 104.324C204.665 104.324 204.996 104.264 205.289 104.145C205.582 104.023 205.814 103.855 205.985 103.64C206.156 103.422 206.241 103.168 206.241 102.878C206.241 102.613 206.167 102.398 206.02 102.233C205.872 102.067 205.677 101.932 205.436 101.828C205.195 101.725 204.935 101.634 204.655 101.556L203.676 101.276C203.054 101.097 202.561 100.842 202.198 100.51C201.836 100.179 201.654 99.7446 201.654 99.2082C201.654 98.7624 201.775 98.3737 202.016 98.042C202.259 97.7077 202.586 97.4485 202.995 97.2645C203.407 97.0779 203.867 96.9846 204.375 96.9846C204.888 96.9846 205.344 97.0766 205.744 97.2606C206.143 97.4421 206.459 97.6908 206.692 98.007C206.928 98.3232 207.052 98.6821 207.065 99.0838H206.132ZM212.709 107.294V104.137H212.631C212.564 104.246 212.468 104.383 212.343 104.549C212.219 104.713 212.041 104.859 211.811 104.989C211.58 105.116 211.273 105.179 210.889 105.179C210.392 105.179 209.953 105.053 209.572 104.802C209.191 104.548 208.893 104.19 208.677 103.729C208.462 103.265 208.355 102.717 208.355 102.085C208.355 101.458 208.462 100.913 208.677 100.452C208.893 99.9908 209.192 99.6345 209.575 99.3831C209.959 99.1317 210.402 99.006 210.905 99.006C211.294 99.006 211.601 99.0708 211.826 99.2004C212.054 99.3274 212.228 99.4725 212.347 99.6358C212.469 99.7965 212.564 99.9286 212.631 100.032H212.74V99.0838H213.626V107.294H212.709ZM211.014 104.355C211.382 104.355 211.693 104.259 211.947 104.067C212.201 103.873 212.394 103.605 212.526 103.263C212.658 102.918 212.724 102.52 212.724 102.069C212.724 101.623 212.659 101.233 212.53 100.899C212.4 100.562 212.208 100.301 211.954 100.114C211.701 99.9247 211.387 99.8302 211.014 99.8302C210.625 99.8302 210.301 99.9299 210.042 100.129C209.785 100.326 209.592 100.595 209.463 100.934C209.336 101.271 209.272 101.649 209.272 102.069C209.272 102.494 209.337 102.88 209.467 103.228C209.599 103.572 209.793 103.847 210.05 104.052C210.309 104.254 210.63 104.355 211.014 104.355ZM219.068 102.613V99.0838H219.986V105.055H219.068V104.044H219.006C218.866 104.347 218.648 104.605 218.353 104.818C218.058 105.027 217.684 105.132 217.233 105.132C216.86 105.132 216.529 105.051 216.238 104.888C215.948 104.722 215.72 104.473 215.554 104.141C215.388 103.807 215.305 103.386 215.305 102.878V99.0838H216.223V102.816C216.223 103.251 216.345 103.598 216.588 103.857C216.834 104.117 217.148 104.246 217.529 104.246C217.757 104.246 217.989 104.188 218.225 104.071C218.463 103.955 218.663 103.776 218.823 103.535C218.987 103.294 219.068 102.987 219.068 102.613ZM223.423 105.195C223.045 105.195 222.701 105.123 222.393 104.981C222.084 104.836 221.84 104.627 221.658 104.355C221.477 104.08 221.386 103.749 221.386 103.36C221.386 103.018 221.453 102.74 221.588 102.528C221.723 102.313 221.903 102.144 222.129 102.023C222.354 101.901 222.603 101.81 222.875 101.75C223.15 101.688 223.426 101.639 223.703 101.603C224.066 101.556 224.36 101.521 224.585 101.498C224.813 101.472 224.979 101.429 225.083 101.37C225.189 101.31 225.242 101.206 225.242 101.059V101.027C225.242 100.644 225.137 100.346 224.927 100.133C224.72 99.9209 224.405 99.8146 223.983 99.8146C223.545 99.8146 223.201 99.9105 222.953 100.102C222.704 100.294 222.529 100.499 222.428 100.716L221.557 100.405C221.713 100.043 221.92 99.7602 222.179 99.558C222.441 99.3533 222.726 99.2108 223.034 99.1304C223.345 99.0475 223.651 99.006 223.952 99.006C224.143 99.006 224.364 99.0294 224.613 99.076C224.864 99.1201 225.106 99.2121 225.339 99.352C225.575 99.492 225.771 99.7032 225.926 99.9856C226.082 100.268 226.16 100.646 226.16 101.121V105.055H225.242V104.246H225.196C225.133 104.376 225.03 104.514 224.885 104.662C224.74 104.81 224.546 104.935 224.305 105.039C224.064 105.143 223.77 105.195 223.423 105.195ZM223.563 104.371C223.926 104.371 224.232 104.299 224.48 104.157C224.732 104.014 224.921 103.83 225.048 103.605C225.177 103.379 225.242 103.142 225.242 102.893V102.054C225.203 102.1 225.118 102.143 224.986 102.182C224.856 102.218 224.706 102.251 224.535 102.279C224.366 102.305 224.202 102.328 224.041 102.349C223.883 102.367 223.755 102.383 223.656 102.396C223.418 102.427 223.195 102.477 222.988 102.547C222.783 102.615 222.617 102.717 222.49 102.854C222.366 102.989 222.303 103.173 222.303 103.406C222.303 103.725 222.421 103.966 222.657 104.13C222.896 104.29 223.198 104.371 223.563 104.371ZM227.834 105.055V99.0838H228.72V99.9856H228.783C228.891 99.6902 229.088 99.4505 229.373 99.2665C229.659 99.0825 229.98 98.9905 230.338 98.9905C230.405 98.9905 230.489 98.9918 230.59 98.9944C230.691 98.997 230.768 99.0009 230.82 99.006V99.939C230.788 99.9312 230.717 99.9196 230.606 99.904C230.497 99.8859 230.382 99.8768 230.26 99.8768C229.97 99.8768 229.71 99.9377 229.482 100.06C229.257 100.179 229.078 100.345 228.946 100.557C228.816 100.767 228.752 101.007 228.752 101.276V105.055H227.834ZM234.229 105.179C233.653 105.179 233.157 105.052 232.74 104.798C232.325 104.542 232.005 104.184 231.78 103.725C231.557 103.264 231.445 102.727 231.445 102.116C231.445 101.504 231.557 100.965 231.78 100.499C232.005 100.03 232.319 99.6643 232.72 99.4025C233.125 99.1382 233.596 99.006 234.135 99.006C234.446 99.006 234.754 99.0579 235.057 99.1615C235.36 99.2652 235.636 99.4336 235.885 99.6669C236.134 99.8975 236.332 100.203 236.479 100.584C236.627 100.965 236.701 101.434 236.701 101.991V102.38H232.098V101.587H235.768C235.768 101.25 235.701 100.95 235.566 100.685C235.434 100.421 235.245 100.212 234.998 100.06C234.755 99.9066 234.467 99.8302 234.135 99.8302C233.77 99.8302 233.454 99.9209 233.187 100.102C232.923 100.281 232.719 100.514 232.577 100.802C232.434 101.09 232.363 101.398 232.363 101.727V102.256C232.363 102.707 232.441 103.089 232.596 103.403C232.754 103.714 232.973 103.951 233.253 104.114C233.533 104.275 233.858 104.355 234.229 104.355C234.47 104.355 234.687 104.321 234.882 104.254C235.079 104.184 235.248 104.08 235.391 103.943C235.534 103.803 235.644 103.629 235.721 103.422L236.608 103.671C236.514 103.971 236.358 104.236 236.137 104.464C235.917 104.689 235.645 104.866 235.321 104.992C234.997 105.117 234.633 105.179 234.229 105.179ZM241.3 105.055V97.0935H246.073V97.9487H242.264V100.639H245.716V101.494H242.264V105.055H241.3ZM249.665 105.179C249.09 105.179 248.594 105.052 248.176 104.798C247.762 104.542 247.442 104.184 247.216 103.725C246.993 103.264 246.882 102.727 246.882 102.116C246.882 101.504 246.993 100.965 247.216 100.499C247.442 100.03 247.755 99.6643 248.157 99.4025C248.561 99.1382 249.033 99.006 249.572 99.006C249.883 99.006 250.19 99.0579 250.493 99.1615C250.796 99.2652 251.072 99.4336 251.321 99.6669C251.57 99.8975 251.768 100.203 251.916 100.584C252.064 100.965 252.138 101.434 252.138 101.991V102.38H247.535V101.587H251.205C251.205 101.25 251.137 100.95 251.002 100.685C250.87 100.421 250.681 100.212 250.435 100.06C250.191 99.9066 249.904 99.8302 249.572 99.8302C249.207 99.8302 248.89 99.9209 248.623 100.102C248.359 100.281 248.156 100.514 248.013 100.802C247.871 101.09 247.799 101.398 247.799 101.727V102.256C247.799 102.707 247.877 103.089 248.033 103.403C248.191 103.714 248.41 103.951 248.689 104.114C248.969 104.275 249.295 104.355 249.665 104.355C249.906 104.355 250.124 104.321 250.318 104.254C250.515 104.184 250.685 104.08 250.828 103.943C250.97 103.803 251.08 103.629 251.158 103.422L252.044 103.671C251.951 103.971 251.794 104.236 251.574 104.464C251.354 104.689 251.081 104.866 250.758 104.992C250.434 105.117 250.069 105.179 249.665 105.179ZM256.036 105.179C255.461 105.179 254.965 105.052 254.548 104.798C254.133 104.542 253.813 104.184 253.587 103.725C253.365 103.264 253.253 102.727 253.253 102.116C253.253 101.504 253.365 100.965 253.587 100.499C253.813 100.03 254.127 99.6643 254.528 99.4025C254.933 99.1382 255.404 99.006 255.943 99.006C256.254 99.006 256.561 99.0579 256.864 99.1615C257.168 99.2652 257.444 99.4336 257.692 99.6669C257.941 99.8975 258.14 100.203 258.287 100.584C258.435 100.965 258.509 101.434 258.509 101.991V102.38H253.906V101.587H257.576C257.576 101.25 257.508 100.95 257.374 100.685C257.242 100.421 257.052 100.212 256.806 100.06C256.563 99.9066 256.275 99.8302 255.943 99.8302C255.578 99.8302 255.262 99.9209 254.995 100.102C254.73 100.281 254.527 100.514 254.384 100.802C254.242 101.09 254.171 101.398 254.171 101.727V102.256C254.171 102.707 254.248 103.089 254.404 103.403C254.562 103.714 254.781 103.951 255.061 104.114C255.341 104.275 255.666 104.355 256.036 104.355C256.278 104.355 256.495 104.321 256.69 104.254C256.887 104.184 257.056 104.08 257.199 103.943C257.341 103.803 257.451 103.629 257.529 103.422L258.416 103.671C258.322 103.971 258.165 104.236 257.945 104.464C257.725 104.689 257.453 104.866 257.129 104.992C256.805 105.117 256.441 105.179 256.036 105.179ZM262.501 99.0838V99.8613H259.407V99.0838H262.501ZM260.309 97.6533H261.226V103.344C261.226 103.603 261.264 103.798 261.339 103.927C261.417 104.054 261.515 104.14 261.634 104.184C261.756 104.225 261.884 104.246 262.019 104.246C262.12 104.246 262.203 104.241 262.268 104.231C262.333 104.218 262.384 104.207 262.423 104.199L262.61 105.024C262.548 105.047 262.461 105.07 262.349 105.094C262.238 105.119 262.097 105.132 261.926 105.132C261.667 105.132 261.413 105.077 261.164 104.965C260.918 104.854 260.713 104.684 260.55 104.456C260.389 104.228 260.309 103.94 260.309 103.593V97.6533Z" fill="black" fill-opacity="0.64"/>
<path d="M208.185 132.425H207.221C207.164 132.148 207.064 131.904 206.921 131.694C206.781 131.484 206.61 131.308 206.408 131.166C206.209 131.021 205.987 130.912 205.744 130.839C205.5 130.767 205.246 130.73 204.982 130.73C204.5 130.73 204.063 130.852 203.672 131.096C203.283 131.339 202.973 131.698 202.743 132.172C202.515 132.647 202.4 133.228 202.4 133.918C202.4 134.607 202.515 135.189 202.743 135.663C202.973 136.137 203.283 136.496 203.672 136.74C204.063 136.984 204.5 137.105 204.982 137.105C205.246 137.105 205.5 137.069 205.744 136.997C205.987 136.924 206.209 136.816 206.408 136.674C206.61 136.529 206.781 136.351 206.921 136.141C207.064 135.929 207.164 135.685 207.221 135.411H208.185C208.112 135.817 207.98 136.182 207.788 136.503C207.596 136.824 207.358 137.098 207.073 137.323C206.788 137.546 206.468 137.716 206.113 137.832C205.76 137.949 205.383 138.007 204.982 138.007C204.303 138.007 203.699 137.841 203.17 137.51C202.641 137.178 202.226 136.706 201.922 136.095C201.619 135.483 201.468 134.757 201.468 133.918C201.468 133.078 201.619 132.353 201.922 131.741C202.226 131.129 202.641 130.658 203.17 130.326C203.699 129.994 204.303 129.828 204.982 129.828C205.383 129.828 205.76 129.887 206.113 130.003C206.468 130.12 206.788 130.291 207.073 130.516C207.358 130.739 207.596 131.011 207.788 131.333C207.98 131.652 208.112 132.016 208.185 132.425ZM212.044 138.023C211.505 138.023 211.032 137.895 210.625 137.638C210.221 137.381 209.905 137.022 209.677 136.561C209.451 136.1 209.338 135.561 209.338 134.944C209.338 134.322 209.451 133.779 209.677 133.315C209.905 132.851 210.221 132.491 210.625 132.235C211.032 131.978 211.505 131.85 212.044 131.85C212.583 131.85 213.055 131.978 213.459 132.235C213.866 132.491 214.182 132.851 214.407 133.315C214.635 133.779 214.749 134.322 214.749 134.944C214.749 135.561 214.635 136.1 214.407 136.561C214.182 137.022 213.866 137.381 213.459 137.638C213.055 137.895 212.583 138.023 212.044 138.023ZM212.044 137.199C212.453 137.199 212.79 137.094 213.055 136.884C213.319 136.674 213.515 136.398 213.642 136.056C213.769 135.714 213.832 135.343 213.832 134.944C213.832 134.545 213.769 134.173 213.642 133.828C213.515 133.484 213.319 133.205 213.055 132.993C212.79 132.78 212.453 132.674 212.044 132.674C211.634 132.674 211.298 132.78 211.033 132.993C210.769 133.205 210.573 133.484 210.446 133.828C210.319 134.173 210.256 134.545 210.256 134.944C210.256 135.343 210.319 135.714 210.446 136.056C210.573 136.398 210.769 136.674 211.033 136.884C211.298 137.094 211.634 137.199 212.044 137.199ZM216.15 137.898V131.928H217.036V132.86H217.114C217.238 132.542 217.439 132.294 217.716 132.118C217.994 131.939 218.327 131.85 218.715 131.85C219.109 131.85 219.437 131.939 219.699 132.118C219.963 132.294 220.169 132.542 220.317 132.86H220.379C220.532 132.552 220.761 132.307 221.067 132.126C221.373 131.942 221.74 131.85 222.167 131.85C222.701 131.85 223.138 132.017 223.477 132.351C223.817 132.683 223.987 133.2 223.987 133.902V137.898H223.069V133.902C223.069 133.462 222.949 133.147 222.708 132.958C222.467 132.768 222.183 132.674 221.856 132.674C221.437 132.674 221.111 132.801 220.881 133.055C220.65 133.306 220.535 133.625 220.535 134.011V137.898H219.602V133.809C219.602 133.47 219.492 133.196 219.271 132.989C219.051 132.779 218.767 132.674 218.42 132.674C218.182 132.674 217.959 132.737 217.751 132.864C217.547 132.991 217.381 133.168 217.254 133.393C217.129 133.616 217.067 133.874 217.067 134.167V137.898H216.15ZM225.664 140.138V131.928H226.55V132.876H226.659C226.727 132.772 226.82 132.64 226.939 132.48C227.061 132.316 227.235 132.171 227.46 132.044C227.688 131.915 227.996 131.85 228.385 131.85C228.888 131.85 229.331 131.975 229.715 132.227C230.098 132.478 230.397 132.835 230.613 133.296C230.828 133.757 230.935 134.301 230.935 134.929C230.935 135.561 230.828 136.109 230.613 136.573C230.397 137.034 230.099 137.392 229.718 137.646C229.338 137.897 228.898 138.023 228.401 138.023C228.017 138.023 227.71 137.959 227.479 137.832C227.249 137.703 227.071 137.556 226.947 137.393C226.822 137.227 226.727 137.09 226.659 136.981H226.581V140.138H225.664ZM226.566 134.913C226.566 135.364 226.632 135.762 226.764 136.106C226.896 136.448 227.089 136.717 227.343 136.911C227.597 137.103 227.908 137.199 228.276 137.199C228.66 137.199 228.98 137.098 229.236 136.896C229.496 136.691 229.69 136.416 229.82 136.071C229.952 135.724 230.018 135.338 230.018 134.913C230.018 134.493 229.953 134.115 229.823 133.778C229.696 133.438 229.503 133.17 229.244 132.973C228.988 132.774 228.665 132.674 228.276 132.674C227.903 132.674 227.59 132.768 227.336 132.958C227.082 133.144 226.89 133.406 226.76 133.743C226.631 134.077 226.566 134.467 226.566 134.913ZM234.092 138.038C233.713 138.038 233.37 137.967 233.062 137.825C232.753 137.679 232.508 137.471 232.327 137.199C232.145 136.924 232.055 136.592 232.055 136.204C232.055 135.861 232.122 135.584 232.257 135.372C232.392 135.157 232.572 134.988 232.797 134.866C233.023 134.745 233.271 134.654 233.544 134.594C233.818 134.532 234.094 134.483 234.372 134.447C234.734 134.4 235.029 134.365 235.254 134.342C235.482 134.316 235.648 134.273 235.752 134.213C235.858 134.154 235.911 134.05 235.911 133.902V133.871C235.911 133.488 235.806 133.19 235.596 132.977C235.389 132.765 235.074 132.658 234.651 132.658C234.214 132.658 233.87 132.754 233.621 132.946C233.373 133.138 233.198 133.343 233.097 133.56L232.226 133.249C232.381 132.886 232.589 132.604 232.848 132.402C233.11 132.197 233.395 132.055 233.703 131.974C234.014 131.891 234.32 131.85 234.62 131.85C234.812 131.85 235.032 131.873 235.281 131.92C235.533 131.964 235.775 132.056 236.008 132.196C236.244 132.336 236.44 132.547 236.595 132.829C236.751 133.112 236.828 133.49 236.828 133.964V137.898H235.911V137.09H235.864C235.802 137.219 235.698 137.358 235.553 137.506C235.408 137.654 235.215 137.779 234.974 137.883C234.733 137.987 234.439 138.038 234.092 138.038ZM234.232 137.214C234.594 137.214 234.9 137.143 235.149 137C235.4 136.858 235.59 136.674 235.717 136.448C235.846 136.223 235.911 135.986 235.911 135.737V134.897C235.872 134.944 235.787 134.987 235.654 135.026C235.525 135.062 235.375 135.094 235.203 135.123C235.035 135.149 234.87 135.172 234.71 135.193C234.552 135.211 234.423 135.227 234.325 135.24C234.087 135.271 233.864 135.321 233.656 135.391C233.452 135.459 233.286 135.561 233.159 135.698C233.034 135.833 232.972 136.017 232.972 136.25C232.972 136.569 233.09 136.81 233.326 136.973C233.564 137.134 233.866 137.214 234.232 137.214ZM238.503 137.898V131.928H239.389V132.829H239.451C239.56 132.534 239.757 132.294 240.042 132.11C240.327 131.926 240.649 131.834 241.006 131.834C241.074 131.834 241.158 131.836 241.259 131.838C241.36 131.841 241.436 131.845 241.488 131.85V132.783C241.457 132.775 241.386 132.763 241.274 132.748C241.166 132.73 241.05 132.721 240.928 132.721C240.638 132.721 240.379 132.781 240.151 132.903C239.926 133.022 239.747 133.188 239.615 133.401C239.485 133.611 239.42 133.85 239.42 134.12V137.898H238.503ZM244.333 138.038C243.954 138.038 243.611 137.967 243.303 137.825C242.994 137.679 242.749 137.471 242.568 137.199C242.387 136.924 242.296 136.592 242.296 136.204C242.296 135.861 242.363 135.584 242.498 135.372C242.633 135.157 242.813 134.988 243.038 134.866C243.264 134.745 243.513 134.654 243.785 134.594C244.059 134.532 244.335 134.483 244.613 134.447C244.976 134.4 245.27 134.365 245.495 134.342C245.723 134.316 245.889 134.273 245.993 134.213C246.099 134.154 246.152 134.05 246.152 133.902V133.871C246.152 133.488 246.047 133.19 245.837 132.977C245.63 132.765 245.315 132.658 244.893 132.658C244.455 132.658 244.111 132.754 243.862 132.946C243.614 133.138 243.439 133.343 243.338 133.56L242.467 133.249C242.622 132.886 242.83 132.604 243.089 132.402C243.351 132.197 243.636 132.055 243.944 131.974C244.255 131.891 244.561 131.85 244.861 131.85C245.053 131.85 245.274 131.873 245.522 131.92C245.774 131.964 246.016 132.056 246.249 132.196C246.485 132.336 246.681 132.547 246.836 132.829C246.992 133.112 247.069 133.49 247.069 133.964V137.898H246.152V137.09H246.105C246.043 137.219 245.94 137.358 245.794 137.506C245.649 137.654 245.456 137.779 245.215 137.883C244.974 137.987 244.68 138.038 244.333 138.038ZM244.473 137.214C244.836 137.214 245.141 137.143 245.39 137C245.642 136.858 245.831 136.674 245.958 136.448C246.087 136.223 246.152 135.986 246.152 135.737V134.897C246.113 134.944 246.028 134.987 245.895 135.026C245.766 135.062 245.616 135.094 245.445 135.123C245.276 135.149 245.112 135.172 244.951 135.193C244.793 135.211 244.665 135.227 244.566 135.24C244.328 135.271 244.105 135.321 243.897 135.391C243.693 135.459 243.527 135.561 243.4 135.698C243.275 135.833 243.213 136.017 243.213 136.25C243.213 136.569 243.331 136.81 243.567 136.973C243.805 137.134 244.107 137.214 244.473 137.214ZM248.868 137.898V129.937H249.786V132.876H249.863C249.931 132.772 250.024 132.64 250.143 132.48C250.265 132.316 250.439 132.171 250.664 132.044C250.892 131.915 251.201 131.85 251.589 131.85C252.092 131.85 252.535 131.975 252.919 132.227C253.302 132.478 253.602 132.835 253.817 133.296C254.032 133.757 254.139 134.301 254.139 134.929C254.139 135.561 254.032 136.109 253.817 136.573C253.602 137.034 253.304 137.392 252.923 137.646C252.542 137.897 252.103 138.023 251.605 138.023C251.221 138.023 250.914 137.959 250.684 137.832C250.453 137.703 250.276 137.556 250.151 137.393C250.027 137.227 249.931 137.09 249.863 136.981H249.755V137.898H248.868ZM249.77 134.913C249.77 135.364 249.836 135.762 249.968 136.106C250.101 136.448 250.294 136.717 250.548 136.911C250.802 137.103 251.113 137.199 251.481 137.199C251.864 137.199 252.184 137.098 252.441 136.896C252.7 136.691 252.894 136.416 253.024 136.071C253.156 135.724 253.222 135.338 253.222 134.913C253.222 134.493 253.157 134.115 253.028 133.778C252.901 133.438 252.708 133.17 252.449 132.973C252.192 132.774 251.869 132.674 251.481 132.674C251.107 132.674 250.794 132.768 250.54 132.958C250.286 133.144 250.094 133.406 249.965 133.743C249.835 134.077 249.77 134.467 249.77 134.913ZM256.46 129.937V137.898H255.543V129.937H256.46ZM260.644 138.023C260.069 138.023 259.572 137.896 259.155 137.642C258.74 137.385 258.42 137.028 258.195 136.569C257.972 136.108 257.861 135.571 257.861 134.96C257.861 134.348 257.972 133.809 258.195 133.343C258.42 132.873 258.734 132.508 259.136 132.246C259.54 131.982 260.012 131.85 260.551 131.85C260.862 131.85 261.169 131.902 261.472 132.005C261.775 132.109 262.051 132.277 262.3 132.511C262.549 132.741 262.747 133.047 262.895 133.428C263.042 133.809 263.116 134.278 263.116 134.835V135.224H258.514V134.431H262.183C262.183 134.094 262.116 133.793 261.981 133.529C261.849 133.265 261.66 133.056 261.414 132.903C261.17 132.75 260.882 132.674 260.551 132.674C260.185 132.674 259.869 132.765 259.602 132.946C259.338 133.125 259.134 133.358 258.992 133.646C258.849 133.933 258.778 134.242 258.778 134.571V135.1C258.778 135.551 258.856 135.933 259.011 136.246C259.169 136.557 259.388 136.794 259.668 136.958C259.948 137.118 260.273 137.199 260.644 137.199C260.885 137.199 261.103 137.165 261.297 137.098C261.494 137.028 261.664 136.924 261.806 136.787C261.949 136.647 262.059 136.473 262.137 136.266L263.023 136.515C262.93 136.815 262.773 137.08 262.553 137.308C262.332 137.533 262.06 137.709 261.736 137.836C261.412 137.961 261.048 138.023 260.644 138.023Z" fill="black" fill-opacity="0.64"/>
<rect x="202.639" y="112.77" width="53.821" height="5.47332" rx="2.73666" fill="#D9D9D9" fill-opacity="0.7"/>
<rect x="202.639" y="144.699" width="53.821" height="5.47332" rx="2.73666" fill="#D9D9D9" fill-opacity="0.7"/>
<defs>
<filter id="filter0_d_1187_10016" x="0.0122519" y="0.0484955" width="248.369" height="158.29" filterUnits="userSpaceOnUse" color-interpolation-filters="sRGB">
<feFlood flood-opacity="0" result="BackgroundImageFix"/>
<feColorMatrix in="SourceAlpha" type="matrix" values="0 0 0 0 0 0 0 0 0 0 0 0 0 0 0 0 0 0 127 0" result="hardAlpha"/>
<feOffset dy="0.91222"/>
<feGaussianBlur stdDeviation="1.82444"/>
<feColorMatrix type="matrix" values="0 0 0 0 0.0823529 0 0 0 0 0.133333 0 0 0 0 0.196078 0 0 0 0.08 0"/>
<feBlend mode="normal" in2="BackgroundImageFix" result="effect1_dropShadow_1187_10016"/>
<feBlend mode="normal" in="SourceGraphic" in2="effect1_dropShadow_1187_10016" result="shape"/>
</filter>
<filter id="filter1_d_1187_10016" x="169.798" y="48.0055" width="227.144" height="128.622" filterUnits="userSpaceOnUse" color-interpolation-filters="sRGB">
<feFlood flood-opacity="0" result="BackgroundImageFix"/>
<feColorMatrix in="SourceAlpha" type="matrix" values="0 0 0 0 0 0 0 0 0 0 0 0 0 0 0 0 0 0 127 0" result="hardAlpha"/>
<feOffset dy="0.91222"/>
<feGaussianBlur stdDeviation="1.82444"/>
<feColorMatrix type="matrix" values="0 0 0 0 0.0823529 0 0 0 0 0.133333 0 0 0 0 0.196078 0 0 0 0.08 0"/>
<feBlend mode="normal" in2="BackgroundImageFix" result="effect1_dropShadow_1187_10016"/>
<feBlend mode="normal" in="SourceGraphic" in2="effect1_dropShadow_1187_10016" result="shape"/>
</filter>
</defs>
</svg>
