<svg width="440" height="190" viewBox="0 0 440 190" fill="none" xmlns="http://www.w3.org/2000/svg">
<g filter="url(#filter0_d_1217_5682)">
<rect x="4" y="3" width="428.743" height="182.444" rx="5.47332" fill="white"/>
<rect x="4" y="3" width="428.743" height="182.444" rx="5.47332" stroke="black" stroke-width="0.00091222"/>
</g>
<path d="M46.7073 28.7196V41.9883H44.8673L38.1228 32.2571H37.9997V41.9883H35.9978V28.7196H37.8507L44.6017 38.4638H44.7248V28.7196H46.7073ZM53.7611 42.1891C52.7807 42.1891 51.9363 41.9796 51.2279 41.5607C50.5239 41.1374 49.9796 40.5435 49.5952 39.779C49.2151 39.0102 49.0251 38.1096 49.0251 37.0773C49.0251 36.058 49.2151 35.1596 49.5952 34.3821C49.9796 33.6047 50.5152 32.9978 51.202 32.5616C51.8931 32.1253 52.7008 31.9072 53.6251 31.9072C54.1866 31.9072 54.7308 32.0001 55.2577 32.1858C55.7847 32.3715 56.2576 32.6631 56.6766 33.0604C57.0956 33.4578 57.426 33.974 57.6679 34.6089C57.9097 35.2395 58.0307 36.0062 58.0307 36.9089V37.5956H50.12V36.1444H56.1324C56.1324 35.6347 56.0287 35.1833 55.8214 34.7903C55.6141 34.3929 55.3225 34.0798 54.9468 33.8509C54.5753 33.6219 54.1391 33.5075 53.638 33.5075C53.0938 33.5075 52.6187 33.6414 52.2127 33.9092C51.811 34.1726 51.5 34.5182 51.2797 34.9458C51.0638 35.3691 50.9558 35.8291 50.9558 36.3258V37.4596C50.9558 38.1247 51.0724 38.6906 51.3057 39.157C51.5432 39.6235 51.8736 39.9798 52.2969 40.226C52.7202 40.4679 53.2147 40.5889 53.7806 40.5889C54.1477 40.5889 54.4824 40.537 54.7848 40.4334C55.0871 40.3254 55.3484 40.1656 55.5687 39.9539C55.789 39.7423 55.9575 39.481 56.0741 39.17L57.9076 39.5004C57.7607 40.0403 57.4973 40.5133 57.1172 40.9193C56.7414 41.321 56.2684 41.6341 55.6983 41.8587C55.1325 42.079 54.4868 42.1891 53.7611 42.1891ZM62.3197 41.9883L59.3912 32.0368H61.3932L63.3433 39.3449H63.4405L65.3971 32.0368H67.3991L69.3427 39.3125H69.4399L71.3771 32.0368H73.379L70.4571 41.9883H68.481L66.4597 34.8033H66.3106L64.2892 41.9883H62.3197ZM84.4967 41.9883H80.2013V28.7196H84.6328C85.9329 28.7196 87.0494 28.9853 87.9823 29.5165C88.9153 30.0435 89.6301 30.8015 90.1268 31.7906C90.6279 32.7754 90.8784 33.9567 90.8784 35.3345C90.8784 36.7167 90.6257 37.9045 90.1204 38.8979C89.6193 39.8913 88.8937 40.6558 87.9435 41.1914C86.9932 41.7226 85.8443 41.9883 84.4967 41.9883ZM82.2032 40.239H84.3866C85.3973 40.239 86.2374 40.0489 86.9069 39.6689C87.5763 39.2844 88.0774 38.7294 88.41 38.0038C88.7425 37.2738 88.9088 36.3841 88.9088 35.3345C88.9088 34.2936 88.7425 33.4103 88.41 32.6847C88.0817 31.959 87.5915 31.4083 86.9393 31.0326C86.2871 30.6568 85.4772 30.4689 84.5097 30.4689H82.2032V40.239ZM97.5014 42.1891C96.5209 42.1891 95.6765 41.9796 94.9682 41.5607C94.2641 41.1374 93.7199 40.5435 93.3355 39.779C92.9554 39.0102 92.7654 38.1096 92.7654 37.0773C92.7654 36.058 92.9554 35.1596 93.3355 34.3821C93.7199 33.6047 94.2555 32.9978 94.9422 32.5616C95.6333 32.1253 96.441 31.9072 97.3653 31.9072C97.9268 31.9072 98.471 32.0001 98.998 32.1858C99.5249 32.3715 99.9979 32.6631 100.417 33.0604C100.836 33.4578 101.166 33.974 101.408 34.6089C101.65 35.2395 101.771 36.0062 101.771 36.9089V37.5956H93.8603V36.1444H99.8726C99.8726 35.6347 99.769 35.1833 99.5617 34.7903C99.3543 34.3929 99.0628 34.0798 98.687 33.8509C98.3156 33.6219 97.8793 33.5075 97.3783 33.5075C96.8341 33.5075 96.3589 33.6414 95.9529 33.9092C95.5513 34.1726 95.2403 34.5182 95.02 34.9458C94.804 35.3691 94.696 35.8291 94.696 36.3258V37.4596C94.696 38.1247 94.8127 38.6906 95.0459 39.157C95.2835 39.6235 95.6139 39.9798 96.0372 40.226C96.4604 40.4679 96.955 40.5889 97.5208 40.5889C97.888 40.5889 98.2227 40.537 98.525 40.4334C98.8274 40.3254 99.0887 40.1656 99.309 39.9539C99.5293 39.7423 99.6977 39.481 99.8143 39.17L101.648 39.5004C101.501 40.0403 101.238 40.5133 100.857 40.9193C100.482 41.321 100.009 41.6341 99.4386 41.8587C98.8727 42.079 98.227 42.1891 97.5014 42.1891ZM112.148 32.0368L108.54 41.9883H106.466L102.851 32.0368H104.931L107.451 39.6948H107.555L110.069 32.0368H112.148ZM117.919 42.1891C116.939 42.1891 116.095 41.9796 115.386 41.5607C114.682 41.1374 114.138 40.5435 113.754 39.779C113.373 39.0102 113.183 38.1096 113.183 37.0773C113.183 36.058 113.373 35.1596 113.754 34.3821C114.138 33.6047 114.674 32.9978 115.36 32.5616C116.051 32.1253 116.859 31.9072 117.783 31.9072C118.345 31.9072 118.889 32.0001 119.416 32.1858C119.943 32.3715 120.416 32.6631 120.835 33.0604C121.254 33.4578 121.584 33.974 121.826 34.6089C122.068 35.2395 122.189 36.0062 122.189 36.9089V37.5956H114.278V36.1444H120.291C120.291 35.6347 120.187 35.1833 119.98 34.7903C119.772 34.3929 119.481 34.0798 119.105 33.8509C118.734 33.6219 118.297 33.5075 117.796 33.5075C117.252 33.5075 116.777 33.6414 116.371 33.9092C115.969 34.1726 115.658 34.5182 115.438 34.9458C115.222 35.3691 115.114 35.8291 115.114 36.3258V37.4596C115.114 38.1247 115.231 38.6906 115.464 39.157C115.702 39.6235 116.032 39.9798 116.455 40.226C116.879 40.4679 117.373 40.5889 117.939 40.5889C118.306 40.5889 118.641 40.537 118.943 40.4334C119.245 40.3254 119.507 40.1656 119.727 39.9539C119.947 39.7423 120.116 39.481 120.232 39.17L122.066 39.5004C121.919 40.0403 121.656 40.5133 121.275 40.9193C120.9 41.321 120.427 41.6341 119.857 41.8587C119.291 42.079 118.645 42.1891 117.919 42.1891ZM126.276 28.7196V41.9883H124.338V28.7196H126.276ZM133.073 42.1891C132.14 42.1891 131.326 41.9753 130.631 41.5477C129.936 41.1201 129.396 40.5219 129.011 39.7531C128.627 38.9843 128.435 38.0859 128.435 37.0579C128.435 36.0256 128.627 35.1229 129.011 34.3497C129.396 33.5766 129.936 32.9762 130.631 32.5486C131.326 32.121 132.14 31.9072 133.073 31.9072C134.006 31.9072 134.821 32.121 135.516 32.5486C136.211 32.9762 136.751 33.5766 137.136 34.3497C137.52 35.1229 137.712 36.0256 137.712 37.0579C137.712 38.0859 137.52 38.9843 137.136 39.7531C136.751 40.5219 136.211 41.1201 135.516 41.5477C134.821 41.9753 134.006 42.1891 133.073 42.1891ZM133.08 40.5629C133.685 40.5629 134.186 40.4031 134.583 40.0835C134.98 39.7639 135.274 39.3384 135.464 38.8072C135.658 38.2759 135.756 37.6907 135.756 37.0514C135.756 36.4165 135.658 35.8334 135.464 35.3021C135.274 34.7665 134.98 34.3368 134.583 34.0128C134.186 33.6889 133.685 33.5269 133.08 33.5269C132.471 33.5269 131.966 33.6889 131.564 34.0128C131.167 34.3368 130.871 34.7665 130.676 35.3021C130.486 35.8334 130.391 36.4165 130.391 37.0514C130.391 37.6907 130.486 38.2759 130.676 38.8072C130.871 39.3384 131.167 39.7639 131.564 40.0835C131.966 40.4031 132.471 40.5629 133.08 40.5629ZM139.875 45.7201V32.0368H141.766V33.65H141.928C142.041 33.4427 142.203 33.203 142.414 32.9309C142.626 32.6588 142.92 32.4212 143.295 32.2182C143.671 32.0109 144.168 31.9072 144.786 31.9072C145.589 31.9072 146.306 32.1102 146.937 32.5162C147.567 32.9222 148.062 33.5075 148.42 34.272C148.783 35.0365 148.964 35.9565 148.964 37.032C148.964 38.1075 148.785 39.0296 148.427 39.7984C148.068 40.5629 147.576 41.1525 146.949 41.5672C146.323 41.9775 145.608 42.1826 144.805 42.1826C144.2 42.1826 143.706 42.0811 143.321 41.8781C142.941 41.6751 142.643 41.4376 142.427 41.1655C142.211 40.8934 142.045 40.6515 141.928 40.4398H141.812V45.7201H139.875ZM141.773 37.0125C141.773 37.7122 141.874 38.3256 142.077 38.8525C142.28 39.3795 142.574 39.792 142.959 40.09C143.343 40.3837 143.814 40.5305 144.371 40.5305C144.95 40.5305 145.433 40.3772 145.822 40.0705C146.211 39.7596 146.505 39.3384 146.703 38.8072C146.906 38.2759 147.008 37.6777 147.008 37.0125C147.008 36.356 146.908 35.7664 146.71 35.2438C146.515 34.7212 146.222 34.3087 145.829 34.0064C145.44 33.704 144.954 33.5528 144.371 33.5528C143.809 33.5528 143.334 33.6975 142.946 33.9869C142.561 34.2763 142.27 34.6802 142.071 35.1985C141.872 35.7168 141.773 36.3215 141.773 37.0125ZM151.135 41.9883V32.0368H152.994V33.6565H153.117C153.325 33.108 153.664 32.6804 154.135 32.3737C154.605 32.0627 155.169 31.9072 155.825 31.9072C156.491 31.9072 157.048 32.0627 157.497 32.3737C157.951 32.6847 158.285 33.1123 158.501 33.6565H158.605C158.842 33.1252 159.22 32.7019 159.739 32.3866C160.257 32.067 160.875 31.9072 161.592 31.9072C162.494 31.9072 163.231 32.1901 163.801 32.7559C164.375 33.3218 164.663 34.1748 164.663 35.3151V41.9883H162.725V35.4965C162.725 34.8227 162.542 34.3346 162.175 34.0323C161.808 33.7299 161.369 33.5788 160.86 33.5788C160.229 33.5788 159.739 33.7731 159.389 34.1618C159.039 34.5463 158.864 35.0408 158.864 35.6455V41.9883H156.933V35.3734C156.933 34.8335 156.765 34.3994 156.428 34.0711C156.091 33.7429 155.653 33.5788 155.113 33.5788C154.746 33.5788 154.407 33.6759 154.096 33.8703C153.789 34.0603 153.541 34.326 153.351 34.6672C153.165 35.0084 153.072 35.4036 153.072 35.8528V41.9883H151.135ZM171.548 42.1891C170.568 42.1891 169.723 41.9796 169.015 41.5607C168.311 41.1374 167.767 40.5435 167.382 39.779C167.002 39.0102 166.812 38.1096 166.812 37.0773C166.812 36.058 167.002 35.1596 167.382 34.3821C167.767 33.6047 168.302 32.9978 168.989 32.5616C169.68 32.1253 170.488 31.9072 171.412 31.9072C171.973 31.9072 172.518 32.0001 173.045 32.1858C173.572 32.3715 174.045 32.6631 174.463 33.0604C174.882 33.4578 175.213 33.974 175.455 34.6089C175.697 35.2395 175.818 36.0062 175.818 36.9089V37.5956H167.907V36.1444H173.919C173.919 35.6347 173.816 35.1833 173.608 34.7903C173.401 34.3929 173.109 34.0798 172.734 33.8509C172.362 33.6219 171.926 33.5075 171.425 33.5075C170.881 33.5075 170.406 33.6414 170 33.9092C169.598 34.1726 169.287 34.5182 169.067 34.9458C168.851 35.3691 168.743 35.8291 168.743 36.3258V37.4596C168.743 38.1247 168.859 38.6906 169.093 39.157C169.33 39.6235 169.661 39.9798 170.084 40.226C170.507 40.4679 171.002 40.5889 171.567 40.5889C171.935 40.5889 172.269 40.537 172.572 40.4334C172.874 40.3254 173.135 40.1656 173.356 39.9539C173.576 39.7423 173.744 39.481 173.861 39.17L175.694 39.5004C175.548 40.0403 175.284 40.5133 174.904 40.9193C174.528 41.321 174.055 41.6341 173.485 41.8587C172.919 42.079 172.274 42.1891 171.548 42.1891ZM179.904 36.0796V41.9883H177.967V32.0368H179.826V33.6565H179.949C180.178 33.1296 180.537 32.7063 181.025 32.3866C181.517 32.067 182.137 31.9072 182.884 31.9072C183.562 31.9072 184.156 32.0497 184.666 32.3348C185.176 32.6156 185.571 33.0345 185.852 33.5917C186.132 34.1489 186.273 34.8378 186.273 35.6585V41.9883H184.336V35.8917C184.336 35.1704 184.148 34.6067 183.772 34.2007C183.396 33.7904 182.88 33.5852 182.224 33.5852C181.774 33.5852 181.375 33.6824 181.025 33.8768C180.679 34.0711 180.405 34.3562 180.202 34.732C180.003 35.1034 179.904 35.5526 179.904 36.0796ZM193.516 32.0368V33.5917H188.08V32.0368H193.516ZM189.538 29.6526H191.475V39.0663C191.475 39.4421 191.531 39.725 191.644 39.9151C191.756 40.1008 191.901 40.2282 192.078 40.2973C192.259 40.3621 192.456 40.3945 192.667 40.3945C192.823 40.3945 192.959 40.3837 193.076 40.3621C193.192 40.3405 193.283 40.3232 193.348 40.3103L193.698 41.9105C193.585 41.9537 193.425 41.9969 193.218 42.0401C193.011 42.0876 192.752 42.1135 192.441 42.1179C191.931 42.1265 191.456 42.0358 191.015 41.8457C190.575 41.6557 190.218 41.362 189.946 40.9646C189.674 40.5673 189.538 40.0684 189.538 39.468V29.6526ZM202.956 34.4664L201.2 34.7773C201.127 34.5527 201.01 34.3389 200.85 34.1359C200.695 33.9329 200.483 33.7666 200.215 33.6371C199.947 33.5075 199.613 33.4427 199.211 33.4427C198.662 33.4427 198.205 33.5658 197.838 33.812C197.47 34.0539 197.287 34.367 197.287 34.7514C197.287 35.084 197.41 35.3518 197.656 35.5548C197.902 35.7578 198.3 35.9241 198.848 36.0537L200.429 36.4165C201.345 36.6281 202.027 36.9542 202.476 37.3948C202.926 37.8353 203.15 38.4076 203.15 39.1117C203.15 39.7077 202.977 40.239 202.632 40.7055C202.291 41.1676 201.813 41.5304 201.2 41.7939C200.591 42.0574 199.885 42.1891 199.081 42.1891C197.967 42.1891 197.058 41.9516 196.354 41.4765C195.65 40.997 195.218 40.3167 195.058 39.4356L196.93 39.1506C197.047 39.6386 197.287 40.0079 197.65 40.2584C198.012 40.5046 198.485 40.6277 199.068 40.6277C199.703 40.6277 200.211 40.496 200.591 40.2325C200.971 39.9647 201.161 39.6386 201.161 39.2542C201.161 38.9432 201.045 38.6819 200.811 38.4703C200.582 38.2586 200.23 38.0988 199.755 37.9908L198.071 37.6215C197.142 37.4099 196.455 37.073 196.01 36.6108C195.57 36.1487 195.35 35.5634 195.35 34.8551C195.35 34.2677 195.514 33.7537 195.842 33.3131C196.17 32.8726 196.624 32.5292 197.203 32.283C197.781 32.0325 198.444 31.9072 199.192 31.9072C200.267 31.9072 201.114 32.1404 201.731 32.6069C202.349 33.0691 202.757 33.6889 202.956 34.4664Z" fill="black"/>
<path d="M39.6072 79.1602H38.4384L41.0646 71.8624H42.3367L44.9629 79.1602H43.7941L41.7309 73.188H41.6739L39.6072 79.1602ZM39.8032 76.3023H43.5946V77.2288H39.8032V76.3023ZM46.0168 79.1602V71.8624H48.618C49.1858 71.8624 49.6562 71.9657 50.0291 72.1724C50.4021 72.3791 50.6812 72.6618 50.8665 73.0205C51.0518 73.3768 51.1445 73.7783 51.1445 74.2249C51.1445 74.6739 51.0506 75.0777 50.8629 75.4364C50.6777 75.7928 50.3973 76.0755 50.022 76.2845C49.649 76.4912 49.1799 76.5945 48.6145 76.5945H46.8257V75.6609H48.5147C48.8734 75.6609 49.1644 75.5992 49.3877 75.4756C49.611 75.3497 49.7749 75.1787 49.8795 74.9625C49.984 74.7463 50.0362 74.5005 50.0362 74.2249C50.0362 73.9493 49.984 73.7047 49.8795 73.4908C49.7749 73.277 49.6098 73.1096 49.3842 72.9884C49.1608 72.8673 48.8663 72.8067 48.5004 72.8067H47.1179V79.1602H46.0168ZM58.3255 71.8624V79.1602H57.3135L53.6041 73.808H53.5364V79.1602H52.4353V71.8624H53.4544L57.1674 77.2217H57.2351V71.8624H58.3255ZM60.1562 76.1313C60.1562 75.2381 60.2738 74.4161 60.509 73.6655C60.7441 72.9148 61.0874 72.2223 61.5388 71.588H62.5151C62.3393 71.8232 62.1754 72.1118 62.0234 72.4539C61.8714 72.796 61.7383 73.1713 61.6243 73.5799C61.5103 73.9862 61.4212 74.4078 61.357 74.8449C61.2929 75.2797 61.2608 75.7084 61.2608 76.1313C61.2608 76.6967 61.3167 77.2692 61.4283 77.8488C61.54 78.4285 61.6908 78.9665 61.8809 79.463C62.0709 79.9595 62.2823 80.3646 62.5151 80.6781H61.5388C61.0874 80.0439 60.7441 79.3514 60.509 78.6007C60.2738 77.85 60.1562 77.0269 60.1562 76.1313ZM67.7399 75.0231L66.7742 75.1941C66.7339 75.0706 66.6697 74.953 66.5818 74.8414C66.4963 74.7297 66.3799 74.6383 66.2326 74.567C66.0853 74.4957 65.9012 74.4601 65.6803 74.4601C65.3786 74.4601 65.1268 74.5278 64.9249 74.6632C64.7229 74.7962 64.622 74.9685 64.622 75.1799C64.622 75.3628 64.6897 75.5101 64.8251 75.6217C64.9605 75.7334 65.179 75.8249 65.4807 75.8961L66.3502 76.0957C66.8538 76.2121 67.2292 76.3914 67.4762 76.6337C67.7233 76.876 67.8468 77.1908 67.8468 77.578C67.8468 77.9059 67.7518 78.198 67.5617 78.4546C67.3741 78.7088 67.1116 78.9083 66.7742 79.0533C66.4393 79.1982 66.0509 79.2706 65.609 79.2706C64.9961 79.2706 64.4961 79.14 64.1088 78.8787C63.7216 78.615 63.4841 78.2408 63.3962 77.7562L64.426 77.5994C64.4901 77.8678 64.622 78.071 64.8215 78.2087C65.0211 78.3441 65.2812 78.4119 65.6019 78.4119C65.9511 78.4119 66.2302 78.3394 66.4393 78.1945C66.6483 78.0472 66.7529 77.8678 66.7529 77.6564C66.7529 77.4854 66.6887 77.3417 66.5604 77.2253C66.4345 77.1088 66.2409 77.021 65.9796 76.9616L65.0531 76.7585C64.5424 76.642 64.1647 76.4568 63.92 76.2026C63.6777 75.9484 63.5565 75.6265 63.5565 75.2369C63.5565 74.9138 63.6468 74.6311 63.8273 74.3888C64.0079 74.1465 64.2573 73.9576 64.5756 73.8222C64.894 73.6845 65.2586 73.6156 65.6696 73.6156C66.2611 73.6156 66.7267 73.7438 67.0664 74.0004C67.4061 74.2546 67.6306 74.5955 67.7399 75.0231ZM71.0672 76.1313C71.0672 77.0269 70.9496 77.85 70.7144 78.6007C70.4792 79.3514 70.136 80.0439 69.6846 80.6781H68.7083C68.884 80.443 69.048 80.1543 69.2 79.8123C69.352 79.4702 69.4851 79.096 69.5991 78.6898C69.7131 78.2812 69.8022 77.8583 69.8663 77.4212C69.9305 76.9841 69.9626 76.5542 69.9626 76.1313C69.9626 75.5683 69.9067 74.997 69.7951 74.4173C69.6834 73.8377 69.5326 73.2996 69.3425 72.8031C69.1525 72.3066 68.9411 71.9016 68.7083 71.588H69.6846C70.136 72.2223 70.4792 72.9148 70.7144 73.6655C70.9496 74.4161 71.0672 75.2381 71.0672 76.1313Z" fill="black"/>
<path d="M141.747 74.2356H140.635C140.593 73.998 140.513 73.789 140.397 73.6084C140.28 73.4279 140.138 73.2747 139.969 73.1488C139.8 73.0229 139.611 72.9278 139.402 72.8637C139.196 72.7996 138.976 72.7675 138.743 72.7675C138.323 72.7675 137.946 72.8732 137.614 73.0846C137.283 73.2961 137.022 73.6061 136.83 74.0147C136.64 74.4233 136.545 74.9221 136.545 75.5113C136.545 76.1052 136.64 76.6064 136.83 77.015C137.022 77.4236 137.285 77.7324 137.617 77.9415C137.95 78.1505 138.324 78.2551 138.74 78.2551C138.97 78.2551 139.189 78.2242 139.395 78.1624C139.604 78.0983 139.793 78.0044 139.962 77.8809C140.13 77.7574 140.273 77.6065 140.389 77.4284C140.508 77.2478 140.59 77.0411 140.635 76.8083L141.747 76.8119C141.688 77.1706 141.572 77.5008 141.401 77.8025C141.233 78.1018 141.015 78.3608 140.749 78.5793C140.486 78.7955 140.184 78.963 139.844 79.0818C139.505 79.2005 139.134 79.2599 138.732 79.2599C138.101 79.2599 137.538 79.1103 137.043 78.8109C136.549 78.5092 136.16 78.0781 135.875 77.5174C135.592 76.9568 135.451 76.2881 135.451 75.5113C135.451 74.7321 135.593 74.0634 135.878 73.5051C136.163 72.9445 136.553 72.5145 137.047 72.2152C137.541 71.9135 138.103 71.7626 138.732 71.7626C139.12 71.7626 139.481 71.8184 139.816 71.9301C140.153 72.0394 140.456 72.2009 140.724 72.4147C140.993 72.6261 141.215 72.8851 141.391 73.1915C141.567 73.4956 141.685 73.8436 141.747 74.2356ZM142.979 79.1602V73.6868H144.045V79.1602H142.979ZM143.517 72.8423C143.332 72.8423 143.173 72.7806 143.04 72.657C142.909 72.5311 142.844 72.3815 142.844 72.208C142.844 72.0322 142.909 71.8826 143.04 71.7591C143.173 71.6332 143.332 71.5702 143.517 71.5702C143.702 71.5702 143.86 71.6332 143.991 71.7591C144.124 71.8826 144.191 72.0322 144.191 72.208C144.191 72.3815 144.124 72.5311 143.991 72.657C143.86 72.7806 143.702 72.8423 143.517 72.8423ZM148.033 73.6868V74.542H145.043V73.6868H148.033ZM145.845 72.3755H146.91V77.5531C146.91 77.7598 146.941 77.9154 147.003 78.0199C147.065 78.122 147.144 78.1921 147.242 78.2301C147.342 78.2658 147.45 78.2836 147.566 78.2836C147.652 78.2836 147.726 78.2776 147.791 78.2658C147.855 78.2539 147.905 78.2444 147.94 78.2372L148.133 79.1174C148.071 79.1412 147.983 79.1649 147.869 79.1887C147.755 79.2148 147.612 79.229 147.441 79.2314C147.161 79.2362 146.9 79.1863 146.657 79.0818C146.415 78.9772 146.219 78.8157 146.069 78.5971C145.92 78.3786 145.845 78.1042 145.845 77.774V72.3755ZM149.885 81.2127C149.726 81.2127 149.581 81.1996 149.45 81.1735C149.32 81.1497 149.222 81.1236 149.158 81.0951L149.415 80.222C149.609 80.2743 149.783 80.2969 149.935 80.2897C150.087 80.2826 150.221 80.2256 150.337 80.1187C150.456 80.0118 150.561 79.8372 150.651 79.5949L150.783 79.2314L148.78 73.6868H149.921L151.307 77.9344H151.364L152.75 73.6868H153.894L151.638 79.8906C151.534 80.1757 151.401 80.4168 151.239 80.614C151.077 80.8136 150.885 80.9632 150.662 81.063C150.438 81.1628 150.179 81.2127 149.885 81.2127Z" fill="black"/>
<path d="M135.686 101.051V93.753H136.787V100.103H140.094V101.051H135.686ZM143.57 101.161C143.057 101.161 142.609 101.044 142.226 100.808C141.844 100.573 141.547 100.244 141.335 99.8214C141.124 99.3986 141.018 98.9045 141.018 98.3391C141.018 97.7713 141.124 97.2748 141.335 96.8496C141.547 96.4244 141.844 96.0941 142.226 95.859C142.609 95.6238 143.057 95.5062 143.57 95.5062C144.083 95.5062 144.531 95.6238 144.913 95.859C145.296 96.0941 145.593 96.4244 145.804 96.8496C146.015 97.2748 146.121 97.7713 146.121 98.3391C146.121 98.9045 146.015 99.3986 145.804 99.8214C145.593 100.244 145.296 100.573 144.913 100.808C144.531 101.044 144.083 101.161 143.57 101.161ZM143.573 100.267C143.906 100.267 144.181 100.179 144.4 100.003C144.619 99.8274 144.78 99.5934 144.885 99.3012C144.992 99.009 145.045 98.6871 145.045 98.3355C145.045 97.9863 144.992 97.6656 144.885 97.3734C144.78 97.0788 144.619 96.8425 144.4 96.6643C144.181 96.4861 143.906 96.397 143.573 96.397C143.238 96.397 142.96 96.4861 142.739 96.6643C142.521 96.8425 142.358 97.0788 142.251 97.3734C142.147 97.6656 142.094 97.9863 142.094 98.3355C142.094 98.6871 142.147 99.009 142.251 99.3012C142.358 99.5934 142.521 99.8274 142.739 100.003C142.96 100.179 143.238 100.267 143.573 100.267ZM151.412 96.9137L150.446 97.0848C150.406 96.9612 150.342 96.8436 150.254 96.732C150.168 96.6203 150.052 96.5289 149.904 96.4576C149.757 96.3863 149.573 96.3507 149.352 96.3507C149.05 96.3507 148.799 96.4184 148.597 96.5538C148.395 96.6869 148.294 96.8591 148.294 97.0705C148.294 97.2534 148.362 97.4007 148.497 97.5124C148.632 97.624 148.851 97.7155 149.153 97.7867L150.022 97.9863C150.526 98.1027 150.901 98.2821 151.148 98.5244C151.395 98.7667 151.519 99.0814 151.519 99.4686C151.519 99.7965 151.424 100.089 151.234 100.345C151.046 100.599 150.783 100.799 150.446 100.944C150.111 101.089 149.723 101.161 149.281 101.161C148.668 101.161 148.168 101.031 147.781 100.769C147.394 100.506 147.156 100.131 147.068 99.6468L148.098 99.49C148.162 99.7585 148.294 99.9616 148.493 100.099C148.693 100.235 148.953 100.302 149.274 100.302C149.623 100.302 149.902 100.23 150.111 100.085C150.32 99.9378 150.425 99.7585 150.425 99.547C150.425 99.376 150.361 99.2323 150.232 99.1159C150.106 98.9995 149.913 98.9116 149.651 98.8522L148.725 98.6491C148.214 98.5327 147.837 98.3474 147.592 98.0932C147.35 97.839 147.228 97.5171 147.228 97.1275C147.228 96.8044 147.319 96.5217 147.499 96.2794C147.68 96.0371 147.929 95.8483 148.248 95.7129C148.566 95.5751 148.931 95.5062 149.341 95.5062C149.933 95.5062 150.399 95.6345 150.738 95.891C151.078 96.1452 151.303 96.4861 151.412 96.9137ZM156.048 101.051H154.879L157.505 93.753H158.777L161.403 101.051H160.235L158.171 95.0786H158.114L156.048 101.051ZM156.244 98.193H160.035V99.1194H156.244V98.193ZM163.437 97.801V101.051H162.372V95.5775H163.394V96.4683H163.462C163.588 96.1785 163.785 95.9457 164.054 95.7699C164.325 95.5941 164.665 95.5062 165.076 95.5062C165.449 95.5062 165.776 95.5846 166.056 95.7414C166.337 95.8958 166.554 96.1262 166.708 96.4327C166.863 96.7391 166.94 97.118 166.94 97.5694V101.051H165.875V97.6977C165.875 97.3009 165.771 96.9909 165.565 96.7676C165.358 96.5419 165.074 96.4291 164.713 96.4291C164.466 96.4291 164.246 96.4826 164.054 96.5895C163.864 96.6964 163.713 96.8531 163.601 97.0598C163.492 97.2641 163.437 97.5112 163.437 97.801ZM170.664 103.217C170.229 103.217 169.855 103.16 169.541 103.046C169.23 102.932 168.976 102.781 168.779 102.594C168.582 102.406 168.434 102.201 168.337 101.977L169.253 101.6C169.317 101.704 169.402 101.815 169.509 101.931C169.618 102.05 169.766 102.151 169.951 102.234C170.139 102.317 170.38 102.359 170.674 102.359C171.078 102.359 171.412 102.26 171.676 102.063C171.939 101.868 172.071 101.557 172.071 101.129V100.053H172.004C171.939 100.169 171.847 100.299 171.726 100.441C171.607 100.584 171.443 100.708 171.234 100.812C171.025 100.917 170.753 100.969 170.418 100.969C169.986 100.969 169.596 100.868 169.249 100.666C168.905 100.462 168.631 100.161 168.43 99.7644C168.23 99.3653 168.13 98.8748 168.13 98.2927C168.13 97.7107 168.229 97.2119 168.426 96.7961C168.625 96.3804 168.899 96.0621 169.246 95.8411C169.592 95.6178 169.986 95.5062 170.425 95.5062C170.765 95.5062 171.039 95.5632 171.248 95.6772C171.457 95.7889 171.62 95.9195 171.736 96.0692C171.855 96.2189 171.947 96.3507 172.011 96.4647H172.089V95.5775H173.133V101.172C173.133 101.642 173.024 102.028 172.805 102.33C172.587 102.632 172.291 102.855 171.918 103C171.547 103.145 171.129 103.217 170.664 103.217ZM170.653 100.085C170.959 100.085 171.218 100.014 171.43 99.8713C171.644 99.7264 171.805 99.5197 171.914 99.2513C172.026 98.9805 172.082 98.6562 172.082 98.2785C172.082 97.9103 172.027 97.586 171.918 97.3057C171.809 97.0254 171.648 96.8068 171.437 96.65C171.226 96.4909 170.964 96.4113 170.653 96.4113C170.332 96.4113 170.065 96.4944 169.851 96.6607C169.637 96.8246 169.476 97.0479 169.367 97.3306C169.26 97.6133 169.206 97.9293 169.206 98.2785C169.206 98.6372 169.261 98.952 169.37 99.2228C169.48 99.4936 169.641 99.705 169.855 99.8571C170.071 100.009 170.337 100.085 170.653 100.085ZM176.921 101.161C176.382 101.161 175.917 101.046 175.528 100.816C175.141 100.583 174.841 100.256 174.63 99.8357C174.421 99.4128 174.316 98.9175 174.316 98.3498C174.316 97.7891 174.421 97.295 174.63 96.8674C174.841 96.4398 175.136 96.106 175.513 95.8661C175.894 95.6262 176.338 95.5062 176.846 95.5062C177.155 95.5062 177.454 95.5573 177.744 95.6594C178.034 95.7616 178.294 95.9219 178.525 96.1405C178.755 96.359 178.937 96.6429 179.07 96.9921C179.203 97.3389 179.269 97.7606 179.269 98.2571V98.6348H174.918V97.8366H178.225C178.225 97.5563 178.168 97.3081 178.054 97.0919C177.94 96.8733 177.78 96.7011 177.573 96.5752C177.369 96.4493 177.129 96.3863 176.853 96.3863C176.554 96.3863 176.293 96.46 176.069 96.6073C175.848 96.7522 175.677 96.9422 175.556 97.1774C175.437 97.4102 175.378 97.6632 175.378 97.9364V98.56C175.378 98.9258 175.442 99.237 175.57 99.4936C175.701 99.7502 175.883 99.9461 176.116 100.082C176.348 100.215 176.62 100.281 176.932 100.281C177.134 100.281 177.318 100.253 177.484 100.196C177.65 100.136 177.794 100.048 177.915 99.9319C178.036 99.8155 178.129 99.6718 178.193 99.5007L179.202 99.6825C179.121 99.9794 178.976 100.24 178.767 100.463C178.56 100.684 178.3 100.856 177.986 100.98C177.675 101.101 177.32 101.161 176.921 101.161ZM181.517 93.753V101.051H180.451V93.753H181.517ZM185.309 101.161C184.77 101.161 184.305 101.046 183.916 100.816C183.529 100.583 183.229 100.256 183.018 99.8357C182.809 99.4128 182.704 98.9175 182.704 98.3498C182.704 97.7891 182.809 97.295 183.018 96.8674C183.229 96.4398 183.524 96.106 183.902 95.8661C184.282 95.6262 184.726 95.5062 185.234 95.5062C185.543 95.5062 185.842 95.5573 186.132 95.6594C186.422 95.7616 186.682 95.9219 186.913 96.1405C187.143 96.359 187.325 96.6429 187.458 96.9921C187.591 97.3389 187.657 97.7606 187.657 98.2571V98.6348H183.307V97.8366H186.613C186.613 97.5563 186.556 97.3081 186.442 97.0919C186.328 96.8733 186.168 96.7011 185.961 96.5752C185.757 96.4493 185.517 96.3863 185.241 96.3863C184.942 96.3863 184.681 96.46 184.458 96.6073C184.237 96.7522 184.066 96.9422 183.944 97.1774C183.826 97.4102 183.766 97.6632 183.766 97.9364V98.56C183.766 98.9258 183.83 99.237 183.959 99.4936C184.089 99.7502 184.271 99.9461 184.504 100.082C184.737 100.215 185.009 100.281 185.32 100.281C185.522 100.281 185.706 100.253 185.872 100.196C186.038 100.136 186.182 100.048 186.303 99.9319C186.424 99.8155 186.517 99.6718 186.581 99.5007L187.59 99.6825C187.509 99.9794 187.364 100.24 187.155 100.463C186.948 100.684 186.688 100.856 186.375 100.98C186.063 101.101 185.708 101.161 185.309 101.161ZM192.941 96.9137L191.975 97.0848C191.935 96.9612 191.871 96.8436 191.783 96.732C191.697 96.6203 191.581 96.5289 191.434 96.4576C191.286 96.3863 191.102 96.3507 190.881 96.3507C190.58 96.3507 190.328 96.4184 190.126 96.5538C189.924 96.6869 189.823 96.8591 189.823 97.0705C189.823 97.2534 189.891 97.4007 190.026 97.5124C190.162 97.624 190.38 97.7155 190.682 97.7867L191.551 97.9863C192.055 98.1027 192.43 98.2821 192.677 98.5244C192.924 98.7667 193.048 99.0814 193.048 99.4686C193.048 99.7965 192.953 100.089 192.763 100.345C192.575 100.599 192.313 100.799 191.975 100.944C191.64 101.089 191.252 101.161 190.81 101.161C190.197 101.161 189.697 101.031 189.31 100.769C188.923 100.506 188.685 100.131 188.597 99.6468L189.627 99.49C189.691 99.7585 189.823 99.9616 190.023 100.099C190.222 100.235 190.482 100.302 190.803 100.302C191.152 100.302 191.431 100.23 191.64 100.085C191.849 99.9378 191.954 99.7585 191.954 99.547C191.954 99.376 191.89 99.2323 191.762 99.1159C191.636 98.9995 191.442 98.9116 191.181 98.8522L190.254 98.6491C189.743 98.5327 189.366 98.3474 189.121 98.0932C188.879 97.839 188.758 97.5171 188.758 97.1275C188.758 96.8044 188.848 96.5217 189.028 96.2794C189.209 96.0371 189.458 95.8483 189.777 95.7129C190.095 95.5751 190.46 95.5062 190.871 95.5062C191.462 95.5062 191.928 95.6345 192.267 95.891C192.607 96.1452 192.832 96.4861 192.941 96.9137Z" fill="black"/>
<path d="M227.524 100.996C226.961 100.994 226.48 100.845 226.081 100.551C225.682 100.256 225.377 99.8274 225.165 99.2644C224.954 98.7014 224.848 98.0231 224.848 97.2297C224.848 96.4386 224.954 95.7628 225.165 95.2021C225.379 94.6415 225.686 94.2139 226.085 93.9193C226.486 93.6247 226.966 93.4775 227.524 93.4775C228.083 93.4775 228.561 93.6259 228.96 93.9229C229.36 94.2175 229.665 94.6451 229.876 95.2057C230.09 95.764 230.197 96.4386 230.197 97.2297C230.197 98.0255 230.091 98.7049 229.88 99.2679C229.668 99.8286 229.363 100.257 228.964 100.554C228.565 100.849 228.085 100.996 227.524 100.996ZM227.524 100.045C228.019 100.045 228.405 99.8036 228.682 99.3214C228.963 98.8391 229.103 98.1419 229.103 97.2297C229.103 96.6239 229.039 96.112 228.911 95.6939C228.785 95.2734 228.603 94.9551 228.365 94.7389C228.13 94.5203 227.85 94.4111 227.524 94.4111C227.033 94.4111 226.647 94.6534 226.366 95.138C226.086 95.6226 225.945 96.3198 225.942 97.2297C225.942 97.8378 226.005 98.3521 226.131 98.7726C226.259 99.1907 226.441 99.5079 226.676 99.724C226.911 99.9378 227.194 100.045 227.524 100.045ZM231.461 100.875V100.077L233.93 97.5183C234.194 97.2404 234.411 96.9969 234.583 96.7878C234.756 96.5764 234.885 96.3757 234.971 96.1856C235.056 95.9956 235.099 95.7936 235.099 95.5798C235.099 95.3375 235.042 95.1285 234.928 94.9527C234.814 94.7745 234.659 94.6379 234.461 94.5429C234.264 94.4455 234.042 94.3968 233.795 94.3968C233.534 94.3968 233.306 94.4503 233.111 94.5572C232.916 94.6641 232.766 94.8149 232.662 95.0097C232.557 95.2045 232.505 95.4326 232.505 95.6939H231.454C231.454 95.2496 231.556 94.8612 231.76 94.5287C231.965 94.1961 232.245 93.9383 232.601 93.7554C232.958 93.5701 233.363 93.4775 233.816 93.4775C234.275 93.4775 234.679 93.5689 235.028 93.7518C235.38 93.9324 235.654 94.1794 235.851 94.493C236.048 94.8042 236.147 95.1558 236.147 95.5478C236.147 95.8186 236.096 96.0835 235.994 96.3424C235.894 96.6013 235.719 96.89 235.47 97.2083C235.22 97.5243 234.874 97.9079 234.429 98.3593L232.979 99.8773V99.9307H236.264V100.875H231.461ZM240.854 96.7629V97.6894H237.619V96.7629H240.854ZM241.966 100.875V100.077L244.435 97.5183C244.699 97.2404 244.916 96.9969 245.087 96.7878C245.261 96.5764 245.39 96.3757 245.476 96.1856C245.561 95.9956 245.604 95.7936 245.604 95.5798C245.604 95.3375 245.547 95.1285 245.433 94.9527C245.319 94.7745 245.163 94.6379 244.966 94.5429C244.769 94.4455 244.547 94.3968 244.3 94.3968C244.038 94.3968 243.81 94.4503 243.616 94.5572C243.421 94.6641 243.271 94.8149 243.167 95.0097C243.062 95.2045 243.01 95.4326 243.01 95.6939H241.959C241.959 95.2496 242.061 94.8612 242.265 94.5287C242.469 94.1961 242.75 93.9383 243.106 93.7554C243.462 93.5701 243.867 93.4775 244.321 93.4775C244.78 93.4775 245.184 93.5689 245.533 93.7518C245.884 93.9324 246.159 94.1794 246.356 94.493C246.553 94.8042 246.652 95.1558 246.652 95.5478C246.652 95.8186 246.601 96.0835 246.498 96.3424C246.399 96.6013 246.224 96.89 245.975 97.2083C245.725 97.5243 245.378 97.9079 244.934 98.3593L243.484 99.8773V99.9307H246.769V100.875H241.966ZM247.81 99.4497V98.5588L250.963 93.5772H251.665V94.8886H251.22L248.964 98.459V98.5161H253.287V99.4497H247.81ZM251.27 100.875V99.1788L251.277 98.7726V93.5772H252.321V100.875H251.27Z" fill="black"/>
<path d="M135.686 150.312V143.015H138.287C138.855 143.015 139.325 143.118 139.698 143.325C140.071 143.531 140.35 143.814 140.536 144.173C140.721 144.529 140.813 144.931 140.813 145.377C140.813 145.826 140.72 146.23 140.532 146.589C140.347 146.945 140.066 147.228 139.691 147.437C139.318 147.644 138.849 147.747 138.283 147.747H136.495V146.813H138.184C138.542 146.813 138.833 146.752 139.057 146.628C139.28 146.502 139.444 146.331 139.548 146.115C139.653 145.899 139.705 145.653 139.705 145.377C139.705 145.102 139.653 144.857 139.548 144.643C139.444 144.429 139.279 144.262 139.053 144.141C138.83 144.02 138.535 143.959 138.169 143.959H136.787V150.312H135.686ZM143.563 150.434C143.216 150.434 142.902 150.37 142.622 150.241C142.342 150.111 142.119 149.922 141.956 149.675C141.794 149.428 141.713 149.125 141.713 148.766C141.713 148.457 141.773 148.203 141.891 148.003C142.01 147.804 142.171 147.646 142.372 147.53C142.574 147.413 142.8 147.325 143.049 147.266C143.299 147.206 143.553 147.161 143.812 147.13C144.14 147.092 144.406 147.062 144.61 147.038C144.815 147.012 144.963 146.97 145.056 146.913C145.148 146.856 145.195 146.763 145.195 146.635V146.61C145.195 146.299 145.107 146.058 144.931 145.887C144.758 145.716 144.499 145.63 144.154 145.63C143.795 145.63 143.513 145.71 143.306 145.869C143.102 146.026 142.96 146.2 142.882 146.393L141.881 146.165C141.999 145.832 142.173 145.564 142.401 145.359C142.631 145.153 142.896 145.003 143.196 144.91C143.495 144.815 143.81 144.768 144.14 144.768C144.358 144.768 144.59 144.794 144.835 144.846C145.082 144.896 145.312 144.989 145.526 145.124C145.742 145.26 145.919 145.453 146.057 145.705C146.195 145.955 146.264 146.279 146.264 146.678V150.312H145.223V149.564H145.18C145.111 149.702 145.008 149.837 144.87 149.97C144.733 150.103 144.556 150.214 144.339 150.302C144.123 150.39 143.864 150.434 143.563 150.434ZM143.794 149.578C144.089 149.578 144.341 149.52 144.55 149.404C144.761 149.287 144.921 149.135 145.031 148.948C145.142 148.758 145.198 148.555 145.198 148.338V147.633C145.16 147.671 145.087 147.706 144.977 147.74C144.87 147.771 144.748 147.798 144.61 147.822C144.472 147.843 144.338 147.863 144.208 147.882C144.077 147.899 143.968 147.913 143.88 147.925C143.673 147.951 143.484 147.995 143.313 148.057C143.144 148.119 143.009 148.208 142.907 148.324C142.807 148.438 142.757 148.59 142.757 148.78C142.757 149.044 142.855 149.243 143.049 149.379C143.244 149.512 143.493 149.578 143.794 149.578ZM148.748 143.015V150.312H147.683V143.015H148.748ZM150.182 150.312V144.839H151.204V145.73H151.272C151.386 145.428 151.572 145.193 151.831 145.024C152.09 144.853 152.4 144.768 152.761 144.768C153.127 144.768 153.434 144.853 153.681 145.024C153.93 145.196 154.114 145.431 154.233 145.73H154.29C154.421 145.438 154.629 145.205 154.914 145.032C155.199 144.856 155.538 144.768 155.933 144.768C156.429 144.768 156.834 144.924 157.148 145.235C157.464 145.546 157.622 146.015 157.622 146.642V150.312H156.556V146.742C156.556 146.371 156.455 146.103 156.254 145.937C156.052 145.77 155.81 145.687 155.53 145.687C155.183 145.687 154.914 145.794 154.721 146.008C154.529 146.219 154.433 146.491 154.433 146.824V150.312H153.371V146.674C153.371 146.377 153.278 146.139 153.093 145.958C152.908 145.778 152.666 145.687 152.369 145.687C152.168 145.687 151.981 145.741 151.81 145.848C151.641 145.952 151.505 146.098 151.4 146.286C151.298 146.474 151.247 146.691 151.247 146.938V150.312H150.182ZM165.771 144.932C165.733 144.594 165.576 144.333 165.301 144.148C165.025 143.96 164.678 143.866 164.26 143.866C163.961 143.866 163.702 143.914 163.484 144.009C163.265 144.102 163.095 144.23 162.974 144.394C162.855 144.555 162.796 144.739 162.796 144.946C162.796 145.119 162.836 145.269 162.917 145.395C163 145.521 163.108 145.627 163.241 145.712C163.377 145.795 163.522 145.865 163.676 145.922C163.83 145.977 163.979 146.022 164.121 146.058L164.834 146.243C165.067 146.3 165.306 146.377 165.55 146.475C165.795 146.572 166.022 146.7 166.231 146.86C166.44 147.019 166.609 147.216 166.737 147.451C166.868 147.686 166.933 147.968 166.933 148.296C166.933 148.709 166.826 149.076 166.612 149.397C166.401 149.717 166.093 149.97 165.689 150.156C165.288 150.341 164.802 150.434 164.232 150.434C163.685 150.434 163.213 150.347 162.814 150.174C162.415 150 162.102 149.754 161.876 149.436C161.651 149.115 161.526 148.735 161.502 148.296H162.607C162.628 148.559 162.714 148.779 162.864 148.955C163.016 149.128 163.209 149.258 163.444 149.343C163.682 149.426 163.942 149.468 164.225 149.468C164.536 149.468 164.813 149.419 165.055 149.322C165.3 149.222 165.492 149.084 165.632 148.909C165.772 148.73 165.843 148.523 165.843 148.285C165.843 148.069 165.781 147.892 165.657 147.754C165.536 147.616 165.371 147.502 165.162 147.412C164.955 147.322 164.721 147.242 164.46 147.173L163.598 146.938C163.013 146.779 162.55 146.545 162.208 146.236C161.868 145.927 161.698 145.519 161.698 145.01C161.698 144.59 161.812 144.223 162.04 143.909C162.268 143.596 162.577 143.352 162.967 143.179C163.356 143.003 163.796 142.915 164.285 142.915C164.779 142.915 165.215 143.002 165.593 143.175C165.973 143.349 166.272 143.587 166.491 143.891C166.71 144.193 166.824 144.54 166.833 144.932H165.771ZM168.163 152.365V144.839H169.204V145.726H169.293C169.354 145.612 169.444 145.481 169.56 145.331C169.676 145.181 169.838 145.051 170.045 144.939C170.251 144.825 170.524 144.768 170.864 144.768C171.306 144.768 171.7 144.88 172.047 145.103C172.394 145.326 172.666 145.648 172.863 146.069C173.063 146.489 173.163 146.995 173.163 147.587C173.163 148.178 173.064 148.685 172.867 149.108C172.67 149.529 172.399 149.853 172.054 150.081C171.71 150.307 171.317 150.419 170.875 150.419C170.542 150.419 170.27 150.364 170.059 150.252C169.85 150.14 169.686 150.01 169.567 149.86C169.448 149.71 169.357 149.577 169.293 149.461H169.229V152.365H168.163ZM169.207 147.576C169.207 147.961 169.263 148.298 169.375 148.588C169.486 148.878 169.648 149.105 169.859 149.268C170.071 149.43 170.33 149.511 170.636 149.511C170.954 149.511 171.221 149.426 171.434 149.258C171.648 149.087 171.81 148.855 171.919 148.563C172.031 148.271 172.086 147.942 172.086 147.576C172.086 147.215 172.032 146.89 171.922 146.603C171.816 146.316 171.654 146.089 171.438 145.922C171.224 145.756 170.957 145.673 170.636 145.673C170.327 145.673 170.066 145.753 169.852 145.912C169.641 146.071 169.48 146.293 169.371 146.578C169.262 146.863 169.207 147.196 169.207 147.576ZM174.356 150.312V144.839H175.386V145.709H175.443C175.543 145.414 175.719 145.182 175.97 145.014C176.225 144.843 176.512 144.757 176.833 144.757C176.899 144.757 176.978 144.76 177.068 144.764C177.161 144.769 177.233 144.775 177.285 144.782V145.801C177.243 145.789 177.167 145.776 177.057 145.762C176.948 145.745 176.839 145.737 176.729 145.737C176.478 145.737 176.253 145.791 176.056 145.897C175.861 146.002 175.707 146.148 175.593 146.336C175.479 146.521 175.422 146.733 175.422 146.97V150.312H174.356ZM178.207 150.312V144.839H179.273V150.312H178.207ZM178.745 143.995C178.56 143.995 178.401 143.933 178.268 143.809C178.137 143.683 178.072 143.534 178.072 143.36C178.072 143.185 178.137 143.035 178.268 142.911C178.401 142.785 178.56 142.723 178.745 142.723C178.931 142.723 179.089 142.785 179.219 142.911C179.352 143.035 179.419 143.185 179.419 143.36C179.419 143.534 179.352 143.683 179.219 143.809C179.089 143.933 178.931 143.995 178.745 143.995ZM181.772 147.063V150.312H180.706V144.839H181.729V145.73H181.797C181.922 145.44 182.12 145.207 182.388 145.032C182.659 144.856 183 144.768 183.411 144.768C183.784 144.768 184.11 144.846 184.391 145.003C184.671 145.158 184.888 145.388 185.043 145.694C185.197 146.001 185.274 146.38 185.274 146.831V150.312H184.209V146.959C184.209 146.563 184.106 146.253 183.899 146.029C183.692 145.804 183.408 145.691 183.047 145.691C182.8 145.691 182.581 145.744 182.388 145.851C182.198 145.958 182.047 146.115 181.936 146.322C181.826 146.526 181.772 146.773 181.772 147.063ZM188.998 152.479C188.563 152.479 188.189 152.422 187.876 152.308C187.564 152.194 187.31 152.043 187.113 151.855C186.916 151.668 186.769 151.462 186.671 151.239L187.587 150.861C187.651 150.966 187.737 151.076 187.844 151.193C187.953 151.311 188.1 151.412 188.285 151.496C188.473 151.579 188.714 151.62 189.009 151.62C189.413 151.62 189.746 151.522 190.01 151.324C190.274 151.13 190.406 150.818 190.406 150.391V149.315H190.338C190.274 149.431 190.181 149.561 190.06 149.703C189.941 149.846 189.777 149.969 189.568 150.074C189.359 150.178 189.087 150.231 188.752 150.231C188.32 150.231 187.93 150.13 187.583 149.928C187.239 149.723 186.966 149.423 186.764 149.026C186.564 148.627 186.465 148.136 186.465 147.554C186.465 146.972 186.563 146.474 186.76 146.058C186.96 145.642 187.233 145.324 187.58 145.103C187.927 144.88 188.32 144.768 188.759 144.768C189.099 144.768 189.373 144.825 189.583 144.939C189.792 145.051 189.954 145.181 190.071 145.331C190.189 145.481 190.281 145.612 190.345 145.726H190.423V144.839H191.468V150.434C191.468 150.904 191.358 151.29 191.14 151.592C190.921 151.893 190.625 152.117 190.252 152.262C189.882 152.407 189.464 152.479 188.998 152.479ZM188.987 149.347C189.294 149.347 189.553 149.276 189.764 149.133C189.978 148.988 190.14 148.781 190.249 148.513C190.361 148.242 190.416 147.918 190.416 147.54C190.416 147.172 190.362 146.848 190.252 146.567C190.143 146.287 189.983 146.069 189.771 145.912C189.56 145.753 189.299 145.673 188.987 145.673C188.667 145.673 188.399 145.756 188.186 145.922C187.972 146.086 187.81 146.31 187.701 146.592C187.594 146.875 187.541 147.191 187.541 147.54C187.541 147.899 187.595 148.214 187.705 148.484C187.814 148.755 187.975 148.967 188.189 149.119C188.405 149.271 188.671 149.347 188.987 149.347ZM196.998 146.175L196.032 146.346C195.992 146.223 195.928 146.105 195.84 145.994C195.754 145.882 195.638 145.791 195.491 145.719C195.343 145.648 195.159 145.612 194.938 145.612C194.637 145.612 194.385 145.68 194.183 145.816C193.981 145.949 193.88 146.121 193.88 146.332C193.88 146.515 193.948 146.662 194.083 146.774C194.218 146.886 194.437 146.977 194.739 147.048L195.608 147.248C196.112 147.364 196.487 147.544 196.734 147.786C196.981 148.028 197.105 148.343 197.105 148.73C197.105 149.058 197.01 149.35 196.82 149.607C196.632 149.861 196.37 150.061 196.032 150.206C195.697 150.351 195.309 150.423 194.867 150.423C194.254 150.423 193.754 150.292 193.367 150.031C192.98 149.767 192.742 149.393 192.654 148.909L193.684 148.752C193.748 149.02 193.88 149.223 194.079 149.361C194.279 149.496 194.539 149.564 194.86 149.564C195.209 149.564 195.488 149.492 195.697 149.347C195.906 149.2 196.011 149.02 196.011 148.809C196.011 148.638 195.947 148.494 195.818 148.378C195.692 148.261 195.499 148.173 195.238 148.114L194.311 147.911C193.8 147.794 193.423 147.609 193.178 147.355C192.936 147.101 192.814 146.779 192.814 146.389C192.814 146.066 192.905 145.783 193.085 145.541C193.266 145.299 193.515 145.11 193.834 144.975C194.152 144.837 194.517 144.768 194.928 144.768C195.519 144.768 195.985 144.896 196.324 145.153C196.664 145.407 196.889 145.748 196.998 146.175Z" fill="black"/>
<path d="M225.083 79.1602V71.8624H227.685C228.25 71.8624 228.719 71.9598 229.092 72.1546C229.468 72.3494 229.748 72.619 229.933 72.9635C230.119 73.3056 230.211 73.7011 230.211 74.1501C230.211 74.5967 230.117 74.9898 229.93 75.3295C229.744 75.6669 229.464 75.9294 229.089 76.117C228.716 76.3047 228.247 76.3986 227.681 76.3986H225.711V75.4507H227.581C227.938 75.4507 228.228 75.3996 228.451 75.2975C228.677 75.1953 228.842 75.0469 228.946 74.8521C229.051 74.6573 229.103 74.4233 229.103 74.1501C229.103 73.8745 229.05 73.6358 228.943 73.4338C228.838 73.2319 228.673 73.0775 228.447 72.9706C228.224 72.8613 227.931 72.8067 227.567 72.8067H226.185V79.1602H225.083ZM228.686 75.8676L230.489 79.1602H229.235L227.467 75.8676H228.686ZM233.756 79.2706C233.217 79.2706 232.752 79.1554 232.363 78.925C231.975 78.6922 231.676 78.3655 231.465 77.9451C231.256 77.5222 231.151 77.0269 231.151 76.4591C231.151 75.8985 231.256 75.4044 231.465 74.9768C231.676 74.5492 231.971 74.2154 232.348 73.9755C232.728 73.7355 233.173 73.6156 233.681 73.6156C233.99 73.6156 234.289 73.6666 234.579 73.7688C234.869 73.8709 235.129 74.0313 235.359 74.2498C235.59 74.4684 235.771 74.7523 235.905 75.1015C236.038 75.4483 236.104 75.87 236.104 76.3665V76.7442H231.753V75.946H235.06C235.06 75.6657 235.003 75.4174 234.889 75.2013C234.775 74.9827 234.615 74.8105 234.408 74.6846C234.204 74.5587 233.964 74.4957 233.688 74.4957C233.389 74.4957 233.127 74.5694 232.904 74.7166C232.683 74.8616 232.512 75.0516 232.391 75.2868C232.272 75.5196 232.213 75.7726 232.213 76.0458V76.6694C232.213 77.0352 232.277 77.3464 232.405 77.603C232.536 77.8595 232.718 78.0555 232.951 78.1909C233.183 78.324 233.455 78.3905 233.767 78.3905C233.968 78.3905 234.153 78.362 234.319 78.3049C234.485 78.2456 234.629 78.1577 234.75 78.0413C234.871 77.9249 234.964 77.7811 235.028 77.6101L236.036 77.7918C235.956 78.0888 235.811 78.3489 235.602 78.5722C235.395 78.7931 235.135 78.9654 234.821 79.0889C234.51 79.21 234.155 79.2706 233.756 79.2706ZM239.592 79.2706C239.062 79.2706 238.606 79.1507 238.223 78.9107C237.843 78.6684 237.551 78.3346 237.347 77.9094C237.142 77.4842 237.04 76.9972 237.04 76.4484C237.04 75.8926 237.145 75.402 237.354 74.9768C237.563 74.5492 237.858 74.2154 238.238 73.9755C238.618 73.7355 239.066 73.6156 239.581 73.6156C239.997 73.6156 240.367 73.6928 240.693 73.8472C241.018 73.9992 241.281 74.213 241.48 74.4886C241.682 74.7642 241.802 75.086 241.84 75.4543H240.803C240.746 75.1977 240.616 74.9768 240.411 74.7915C240.209 74.6062 239.939 74.5135 239.599 74.5135C239.302 74.5135 239.042 74.5919 238.818 74.7487C238.598 74.9031 238.425 75.1241 238.302 75.4115C238.178 75.6966 238.116 76.0339 238.116 76.4235C238.116 76.8226 238.177 77.167 238.298 77.4569C238.419 77.7467 238.59 77.9712 238.811 78.1303C239.035 78.2895 239.297 78.3691 239.599 78.3691C239.801 78.3691 239.984 78.3323 240.148 78.2586C240.314 78.1826 240.453 78.0745 240.565 77.9344C240.679 77.7942 240.758 77.6255 240.803 77.4284H241.84C241.802 77.7823 241.687 78.0983 241.495 78.3762C241.302 78.6542 241.044 78.8727 240.721 79.0319C240.401 79.191 240.024 79.2706 239.592 79.2706ZM245.339 79.2706C244.799 79.2706 244.335 79.1554 243.945 78.925C243.558 78.6922 243.259 78.3655 243.047 77.9451C242.838 77.5222 242.734 77.0269 242.734 76.4591C242.734 75.8985 242.838 75.4044 243.047 74.9768C243.259 74.5492 243.553 74.2154 243.931 73.9755C244.311 73.7355 244.755 73.6156 245.264 73.6156C245.573 73.6156 245.872 73.6666 246.162 73.7688C246.451 73.8709 246.712 74.0313 246.942 74.2498C247.172 74.4684 247.354 74.7523 247.487 75.1015C247.62 75.4483 247.687 75.87 247.687 76.3665V76.7442H243.336V75.946H246.643C246.643 75.6657 246.586 75.4174 246.472 75.2013C246.358 74.9827 246.197 74.8105 245.991 74.6846C245.786 74.5587 245.546 74.4957 245.271 74.4957C244.971 74.4957 244.71 74.5694 244.487 74.7166C244.266 74.8616 244.095 75.0516 243.974 75.2868C243.855 75.5196 243.796 75.7726 243.796 76.0458V76.6694C243.796 77.0352 243.86 77.3464 243.988 77.603C244.119 77.8595 244.3 78.0555 244.533 78.1909C244.766 78.324 245.038 78.3905 245.349 78.3905C245.551 78.3905 245.735 78.362 245.902 78.3049C246.068 78.2456 246.212 78.1577 246.333 78.0413C246.454 77.9249 246.547 77.7811 246.611 77.6101L247.619 77.7918C247.538 78.0888 247.393 78.3489 247.184 78.5722C246.978 78.7931 246.718 78.9654 246.404 79.0889C246.093 79.21 245.738 79.2706 245.339 79.2706ZM249.934 75.9104V79.1602H248.869V73.6868H249.892V74.5777H249.959C250.085 74.2879 250.282 74.055 250.551 73.8793C250.822 73.7035 251.163 73.6156 251.574 73.6156C251.946 73.6156 252.273 73.694 252.553 73.8507C252.834 74.0052 253.051 74.2356 253.206 74.542C253.36 74.8485 253.437 75.2274 253.437 75.6788V79.1602H252.372V75.807C252.372 75.4103 252.268 75.1003 252.062 74.877C251.855 74.6513 251.571 74.5385 251.21 74.5385C250.963 74.5385 250.743 74.5919 250.551 74.6988C250.361 74.8057 250.21 74.9625 250.098 75.1692C249.989 75.3735 249.934 75.6206 249.934 75.9104ZM257.421 73.6868V74.542H254.431V73.6868H257.421ZM255.233 72.3755H256.299V77.5531C256.299 77.7598 256.329 77.9154 256.391 78.0199C256.453 78.122 256.533 78.1921 256.63 78.2301C256.73 78.2658 256.838 78.2836 256.954 78.2836C257.04 78.2836 257.115 78.2776 257.179 78.2658C257.243 78.2539 257.293 78.2444 257.328 78.2372L257.521 79.1174C257.459 79.1412 257.371 79.1649 257.257 79.1887C257.143 79.2148 257.001 79.229 256.829 79.2314C256.549 79.2362 256.288 79.1863 256.046 79.0818C255.803 78.9772 255.607 78.8157 255.458 78.5971C255.308 78.3786 255.233 78.1042 255.233 77.774V72.3755ZM266.034 71.8624H267.138V76.6622C267.138 77.173 267.018 77.6255 266.778 78.0199C266.538 78.4119 266.201 78.7207 265.766 78.9464C265.332 79.1697 264.822 79.2813 264.238 79.2813C263.656 79.2813 263.147 79.1697 262.713 78.9464C262.278 78.7207 261.941 78.4119 261.701 78.0199C261.461 77.6255 261.341 77.173 261.341 76.6622V71.8624H262.442V76.5732C262.442 76.9034 262.514 77.1967 262.659 77.4533C262.806 77.7099 263.014 77.9118 263.283 78.0591C263.551 78.204 263.869 78.2764 264.238 78.2764C264.608 78.2764 264.928 78.204 265.196 78.0591C265.467 77.9118 265.674 77.7099 265.816 77.4533C265.961 77.1967 266.034 76.9034 266.034 76.5732V71.8624ZM268.654 81.2127V73.6868H269.694V74.5741H269.783C269.845 74.4601 269.934 74.3282 270.05 74.1786C270.167 74.0289 270.328 73.8983 270.535 73.7866C270.742 73.6726 271.015 73.6156 271.355 73.6156C271.796 73.6156 272.191 73.7272 272.538 73.9505C272.884 74.1738 273.156 74.4957 273.354 74.9162C273.553 75.3367 273.653 75.8427 273.653 76.4342C273.653 77.0257 273.554 77.5329 273.357 77.9557C273.16 78.3762 272.889 78.7005 272.545 78.9285C272.2 79.1542 271.807 79.2671 271.365 79.2671C271.033 79.2671 270.761 79.2112 270.549 79.0996C270.34 78.9879 270.176 78.8573 270.058 78.7076C269.939 78.5579 269.847 78.4249 269.783 78.3085H269.719V81.2127H268.654ZM269.698 76.4235C269.698 76.8083 269.753 77.1457 269.865 77.4355C269.977 77.7253 270.138 77.9522 270.35 78.1161C270.561 78.2776 270.82 78.3584 271.127 78.3584C271.445 78.3584 271.711 78.2741 271.925 78.1054C272.139 77.9344 272.3 77.7027 272.409 77.4105C272.521 77.1184 272.577 76.7893 272.577 76.4235C272.577 76.0624 272.522 75.7381 272.413 75.4507C272.306 75.1633 272.144 74.9364 271.928 74.7701C271.715 74.6038 271.447 74.5207 271.127 74.5207C270.818 74.5207 270.556 74.6002 270.343 74.7594C270.131 74.9186 269.971 75.1407 269.862 75.4258C269.752 75.7108 269.698 76.0434 269.698 76.4235ZM276.896 79.2671C276.454 79.2671 276.059 79.1542 275.713 78.9285C275.368 78.7005 275.097 78.3762 274.9 77.9557C274.705 77.5329 274.608 77.0257 274.608 76.4342C274.608 75.8427 274.707 75.3367 274.904 74.9162C275.103 74.4957 275.376 74.1738 275.723 73.9505C276.07 73.7272 276.463 73.6156 276.903 73.6156C277.242 73.6156 277.516 73.6726 277.722 73.7866C277.931 73.8983 278.093 74.0289 278.207 74.1786C278.323 74.3282 278.414 74.4601 278.478 74.5741H278.542V71.8624H279.607V79.1602H278.567V78.3085H278.478C278.414 78.4249 278.321 78.5579 278.2 78.7076C278.081 78.8573 277.917 78.9879 277.708 79.0996C277.499 79.2112 277.228 79.2671 276.896 79.2671ZM277.131 78.3584C277.437 78.3584 277.696 78.2776 277.908 78.1161C278.121 77.9522 278.283 77.7253 278.392 77.4355C278.504 77.1457 278.56 76.8083 278.56 76.4235C278.56 76.0434 278.505 75.7108 278.396 75.4258C278.287 75.1407 278.126 74.9186 277.915 74.7594C277.703 74.6002 277.442 74.5207 277.131 74.5207C276.81 74.5207 276.543 74.6038 276.329 74.7701C276.115 74.9364 275.954 75.1633 275.844 75.4507C275.738 75.7381 275.684 76.0624 275.684 76.4235C275.684 76.7893 275.739 77.1184 275.848 77.4105C275.957 77.7027 276.119 77.9344 276.333 78.1054C276.549 78.2741 276.815 78.3584 277.131 78.3584ZM282.721 79.2813C282.374 79.2813 282.06 79.2172 281.78 79.0889C281.5 78.9582 281.278 78.7694 281.114 78.5223C280.952 78.2753 280.871 77.9724 280.871 77.6137C280.871 77.3048 280.931 77.0506 281.05 76.8511C281.168 76.6516 281.329 76.4936 281.531 76.3772C281.733 76.2608 281.958 76.1729 282.208 76.1135C282.457 76.0541 282.711 76.009 282.97 75.9781C283.298 75.9401 283.564 75.9092 283.768 75.8854C283.973 75.8593 284.121 75.8177 284.214 75.7607C284.307 75.7037 284.353 75.611 284.353 75.4828V75.4578C284.353 75.1466 284.265 74.9055 284.089 74.7345C283.916 74.5634 283.657 74.4779 283.312 74.4779C282.954 74.4779 282.671 74.5575 282.464 74.7166C282.26 74.8734 282.119 75.048 282.04 75.2405L281.039 75.0124C281.158 74.6798 281.331 74.4114 281.559 74.2071C281.79 74.0004 282.054 73.8507 282.354 73.7581C282.653 73.6631 282.968 73.6156 283.298 73.6156C283.517 73.6156 283.748 73.6417 283.993 73.694C284.24 73.7438 284.47 73.8365 284.684 73.9719C284.9 74.1073 285.077 74.3009 285.215 74.5527C285.353 74.8022 285.422 75.1264 285.422 75.5255V79.1602H284.381V78.4119H284.339C284.27 78.5496 284.166 78.685 284.029 78.8181C283.891 78.9511 283.714 79.0616 283.498 79.1495C283.281 79.2374 283.023 79.2813 282.721 79.2813ZM282.952 78.4261C283.247 78.4261 283.499 78.3679 283.708 78.2515C283.919 78.1351 284.08 77.9831 284.189 77.7954C284.301 77.6053 284.356 77.4022 284.356 77.1861V76.4805C284.318 76.5185 284.245 76.5542 284.136 76.5874C284.029 76.6183 283.906 76.6456 283.768 76.6694C283.631 76.6907 283.496 76.7109 283.366 76.7299C283.235 76.7466 283.126 76.7608 283.038 76.7727C282.831 76.7988 282.642 76.8428 282.471 76.9045C282.303 76.9663 282.167 77.0554 282.065 77.1718C281.965 77.2858 281.916 77.4379 281.916 77.6279C281.916 77.8916 282.013 78.0911 282.208 78.2266C282.403 78.3596 282.651 78.4261 282.952 78.4261ZM289.396 73.6868V74.542H286.406V73.6868H289.396ZM287.208 72.3755H288.273V77.5531C288.273 77.7598 288.304 77.9154 288.366 78.0199C288.428 78.122 288.507 78.1921 288.605 78.2301C288.705 78.2658 288.813 78.2836 288.929 78.2836C289.015 78.2836 289.089 78.2776 289.154 78.2658C289.218 78.2539 289.268 78.2444 289.303 78.2372L289.496 79.1174C289.434 79.1412 289.346 79.1649 289.232 79.1887C289.118 79.2148 288.975 79.229 288.804 79.2314C288.524 79.2362 288.263 79.1863 288.02 79.0818C287.778 78.9772 287.582 78.8157 287.433 78.5971C287.283 78.3786 287.208 78.1042 287.208 77.774V72.3755ZM292.875 79.2706C292.335 79.2706 291.871 79.1554 291.481 78.925C291.094 78.6922 290.795 78.3655 290.583 77.9451C290.374 77.5222 290.27 77.0269 290.27 76.4591C290.27 75.8985 290.374 75.4044 290.583 74.9768C290.795 74.5492 291.089 74.2154 291.467 73.9755C291.847 73.7355 292.291 73.6156 292.8 73.6156C293.109 73.6156 293.408 73.6666 293.698 73.7688C293.988 73.8709 294.248 74.0313 294.478 74.2498C294.709 74.4684 294.89 74.7523 295.023 75.1015C295.156 75.4483 295.223 75.87 295.223 76.3665V76.7442H290.872V75.946H294.179C294.179 75.6657 294.122 75.4174 294.008 75.2013C293.894 74.9827 293.733 74.8105 293.527 74.6846C293.322 74.5587 293.083 74.4957 292.807 74.4957C292.508 74.4957 292.246 74.5694 292.023 74.7166C291.802 74.8616 291.631 75.0516 291.51 75.2868C291.391 75.5196 291.332 75.7726 291.332 76.0458V76.6694C291.332 77.0352 291.396 77.3464 291.524 77.603C291.655 77.8595 291.837 78.0555 292.069 78.1909C292.302 78.324 292.574 78.3905 292.885 78.3905C293.087 78.3905 293.271 78.362 293.438 78.3049C293.604 78.2456 293.748 78.1577 293.869 78.0413C293.99 77.9249 294.083 77.7811 294.147 77.6101L295.155 77.7918C295.074 78.0888 294.93 78.3489 294.72 78.5722C294.514 78.7931 294.254 78.9654 293.94 79.0889C293.629 79.21 293.274 79.2706 292.875 79.2706Z" fill="black"/>
<path d="M343.672 71.8624H345.008L347.332 77.5353H347.417L349.741 71.8624H351.077V79.1602H350.029V73.8793H349.961L347.809 79.1495H346.94L344.787 73.8757H344.72V79.1602H343.672V71.8624ZM354.898 79.2706C354.384 79.2706 353.937 79.153 353.554 78.9178C353.172 78.6827 352.875 78.3536 352.663 77.9308C352.452 77.5079 352.346 77.0138 352.346 76.4484C352.346 75.8807 352.452 75.3842 352.663 74.959C352.875 74.5337 353.172 74.2035 353.554 73.9683C353.937 73.7332 354.384 73.6156 354.898 73.6156C355.411 73.6156 355.859 73.7332 356.241 73.9683C356.623 74.2035 356.92 74.5337 357.132 74.959C357.343 75.3842 357.449 75.8807 357.449 76.4484C357.449 77.0138 357.343 77.5079 357.132 77.9308C356.92 78.3536 356.623 78.6827 356.241 78.9178C355.859 79.153 355.411 79.2706 354.898 79.2706ZM354.901 78.3762C355.234 78.3762 355.509 78.2883 355.728 78.1125C355.946 77.9367 356.108 77.7027 356.212 77.4105C356.319 77.1184 356.373 76.7965 356.373 76.4449C356.373 76.0957 356.319 75.775 356.212 75.4828C356.108 75.1882 355.946 74.9518 355.728 74.7737C355.509 74.5955 355.234 74.5064 354.901 74.5064C354.566 74.5064 354.288 74.5955 354.067 74.7737C353.849 74.9518 353.686 75.1882 353.579 75.4828C353.475 75.775 353.422 76.0957 353.422 76.4449C353.422 76.7965 353.475 77.1184 353.579 77.4105C353.686 77.7027 353.849 77.9367 354.067 78.1125C354.288 78.2883 354.566 78.3762 354.901 78.3762ZM358.638 79.1602V73.6868H359.668V74.5563H359.725C359.825 74.2617 360.001 74.0301 360.252 73.8614C360.507 73.6904 360.794 73.6049 361.115 73.6049C361.181 73.6049 361.26 73.6073 361.35 73.612C361.443 73.6168 361.515 73.6227 361.567 73.6298V74.6489C361.525 74.6371 361.449 74.624 361.339 74.6097C361.23 74.5931 361.121 74.5848 361.011 74.5848C360.76 74.5848 360.535 74.6383 360.338 74.7452C360.143 74.8497 359.989 74.9958 359.875 75.1834C359.761 75.3687 359.704 75.5802 359.704 75.8177V79.1602H358.638ZM364.652 79.2706C364.113 79.2706 363.649 79.1554 363.259 78.925C362.872 78.6922 362.572 78.3655 362.361 77.9451C362.152 77.5222 362.047 77.0269 362.047 76.4591C362.047 75.8985 362.152 75.4044 362.361 74.9768C362.572 74.5492 362.867 74.2154 363.245 73.9755C363.625 73.7355 364.069 73.6156 364.577 73.6156C364.886 73.6156 365.186 73.6666 365.475 73.7688C365.765 73.8709 366.025 74.0313 366.256 74.2498C366.486 74.4684 366.668 74.7523 366.801 75.1015C366.934 75.4483 367.001 75.87 367.001 76.3665V76.7442H362.65V75.946H365.956C365.956 75.6657 365.899 75.4174 365.785 75.2013C365.671 74.9827 365.511 74.8105 365.304 74.6846C365.1 74.5587 364.86 74.4957 364.585 74.4957C364.285 74.4957 364.024 74.5694 363.801 74.7166C363.58 74.8616 363.409 75.0516 363.288 75.2868C363.169 75.5196 363.109 75.7726 363.109 76.0458V76.6694C363.109 77.0352 363.173 77.3464 363.302 77.603C363.432 77.8595 363.614 78.0555 363.847 78.1909C364.08 78.324 364.352 78.3905 364.663 78.3905C364.865 78.3905 365.049 78.362 365.215 78.3049C365.382 78.2456 365.525 78.1577 365.646 78.0413C365.768 77.9249 365.86 77.7811 365.924 77.6101L366.933 77.7918C366.852 78.0888 366.707 78.3489 366.498 78.5722C366.291 78.7931 366.031 78.9654 365.718 79.0889C365.407 79.21 365.051 79.2706 364.652 79.2706Z" fill="black"/>
<rect x="38.189" y="97" width="53.821" height="5.47332" rx="2.73666" fill="#D9D9D9" fill-opacity="0.7"/>
<rect x="38.189" y="143.523" width="39.2255" height="5.47332" rx="2.73666" fill="#D9D9D9" fill-opacity="0.7"/>
<rect x="34.54" y="108.855" width="367.625" height="26.4544" rx="4.5611" fill="#F6F6F6"/>
<rect x="338.309" y="113.418" width="51.0843" height="17.3322" rx="0.91222" fill="black" fill-opacity="0.69"/>
<path d="M136.787 118.382V125.68H135.686V118.382H136.787ZM138.305 125.68V120.206H139.335V121.076H139.392C139.491 120.781 139.667 120.55 139.919 120.381C140.173 120.21 140.461 120.124 140.781 120.124C140.848 120.124 140.926 120.127 141.017 120.132C141.109 120.136 141.182 120.142 141.234 120.149V121.168C141.191 121.157 141.115 121.144 141.006 121.129C140.897 121.113 140.787 121.104 140.678 121.104C140.426 121.104 140.202 121.158 140.005 121.265C139.81 121.369 139.655 121.515 139.541 121.703C139.427 121.888 139.37 122.1 139.37 122.337V125.68H138.305ZM147.005 120.206L145.02 125.68H143.88L141.891 120.206H143.035L144.421 124.418H144.478L145.861 120.206H147.005ZM148.006 125.68V120.206H149.072V125.68H148.006ZM148.544 119.362C148.359 119.362 148.2 119.3 148.067 119.177C147.936 119.051 147.871 118.901 147.871 118.728C147.871 118.552 147.936 118.402 148.067 118.279C148.2 118.153 148.359 118.09 148.544 118.09C148.729 118.09 148.887 118.153 149.018 118.279C149.151 118.402 149.218 118.552 149.218 118.728C149.218 118.901 149.151 119.051 149.018 119.177C148.887 119.3 148.729 119.362 148.544 119.362ZM151.57 122.43V125.68H150.505V120.206H151.528V121.097H151.595C151.721 120.807 151.918 120.575 152.187 120.399C152.458 120.223 152.799 120.135 153.21 120.135C153.582 120.135 153.909 120.213 154.189 120.37C154.47 120.525 154.687 120.755 154.842 121.062C154.996 121.368 155.073 121.747 155.073 122.198V125.68H154.008V122.327C154.008 121.93 153.904 121.62 153.698 121.397C153.491 121.171 153.207 121.058 152.846 121.058C152.599 121.058 152.379 121.111 152.187 121.218C151.997 121.325 151.846 121.482 151.734 121.689C151.625 121.893 151.57 122.14 151.57 122.43ZM158.861 125.79C158.322 125.79 157.857 125.675 157.468 125.445C157.081 125.212 156.781 124.885 156.57 124.465C156.361 124.042 156.256 123.546 156.256 122.979C156.256 122.418 156.361 121.924 156.57 121.496C156.781 121.069 157.076 120.735 157.453 120.495C157.834 120.255 158.278 120.135 158.786 120.135C159.095 120.135 159.394 120.186 159.684 120.288C159.974 120.39 160.234 120.551 160.465 120.769C160.695 120.988 160.877 121.272 161.01 121.621C161.143 121.968 161.209 122.39 161.209 122.886V123.264H156.858V122.466H160.165C160.165 122.185 160.108 121.937 159.994 121.721C159.88 121.502 159.72 121.33 159.513 121.204C159.309 121.078 159.069 121.015 158.793 121.015C158.494 121.015 158.233 121.089 158.009 121.236C157.788 121.381 157.617 121.571 157.496 121.806C157.377 122.039 157.318 122.292 157.318 122.565V123.189C157.318 123.555 157.382 123.866 157.51 124.122C157.641 124.379 157.823 124.575 158.056 124.71C158.288 124.843 158.56 124.91 158.872 124.91C159.074 124.91 159.258 124.881 159.424 124.824C159.59 124.765 159.734 124.677 159.855 124.561C159.976 124.444 160.069 124.301 160.133 124.13L161.142 124.311C161.061 124.608 160.916 124.868 160.707 125.092C160.5 125.313 160.24 125.485 159.926 125.608C159.615 125.73 159.26 125.79 158.861 125.79Z" fill="black"/>
<rect x="38.189" y="118.891" width="56.5577" height="5.47332" rx="2.73666" fill="#A1A7C4"/>
<path d="M227.524 126.539C226.961 126.537 226.48 126.388 226.081 126.094C225.682 125.799 225.377 125.37 225.165 124.807C224.954 124.244 224.848 123.566 224.848 122.773C224.848 121.982 224.954 121.306 225.165 120.745C225.379 120.184 225.686 119.757 226.085 119.462C226.486 119.168 226.966 119.02 227.524 119.02C228.083 119.02 228.561 119.169 228.96 119.466C229.36 119.76 229.665 120.188 229.876 120.749C230.09 121.307 230.197 121.982 230.197 122.773C230.197 123.568 230.091 124.248 229.88 124.811C229.668 125.372 229.363 125.8 228.964 126.097C228.565 126.392 228.085 126.539 227.524 126.539ZM227.524 125.588C228.019 125.588 228.405 125.347 228.682 124.864C228.963 124.382 229.103 123.685 229.103 122.773C229.103 122.167 229.039 121.655 228.911 121.237C228.785 120.816 228.603 120.498 228.365 120.282C228.13 120.063 227.85 119.954 227.524 119.954C227.033 119.954 226.647 120.196 226.366 120.681C226.086 121.166 225.945 121.863 225.942 122.773C225.942 123.381 226.005 123.895 226.131 124.316C226.259 124.734 226.441 125.051 226.676 125.267C226.911 125.481 227.194 125.588 227.524 125.588ZM231.461 126.418V125.62L233.93 123.061C234.194 122.783 234.411 122.54 234.583 122.331C234.756 122.119 234.885 121.919 234.971 121.729C235.056 121.539 235.099 121.337 235.099 121.123C235.099 120.881 235.042 120.671 234.928 120.496C234.814 120.317 234.659 120.181 234.461 120.086C234.264 119.988 234.042 119.94 233.795 119.94C233.534 119.94 233.306 119.993 233.111 120.1C232.916 120.207 232.766 120.358 232.662 120.553C232.557 120.747 232.505 120.976 232.505 121.237H231.454C231.454 120.793 231.556 120.404 231.76 120.072C231.965 119.739 232.245 119.481 232.601 119.298C232.958 119.113 233.363 119.02 233.816 119.02C234.275 119.02 234.679 119.112 235.028 119.295C235.38 119.475 235.654 119.722 235.851 120.036C236.048 120.347 236.147 120.699 236.147 121.091C236.147 121.362 236.096 121.626 235.994 121.885C235.894 122.144 235.719 122.433 235.47 122.751C235.22 123.067 234.874 123.451 234.429 123.902L232.979 125.42V125.474H236.264V126.418H231.461ZM240.854 122.306V123.232H237.619V122.306H240.854ZM241.966 126.418V125.62L244.435 123.061C244.699 122.783 244.916 122.54 245.087 122.331C245.261 122.119 245.39 121.919 245.476 121.729C245.561 121.539 245.604 121.337 245.604 121.123C245.604 120.881 245.547 120.671 245.433 120.496C245.319 120.317 245.163 120.181 244.966 120.086C244.769 119.988 244.547 119.94 244.3 119.94C244.038 119.94 243.81 119.993 243.616 120.1C243.421 120.207 243.271 120.358 243.167 120.553C243.062 120.747 243.01 120.976 243.01 121.237H241.959C241.959 120.793 242.061 120.404 242.265 120.072C242.469 119.739 242.75 119.481 243.106 119.298C243.462 119.113 243.867 119.02 244.321 119.02C244.78 119.02 245.184 119.112 245.533 119.295C245.884 119.475 246.159 119.722 246.356 120.036C246.553 120.347 246.652 120.699 246.652 121.091C246.652 121.362 246.601 121.626 246.498 121.885C246.399 122.144 246.224 122.433 245.975 122.751C245.725 123.067 245.378 123.451 244.934 123.902L243.484 125.42V125.474H246.769V126.418H241.966ZM247.81 124.993V124.102L250.963 119.12H251.665V120.432H251.22L248.964 124.002V124.059H253.287V124.993H247.81ZM251.27 126.418V124.722L251.277 124.316V119.12H252.321V126.418H251.27Z" fill="black"/>
<path d="M227.524 150.262C226.961 150.259 226.48 150.111 226.081 149.816C225.682 149.522 225.377 149.093 225.165 148.53C224.954 147.967 224.848 147.289 224.848 146.495C224.848 145.704 224.954 145.028 225.165 144.468C225.379 143.907 225.686 143.48 226.085 143.185C226.486 142.89 226.966 142.743 227.524 142.743C228.083 142.743 228.561 142.892 228.96 143.189C229.36 143.483 229.665 143.911 229.876 144.471C230.09 145.03 230.197 145.704 230.197 146.495C230.197 147.291 230.091 147.971 229.88 148.534C229.668 149.094 229.363 149.523 228.964 149.82C228.565 150.114 228.085 150.262 227.524 150.262ZM227.524 149.31C228.019 149.31 228.405 149.069 228.682 148.587C228.963 148.105 229.103 147.408 229.103 146.495C229.103 145.89 229.039 145.378 228.911 144.959C228.785 144.539 228.603 144.221 228.365 144.005C228.13 143.786 227.85 143.677 227.524 143.677C227.033 143.677 226.647 143.919 226.366 144.404C226.086 144.888 225.945 145.585 225.942 146.495C225.942 147.103 226.005 147.618 226.131 148.038C226.259 148.456 226.441 148.773 226.676 148.99C226.911 149.203 227.194 149.31 227.524 149.31ZM231.461 150.141V149.342L233.93 146.784C234.194 146.506 234.411 146.263 234.583 146.053C234.756 145.842 234.885 145.641 234.971 145.451C235.056 145.261 235.099 145.059 235.099 144.845C235.099 144.603 235.042 144.394 234.928 144.218C234.814 144.04 234.659 143.904 234.461 143.809C234.264 143.711 234.042 143.662 233.795 143.662C233.534 143.662 233.306 143.716 233.111 143.823C232.916 143.93 232.766 144.081 232.662 144.275C232.557 144.47 232.505 144.698 232.505 144.959H231.454C231.454 144.515 231.556 144.127 231.76 143.794C231.965 143.462 232.245 143.204 232.601 143.021C232.958 142.836 233.363 142.743 233.816 142.743C234.275 142.743 234.679 142.835 235.028 143.017C235.38 143.198 235.654 143.445 235.851 143.759C236.048 144.07 236.147 144.421 236.147 144.813C236.147 145.084 236.096 145.349 235.994 145.608C235.894 145.867 235.719 146.156 235.47 146.474C235.22 146.79 234.874 147.174 234.429 147.625L232.979 149.143V149.196H236.264V150.141H231.461ZM240.854 146.029V146.955H237.619V146.029H240.854ZM241.966 150.141V149.342L244.435 146.784C244.699 146.506 244.916 146.263 245.087 146.053C245.261 145.842 245.39 145.641 245.476 145.451C245.561 145.261 245.604 145.059 245.604 144.845C245.604 144.603 245.547 144.394 245.433 144.218C245.319 144.04 245.163 143.904 244.966 143.809C244.769 143.711 244.547 143.662 244.3 143.662C244.038 143.662 243.81 143.716 243.616 143.823C243.421 143.93 243.271 144.081 243.167 144.275C243.062 144.47 243.01 144.698 243.01 144.959H241.959C241.959 144.515 242.061 144.127 242.265 143.794C242.469 143.462 242.75 143.204 243.106 143.021C243.462 142.836 243.867 142.743 244.321 142.743C244.78 142.743 245.184 142.835 245.533 143.017C245.884 143.198 246.159 143.445 246.356 143.759C246.553 144.07 246.652 144.421 246.652 144.813C246.652 145.084 246.601 145.349 246.498 145.608C246.399 145.867 246.224 146.156 245.975 146.474C245.725 146.79 245.378 147.174 244.934 147.625L243.484 149.143V149.196H246.769V150.141H241.966ZM247.81 148.715V147.824L250.963 142.843H251.665V144.154H251.22L248.964 147.725V147.782H253.287V148.715H247.81ZM251.27 150.141V148.444L251.277 148.038V142.843H252.321V150.141H251.27Z" fill="black"/>
<path d="M345.611 119.336L346.903 123.119H346.956L348.248 119.336H349.006L347.334 123.98H346.525L344.854 119.336H345.611ZM349.622 123.98V120.497H350.3V123.98H349.622ZM349.964 119.96C349.846 119.96 349.745 119.921 349.66 119.842C349.577 119.762 349.536 119.667 349.536 119.556C349.536 119.445 349.577 119.349 349.66 119.271C349.745 119.191 349.846 119.15 349.964 119.15C350.082 119.15 350.183 119.191 350.266 119.271C350.35 119.349 350.393 119.445 350.393 119.556C350.393 119.667 350.35 119.762 350.266 119.842C350.183 119.921 350.082 119.96 349.964 119.96ZM352.713 124.051C352.37 124.051 352.074 123.977 351.826 123.831C351.58 123.683 351.39 123.475 351.255 123.207C351.122 122.938 351.055 122.623 351.055 122.262C351.055 121.905 351.122 121.59 351.255 121.318C351.39 121.046 351.577 120.834 351.817 120.681C352.059 120.528 352.342 120.452 352.665 120.452C352.862 120.452 353.052 120.485 353.237 120.55C353.421 120.615 353.587 120.717 353.733 120.856C353.88 120.995 353.996 121.175 354.08 121.398C354.165 121.618 354.207 121.887 354.207 122.203V122.443H351.439V121.935H353.543C353.543 121.757 353.507 121.599 353.434 121.461C353.362 121.322 353.26 121.212 353.128 121.132C352.998 121.052 352.845 121.012 352.67 121.012C352.479 121.012 352.313 121.059 352.171 121.153C352.03 121.245 351.922 121.366 351.845 121.516C351.769 121.664 351.731 121.825 351.731 121.999V122.395C351.731 122.628 351.772 122.826 351.854 122.99C351.937 123.153 352.052 123.278 352.201 123.364C352.349 123.448 352.522 123.491 352.72 123.491C352.848 123.491 352.965 123.473 353.071 123.436C353.177 123.398 353.269 123.343 353.346 123.268C353.423 123.194 353.482 123.103 353.523 122.994L354.164 123.11C354.113 123.299 354.021 123.464 353.888 123.606C353.756 123.747 353.591 123.857 353.391 123.935C353.193 124.012 352.967 124.051 352.713 124.051ZM355.709 123.98L354.684 120.497H355.384L356.067 123.055H356.101L356.786 120.497H357.486L358.167 123.044H358.201L358.879 120.497H359.579L358.557 123.98H357.865L357.158 121.466H357.105L356.398 123.98H355.709ZM363.47 123.98H361.967V119.336H363.518C363.973 119.336 364.364 119.429 364.69 119.615C365.017 119.8 365.267 120.065 365.441 120.411C365.616 120.756 365.704 121.169 365.704 121.652C365.704 122.135 365.616 122.551 365.439 122.899C365.263 123.247 365.009 123.514 364.677 123.702C364.344 123.887 363.942 123.98 363.47 123.98ZM362.668 123.368H363.432C363.786 123.368 364.08 123.302 364.314 123.169C364.548 123.034 364.724 122.84 364.84 122.586C364.957 122.33 365.015 122.019 365.015 121.652C365.015 121.287 364.957 120.978 364.84 120.724C364.725 120.47 364.554 120.277 364.325 120.146C364.097 120.014 363.814 119.949 363.475 119.949H362.668V123.368ZM368.022 124.051C367.679 124.051 367.383 123.977 367.135 123.831C366.889 123.683 366.699 123.475 366.564 123.207C366.431 122.938 366.365 122.623 366.365 122.262C366.365 121.905 366.431 121.59 366.564 121.318C366.699 121.046 366.886 120.834 367.126 120.681C367.368 120.528 367.651 120.452 367.975 120.452C368.171 120.452 368.362 120.485 368.546 120.55C368.73 120.615 368.896 120.717 369.043 120.856C369.189 120.995 369.305 121.175 369.389 121.398C369.474 121.618 369.516 121.887 369.516 122.203V122.443H366.748V121.935H368.852C368.852 121.757 368.816 121.599 368.743 121.461C368.671 121.322 368.569 121.212 368.437 121.132C368.307 121.052 368.154 121.012 367.979 121.012C367.789 121.012 367.622 121.059 367.48 121.153C367.34 121.245 367.231 121.366 367.154 121.516C367.078 121.664 367.04 121.825 367.04 121.999V122.395C367.04 122.628 367.081 122.826 367.163 122.99C367.246 123.153 367.361 123.278 367.51 123.364C367.658 123.448 367.831 123.491 368.029 123.491C368.157 123.491 368.275 123.473 368.38 123.436C368.486 123.398 368.578 123.343 368.655 123.268C368.732 123.194 368.791 123.103 368.832 122.994L369.473 123.11C369.422 123.299 369.33 123.464 369.197 123.606C369.065 123.747 368.9 123.857 368.7 123.935C368.502 124.012 368.276 124.051 368.022 124.051ZM371.895 120.497V121.042H369.992V120.497H371.895ZM370.502 119.663H371.18V122.958C371.18 123.089 371.2 123.188 371.239 123.255C371.279 123.32 371.329 123.364 371.391 123.389C371.455 123.411 371.523 123.423 371.598 123.423C371.652 123.423 371.7 123.419 371.74 123.411C371.781 123.404 371.813 123.398 371.836 123.393L371.958 123.953C371.919 123.968 371.863 123.983 371.79 123.999C371.718 124.015 371.627 124.024 371.518 124.026C371.34 124.029 371.174 123.997 371.019 123.931C370.865 123.864 370.74 123.761 370.645 123.622C370.55 123.483 370.502 123.309 370.502 123.098V119.663ZM373.658 124.058C373.438 124.058 373.238 124.017 373.06 123.935C372.881 123.852 372.74 123.732 372.636 123.575C372.533 123.417 372.481 123.225 372.481 122.996C372.481 122.8 372.519 122.638 372.595 122.511C372.67 122.384 372.772 122.284 372.901 122.209C373.029 122.135 373.173 122.079 373.332 122.042C373.49 122.004 373.652 121.975 373.817 121.956C374.026 121.931 374.195 121.912 374.325 121.897C374.455 121.88 374.549 121.853 374.608 121.817C374.667 121.781 374.697 121.722 374.697 121.64V121.624C374.697 121.426 374.641 121.273 374.529 121.164C374.419 121.055 374.254 121.001 374.035 121.001C373.806 121.001 373.626 121.051 373.495 121.153C373.365 121.253 373.275 121.364 373.225 121.486L372.588 121.341C372.664 121.129 372.774 120.959 372.919 120.829C373.066 120.697 373.234 120.602 373.425 120.543C373.615 120.482 373.815 120.452 374.026 120.452C374.165 120.452 374.312 120.469 374.468 120.502C374.625 120.534 374.772 120.593 374.908 120.679C375.045 120.765 375.158 120.888 375.246 121.048C375.333 121.207 375.377 121.414 375.377 121.668V123.98H374.715V123.504H374.688C374.644 123.592 374.578 123.678 374.49 123.763C374.403 123.847 374.29 123.918 374.153 123.974C374.015 124.03 373.85 124.058 373.658 124.058ZM373.806 123.513C373.993 123.513 374.153 123.476 374.286 123.402C374.421 123.328 374.523 123.231 374.592 123.112C374.664 122.991 374.699 122.862 374.699 122.724V122.275C374.675 122.299 374.628 122.322 374.558 122.343C374.49 122.363 374.413 122.38 374.325 122.395C374.237 122.409 374.152 122.422 374.069 122.434C373.986 122.445 373.916 122.454 373.86 122.461C373.729 122.478 373.608 122.506 373.499 122.545C373.392 122.584 373.306 122.641 373.241 122.715C373.177 122.788 373.146 122.884 373.146 123.005C373.146 123.173 373.208 123.3 373.332 123.386C373.456 123.471 373.614 123.513 373.806 123.513ZM376.28 123.98V120.497H376.958V123.98H376.28ZM376.623 119.96C376.505 119.96 376.403 119.921 376.319 119.842C376.236 119.762 376.194 119.667 376.194 119.556C376.194 119.445 376.236 119.349 376.319 119.271C376.403 119.191 376.505 119.15 376.623 119.15C376.74 119.15 376.841 119.191 376.924 119.271C377.009 119.349 377.051 119.445 377.051 119.556C377.051 119.667 377.009 119.762 376.924 119.842C376.841 119.921 376.74 119.96 376.623 119.96ZM378.548 119.336V123.98H377.87V119.336H378.548ZM382.07 121.348L381.456 121.457C381.43 121.378 381.389 121.303 381.333 121.232C381.279 121.161 381.205 121.103 381.111 121.058C381.018 121.012 380.9 120.99 380.76 120.99C380.568 120.99 380.408 121.033 380.279 121.119C380.151 121.203 380.086 121.313 380.086 121.448C380.086 121.564 380.129 121.658 380.216 121.729C380.302 121.8 380.441 121.858 380.633 121.903L381.186 122.03C381.507 122.104 381.745 122.219 381.903 122.373C382.06 122.527 382.138 122.727 382.138 122.974C382.138 123.182 382.078 123.368 381.957 123.531C381.838 123.693 381.671 123.82 381.456 123.912C381.243 124.005 380.996 124.051 380.714 124.051C380.324 124.051 380.006 123.968 379.76 123.801C379.513 123.634 379.362 123.395 379.306 123.087L379.962 122.987C380.002 123.158 380.086 123.287 380.213 123.375C380.34 123.461 380.506 123.504 380.71 123.504C380.932 123.504 381.11 123.458 381.243 123.366C381.376 123.272 381.442 123.158 381.442 123.024C381.442 122.915 381.401 122.823 381.32 122.749C381.24 122.675 381.117 122.619 380.95 122.581L380.361 122.452C380.036 122.378 379.795 122.26 379.64 122.098C379.485 121.937 379.408 121.732 379.408 121.484C379.408 121.278 379.466 121.098 379.581 120.944C379.696 120.79 379.854 120.67 380.057 120.584C380.259 120.496 380.491 120.452 380.753 120.452C381.129 120.452 381.426 120.534 381.642 120.697C381.858 120.859 382.001 121.076 382.07 121.348Z" fill="white"/>
<rect x="338.309" y="87.875" width="51.0843" height="17.3322" rx="0.91222" fill="#979797" fill-opacity="0.31"/>
<path d="M345.611 93.7974L346.903 97.5797H346.956L348.248 93.7974H349.006L347.334 98.4414H346.525L344.854 93.7974H345.611ZM349.622 98.4414V94.9584H350.3V98.4414H349.622ZM349.964 94.421C349.846 94.421 349.745 94.3817 349.66 94.303C349.577 94.2229 349.536 94.1277 349.536 94.0173C349.536 93.9055 349.577 93.8102 349.66 93.7316C349.745 93.6515 349.846 93.6114 349.964 93.6114C350.082 93.6114 350.183 93.6515 350.266 93.7316C350.35 93.8102 350.393 93.9055 350.393 94.0173C350.393 94.1277 350.35 94.2229 350.266 94.303C350.183 94.3817 350.082 94.421 349.964 94.421ZM352.713 98.5117C352.37 98.5117 352.074 98.4384 351.826 98.2917C351.58 98.1436 351.39 97.9357 351.255 97.6682C351.122 97.3991 351.055 97.0839 351.055 96.7226C351.055 96.3658 351.122 96.0514 351.255 95.7793C351.39 95.5071 351.577 95.2947 351.817 95.1421C352.059 94.9894 352.342 94.913 352.665 94.913C352.862 94.913 353.052 94.9455 353.237 95.0105C353.421 95.0755 353.587 95.1776 353.733 95.3167C353.88 95.4557 353.996 95.6364 354.08 95.8586C354.165 96.0793 354.207 96.3477 354.207 96.6636V96.904H351.439V96.396H353.543C353.543 96.2177 353.507 96.0597 353.434 95.9221C353.362 95.783 353.26 95.6734 353.128 95.5933C352.998 95.5132 352.845 95.4731 352.67 95.4731C352.479 95.4731 352.313 95.52 352.171 95.6137C352.03 95.7059 351.922 95.8269 351.845 95.9765C351.769 96.1247 351.731 96.2857 351.731 96.4595V96.8564C351.731 97.0892 351.772 97.2872 351.854 97.4505C351.937 97.6137 352.052 97.7385 352.201 97.8246C352.349 97.9093 352.522 97.9516 352.72 97.9516C352.848 97.9516 352.965 97.9335 353.071 97.8972C353.177 97.8594 353.269 97.8035 353.346 97.7294C353.423 97.6553 353.482 97.5638 353.523 97.455L354.164 97.5707C354.113 97.7596 354.021 97.9252 353.888 98.0673C353.756 98.2078 353.591 98.3174 353.391 98.3961C353.193 98.4732 352.967 98.5117 352.713 98.5117ZM355.709 98.4414L354.684 94.9584H355.384L356.067 97.5162H356.101L356.786 94.9584H357.486L358.167 97.5049H358.201L358.879 94.9584H359.579L358.557 98.4414H357.865L357.158 95.9266H357.105L356.398 98.4414H355.709ZM363.47 98.4414H361.967V93.7974H363.518C363.973 93.7974 364.364 93.8903 364.69 94.0763C365.017 94.2607 365.267 94.526 365.441 94.8722C365.616 95.2169 365.704 95.6303 365.704 96.1126C365.704 96.5963 365.616 97.0121 365.439 97.3598C365.263 97.7075 365.009 97.975 364.677 98.1625C364.344 98.3484 363.942 98.4414 363.47 98.4414ZM362.668 97.8292H363.432C363.786 97.8292 364.08 97.7626 364.314 97.6296C364.548 97.4951 364.724 97.3008 364.84 97.0468C364.957 96.7914 365.015 96.4799 365.015 96.1126C365.015 95.7483 364.957 95.4391 364.84 95.1851C364.725 94.9312 364.554 94.7384 364.325 94.6069C364.097 94.4754 363.814 94.4096 363.475 94.4096H362.668V97.8292ZM368.022 98.5117C367.679 98.5117 367.383 98.4384 367.135 98.2917C366.889 98.1436 366.699 97.9357 366.564 97.6682C366.431 97.3991 366.365 97.0839 366.365 96.7226C366.365 96.3658 366.431 96.0514 366.564 95.7793C366.699 95.5071 366.886 95.2947 367.126 95.1421C367.368 94.9894 367.651 94.913 367.975 94.913C368.171 94.913 368.362 94.9455 368.546 95.0105C368.73 95.0755 368.896 95.1776 369.043 95.3167C369.189 95.4557 369.305 95.6364 369.389 95.8586C369.474 96.0793 369.516 96.3477 369.516 96.6636V96.904H366.748V96.396H368.852C368.852 96.2177 368.816 96.0597 368.743 95.9221C368.671 95.783 368.569 95.6734 368.437 95.5933C368.307 95.5132 368.154 95.4731 367.979 95.4731C367.789 95.4731 367.622 95.52 367.48 95.6137C367.34 95.7059 367.231 95.8269 367.154 95.9765C367.078 96.1247 367.04 96.2857 367.04 96.4595V96.8564C367.04 97.0892 367.081 97.2872 367.163 97.4505C367.246 97.6137 367.361 97.7385 367.51 97.8246C367.658 97.9093 367.831 97.9516 368.029 97.9516C368.157 97.9516 368.275 97.9335 368.38 97.8972C368.486 97.8594 368.578 97.8035 368.655 97.7294C368.732 97.6553 368.791 97.5638 368.832 97.455L369.473 97.5707C369.422 97.7596 369.33 97.9252 369.197 98.0673C369.065 98.2078 368.9 98.3174 368.7 98.3961C368.502 98.4732 368.276 98.5117 368.022 98.5117ZM371.895 94.9584V95.5026H369.992V94.9584H371.895ZM370.502 94.1239H371.18V97.4187C371.18 97.5502 371.2 97.6493 371.239 97.7158C371.279 97.7808 371.329 97.8254 371.391 97.8496C371.455 97.8722 371.523 97.8836 371.598 97.8836C371.652 97.8836 371.7 97.8798 371.74 97.8722C371.781 97.8647 371.813 97.8586 371.836 97.8541L371.958 98.4142C371.919 98.4293 371.863 98.4444 371.79 98.4595C371.718 98.4762 371.627 98.4852 371.518 98.4868C371.34 98.4898 371.174 98.458 371.019 98.3915C370.865 98.325 370.74 98.2222 370.645 98.0831C370.55 97.944 370.502 97.7694 370.502 97.5593V94.1239ZM373.658 98.5185C373.438 98.5185 373.238 98.4777 373.06 98.3961C372.881 98.3129 372.74 98.1927 372.636 98.0355C372.533 97.8783 372.481 97.6855 372.481 97.4573C372.481 97.2607 372.519 97.099 372.595 96.972C372.67 96.845 372.772 96.7445 372.901 96.6704C373.029 96.5963 373.173 96.5404 373.332 96.5026C373.49 96.4648 373.652 96.4361 373.817 96.4164C374.026 96.3923 374.195 96.3726 374.325 96.3575C374.455 96.3409 374.549 96.3144 374.608 96.2781C374.667 96.2418 374.697 96.1829 374.697 96.1013V96.0854C374.697 95.8873 374.641 95.7339 374.529 95.6251C374.419 95.5162 374.254 95.4618 374.035 95.4618C373.806 95.4618 373.626 95.5124 373.495 95.6137C373.365 95.7135 373.275 95.8246 373.225 95.9471L372.588 95.8019C372.664 95.5903 372.774 95.4195 372.919 95.2895C373.066 95.1579 373.234 95.0627 373.425 95.0037C373.615 94.9433 373.815 94.913 374.026 94.913C374.165 94.913 374.312 94.9297 374.468 94.9629C374.625 94.9947 374.772 95.0536 374.908 95.1398C375.045 95.226 375.158 95.3492 375.246 95.5094C375.333 95.6681 375.377 95.8745 375.377 96.1285V98.4414H374.715V97.9652H374.688C374.644 98.0529 374.578 98.1391 374.49 98.2237C374.403 98.3084 374.29 98.3787 374.153 98.4346C374.015 98.4905 373.85 98.5185 373.658 98.5185ZM373.806 97.9743C373.993 97.9743 374.153 97.9372 374.286 97.8632C374.421 97.7891 374.523 97.6923 374.592 97.5729C374.664 97.452 374.699 97.3227 374.699 97.1852V96.7362C374.675 96.7604 374.628 96.783 374.558 96.8042C374.49 96.8239 374.413 96.8412 374.325 96.8564C374.237 96.87 374.152 96.8828 374.069 96.8949C373.986 96.9055 373.916 96.9146 373.86 96.9221C373.729 96.9387 373.608 96.9667 373.499 97.006C373.392 97.0453 373.306 97.102 373.241 97.1761C373.177 97.2487 373.146 97.3454 373.146 97.4663C373.146 97.6341 373.208 97.7611 373.332 97.8473C373.456 97.932 373.614 97.9743 373.806 97.9743ZM376.28 98.4414V94.9584H376.958V98.4414H376.28ZM376.623 94.421C376.505 94.421 376.403 94.3817 376.319 94.303C376.236 94.2229 376.194 94.1277 376.194 94.0173C376.194 93.9055 376.236 93.8102 376.319 93.7316C376.403 93.6515 376.505 93.6114 376.623 93.6114C376.74 93.6114 376.841 93.6515 376.924 93.7316C377.009 93.8102 377.051 93.9055 377.051 94.0173C377.051 94.1277 377.009 94.2229 376.924 94.303C376.841 94.3817 376.74 94.421 376.623 94.421ZM378.548 93.7974V98.4414H377.87V93.7974H378.548ZM382.07 95.8087L381.456 95.9176C381.43 95.839 381.389 95.7641 381.333 95.6931C381.279 95.622 381.205 95.5638 381.111 95.5185C381.018 95.4731 380.9 95.4505 380.76 95.4505C380.568 95.4505 380.408 95.4935 380.279 95.5797C380.151 95.6644 380.086 95.774 380.086 95.9085C380.086 96.0249 380.129 96.1186 380.216 96.1897C380.302 96.2607 380.441 96.3189 380.633 96.3643L381.186 96.4913C381.507 96.5654 381.745 96.6795 381.903 96.8337C382.06 96.9879 382.138 97.1882 382.138 97.4346C382.138 97.6432 382.078 97.8292 381.957 97.9924C381.838 98.1542 381.671 98.2812 381.456 98.3734C381.243 98.4656 380.996 98.5117 380.714 98.5117C380.324 98.5117 380.006 98.4286 379.76 98.2623C379.513 98.0945 379.362 97.8564 379.306 97.548L379.962 97.4482C380.002 97.619 380.086 97.7483 380.213 97.836C380.34 97.9221 380.506 97.9652 380.71 97.9652C380.932 97.9652 381.11 97.9191 381.243 97.8269C381.376 97.7332 381.442 97.619 381.442 97.4845C381.442 97.3756 381.401 97.2842 381.32 97.2101C381.24 97.136 381.117 97.0801 380.95 97.0423L380.361 96.913C380.036 96.839 379.795 96.7211 379.64 96.5593C379.485 96.3975 379.408 96.1927 379.408 95.9448C379.408 95.7392 379.466 95.5593 379.581 95.4051C379.696 95.2509 379.854 95.1307 380.057 95.0446C380.259 94.9569 380.491 94.913 380.753 94.913C381.129 94.913 381.426 94.9947 381.642 95.1579C381.858 95.3197 382.001 95.5366 382.07 95.8087Z" fill="black"/>
<rect x="338.309" y="137.141" width="51.0843" height="17.3322" rx="0.91222" fill="#979797" fill-opacity="0.31"/>
<path d="M345.611 143.051L346.903 146.834H346.956L348.248 143.051H349.006L347.334 147.695H346.525L344.854 143.051H345.611ZM349.622 147.695V144.212H350.3V147.695H349.622ZM349.964 143.675C349.846 143.675 349.745 143.636 349.66 143.557C349.577 143.477 349.536 143.382 349.536 143.271C349.536 143.159 349.577 143.064 349.66 142.986C349.745 142.905 349.846 142.865 349.964 142.865C350.082 142.865 350.183 142.905 350.266 142.986C350.35 143.064 350.393 143.159 350.393 143.271C350.393 143.382 350.35 143.477 350.266 143.557C350.183 143.636 350.082 143.675 349.964 143.675ZM352.713 147.766C352.37 147.766 352.074 147.692 351.826 147.546C351.58 147.398 351.39 147.19 351.255 146.922C351.122 146.653 351.055 146.338 351.055 145.976C351.055 145.62 351.122 145.305 351.255 145.033C351.39 144.761 351.577 144.549 351.817 144.396C352.059 144.243 352.342 144.167 352.665 144.167C352.862 144.167 353.052 144.199 353.237 144.264C353.421 144.329 353.587 144.431 353.733 144.571C353.88 144.71 353.996 144.89 354.08 145.113C354.165 145.333 354.207 145.602 354.207 145.918V146.158H351.439V145.65H353.543C353.543 145.472 353.507 145.314 353.434 145.176C353.362 145.037 353.26 144.927 353.128 144.847C352.998 144.767 352.845 144.727 352.67 144.727C352.479 144.727 352.313 144.774 352.171 144.868C352.03 144.96 351.922 145.081 351.845 145.23C351.769 145.379 351.731 145.54 351.731 145.713V146.11C351.731 146.343 351.772 146.541 351.854 146.704C351.937 146.868 352.052 146.992 352.201 147.079C352.349 147.163 352.522 147.206 352.72 147.206C352.848 147.206 352.965 147.187 353.071 147.151C353.177 147.113 353.269 147.057 353.346 146.983C353.423 146.909 353.482 146.818 353.523 146.709L354.164 146.825C354.113 147.014 354.021 147.179 353.888 147.321C353.756 147.462 353.591 147.571 353.391 147.65C353.193 147.727 352.967 147.766 352.713 147.766ZM355.709 147.695L354.684 144.212H355.384L356.067 146.77H356.101L356.786 144.212H357.486L358.167 146.759H358.201L358.879 144.212H359.579L358.557 147.695H357.865L357.158 145.181H357.105L356.398 147.695H355.709ZM363.47 147.695H361.967V143.051H363.518C363.973 143.051 364.364 143.144 364.69 143.33C365.017 143.515 365.267 143.78 365.441 144.126C365.616 144.471 365.704 144.884 365.704 145.366C365.704 145.85 365.616 146.266 365.439 146.614C365.263 146.961 365.009 147.229 364.677 147.416C364.344 147.602 363.942 147.695 363.47 147.695ZM362.668 147.083H363.432C363.786 147.083 364.08 147.017 364.314 146.884C364.548 146.749 364.724 146.555 364.84 146.301C364.957 146.045 365.015 145.734 365.015 145.366C365.015 145.002 364.957 144.693 364.84 144.439C364.725 144.185 364.554 143.992 364.325 143.861C364.097 143.729 363.814 143.664 363.475 143.664H362.668V147.083ZM368.022 147.766C367.679 147.766 367.383 147.692 367.135 147.546C366.889 147.398 366.699 147.19 366.564 146.922C366.431 146.653 366.365 146.338 366.365 145.976C366.365 145.62 366.431 145.305 366.564 145.033C366.699 144.761 366.886 144.549 367.126 144.396C367.368 144.243 367.651 144.167 367.975 144.167C368.171 144.167 368.362 144.199 368.546 144.264C368.73 144.329 368.896 144.431 369.043 144.571C369.189 144.71 369.305 144.89 369.389 145.113C369.474 145.333 369.516 145.602 369.516 145.918V146.158H366.748V145.65H368.852C368.852 145.472 368.816 145.314 368.743 145.176C368.671 145.037 368.569 144.927 368.437 144.847C368.307 144.767 368.154 144.727 367.979 144.727C367.789 144.727 367.622 144.774 367.48 144.868C367.34 144.96 367.231 145.081 367.154 145.23C367.078 145.379 367.04 145.54 367.04 145.713V146.11C367.04 146.343 367.081 146.541 367.163 146.704C367.246 146.868 367.361 146.992 367.51 147.079C367.658 147.163 367.831 147.206 368.029 147.206C368.157 147.206 368.275 147.187 368.38 147.151C368.486 147.113 368.578 147.057 368.655 146.983C368.732 146.909 368.791 146.818 368.832 146.709L369.473 146.825C369.422 147.014 369.33 147.179 369.197 147.321C369.065 147.462 368.9 147.571 368.7 147.65C368.502 147.727 368.276 147.766 368.022 147.766ZM371.895 144.212V144.757H369.992V144.212H371.895ZM370.502 143.378H371.18V146.673C371.18 146.804 371.2 146.903 371.239 146.97C371.279 147.035 371.329 147.079 371.391 147.103C371.455 147.126 371.523 147.137 371.598 147.137C371.652 147.137 371.7 147.134 371.74 147.126C371.781 147.119 371.813 147.113 371.836 147.108L371.958 147.668C371.919 147.683 371.863 147.698 371.79 147.713C371.718 147.73 371.627 147.739 371.518 147.741C371.34 147.744 371.174 147.712 371.019 147.645C370.865 147.579 370.74 147.476 370.645 147.337C370.55 147.198 370.502 147.023 370.502 146.813V143.378ZM373.658 147.772C373.438 147.772 373.238 147.732 373.06 147.65C372.881 147.567 372.74 147.447 372.636 147.289C372.533 147.132 372.481 146.939 372.481 146.711C372.481 146.515 372.519 146.353 372.595 146.226C372.67 146.099 372.772 145.998 372.901 145.924C373.029 145.85 373.173 145.794 373.332 145.757C373.49 145.719 373.652 145.69 373.817 145.67C374.026 145.646 374.195 145.627 374.325 145.611C374.455 145.595 374.549 145.568 374.608 145.532C374.667 145.496 374.697 145.437 374.697 145.355V145.339C374.697 145.141 374.641 144.988 374.529 144.879C374.419 144.77 374.254 144.716 374.035 144.716C373.806 144.716 373.626 144.766 373.495 144.868C373.365 144.967 373.275 145.079 373.225 145.201L372.588 145.056C372.664 144.844 372.774 144.673 372.919 144.543C373.066 144.412 373.234 144.317 373.425 144.258C373.615 144.197 373.815 144.167 374.026 144.167C374.165 144.167 374.312 144.184 374.468 144.217C374.625 144.249 374.772 144.308 374.908 144.394C375.045 144.48 375.158 144.603 375.246 144.763C375.333 144.922 375.377 145.128 375.377 145.382V147.695H374.715V147.219H374.688C374.644 147.307 374.578 147.393 374.49 147.478C374.403 147.562 374.29 147.633 374.153 147.689C374.015 147.744 373.85 147.772 373.658 147.772ZM373.806 147.228C373.993 147.228 374.153 147.191 374.286 147.117C374.421 147.043 374.523 146.946 374.592 146.827C374.664 146.706 374.699 146.577 374.699 146.439V145.99C374.675 146.014 374.628 146.037 374.558 146.058C374.49 146.078 374.413 146.095 374.325 146.11C374.237 146.124 374.152 146.137 374.069 146.149C373.986 146.159 373.916 146.168 373.86 146.176C373.729 146.193 373.608 146.221 373.499 146.26C373.392 146.299 373.306 146.356 373.241 146.43C373.177 146.503 373.146 146.599 373.146 146.72C373.146 146.888 373.208 147.015 373.332 147.101C373.456 147.186 373.614 147.228 373.806 147.228ZM376.28 147.695V144.212H376.958V147.695H376.28ZM376.623 143.675C376.505 143.675 376.403 143.636 376.319 143.557C376.236 143.477 376.194 143.382 376.194 143.271C376.194 143.159 376.236 143.064 376.319 142.986C376.403 142.905 376.505 142.865 376.623 142.865C376.74 142.865 376.841 142.905 376.924 142.986C377.009 143.064 377.051 143.159 377.051 143.271C377.051 143.382 377.009 143.477 376.924 143.557C376.841 143.636 376.74 143.675 376.623 143.675ZM378.548 143.051V147.695H377.87V143.051H378.548ZM382.07 145.063L381.456 145.171C381.43 145.093 381.389 145.018 381.333 144.947C381.279 144.876 381.205 144.818 381.111 144.772C381.018 144.727 380.9 144.704 380.76 144.704C380.568 144.704 380.408 144.747 380.279 144.834C380.151 144.918 380.086 145.028 380.086 145.162C380.086 145.279 380.129 145.373 380.216 145.444C380.302 145.515 380.441 145.573 380.633 145.618L381.186 145.745C381.507 145.819 381.745 145.933 381.903 146.088C382.06 146.242 382.138 146.442 382.138 146.689C382.138 146.897 382.078 147.083 381.957 147.246C381.838 147.408 381.671 147.535 381.456 147.627C381.243 147.72 380.996 147.766 380.714 147.766C380.324 147.766 380.006 147.682 379.76 147.516C379.513 147.348 379.362 147.11 379.306 146.802L379.962 146.702C380.002 146.873 380.086 147.002 380.213 147.09C380.34 147.176 380.506 147.219 380.71 147.219C380.932 147.219 381.11 147.173 381.243 147.081C381.376 146.987 381.442 146.873 381.442 146.738C381.442 146.63 381.401 146.538 381.32 146.464C381.24 146.39 381.117 146.334 380.95 146.296L380.361 146.167C380.036 146.093 379.795 145.975 379.64 145.813C379.485 145.651 379.408 145.447 379.408 145.199C379.408 144.993 379.466 144.813 379.581 144.659C379.696 144.505 379.854 144.385 380.057 144.298C380.259 144.211 380.491 144.167 380.753 144.167C381.129 144.167 381.426 144.249 381.642 144.412C381.858 144.574 382.001 144.791 382.07 145.063Z" fill="black"/>
<defs>
<filter id="filter0_d_1217_5682" x="0.350631" y="0.263339" width="436.042" height="189.743" filterUnits="userSpaceOnUse" color-interpolation-filters="sRGB">
<feFlood flood-opacity="0" result="BackgroundImageFix"/>
<feColorMatrix in="SourceAlpha" type="matrix" values="0 0 0 0 0 0 0 0 0 0 0 0 0 0 0 0 0 0 127 0" result="hardAlpha"/>
<feOffset dy="0.91222"/>
<feGaussianBlur stdDeviation="1.82444"/>
<feColorMatrix type="matrix" values="0 0 0 0 0.0823529 0 0 0 0 0.133333 0 0 0 0 0.196078 0 0 0 0.08 0"/>
<feBlend mode="normal" in2="BackgroundImageFix" result="effect1_dropShadow_1217_5682"/>
<feBlend mode="normal" in="SourceGraphic" in2="effect1_dropShadow_1217_5682" result="shape"/>
</filter>
</defs>
</svg>
