<svg width="40" height="28" viewBox="0 0 40 28" fill="none" xmlns="http://www.w3.org/2000/svg">
<path d="M14.7939 27.1018H18.4663V19.9486L14.7939 18.375V27.1018Z" fill="black"/>
<path d="M0 27.1011H9.79337V6.11719L0 15.9091V27.1011Z" fill="black"/>
<path d="M17.3701 9.26833L24.1314 12.7656V27.1049H32.3661V5.72913L26.6369 0L17.3701 9.26833Z" fill="black"/>
<path d="M35.5137 8.875V27.1035H39.9279V13.2893L35.5137 8.875Z" fill="black"/>
<path d="M14.7939 27.1018H18.4663V19.9486L14.7939 18.375V27.1018Z" fill="black"/>
<path d="M0 27.1011H9.79337V6.11719L0 15.9091V27.1011Z" fill="black"/>
<path d="M17.3701 9.26833L24.1314 12.7656V27.1049H32.3661V5.72913L26.6369 0L17.3701 9.26833Z" fill="black"/>
<path d="M35.5137 8.875V27.1035H39.9279V13.2893L35.5137 8.875Z" fill="black"/>
</svg>
