<svg xmlns="http://www.w3.org/2000/svg" viewBox="58.435 163.023 458.1300048828125 244.45799931335452"> <svg xmlns="http://www.w3.org/2000/svg" xmlns:xlink="http://www.w3.org/1999/xlink" version="1.1" id="9999_1" x="257" y="233.023" viewBox="1165.4000244140625 594 2669.2001953125 1812" xml:space="preserve" height="41.41013459236391" width="61" preserveAspectRatio="xMinYMin" enable-background="new 0 0 5000 3000" style="overflow: visible;"><polygon points="2154.4,2406 2399.9,2406 2399.9,1927.8 2154.4,1822.6  " style=""></polygon><polygon points="1165.4,2406 1820.1,2406 1820.1,1003.2 1165.4,1657.8  " style=""></polygon><polygon points="2326.6,1213.6 2778.6,1447.4 2778.6,2406 3329.1,2406 3329.1,977 2946.1,594  " style=""></polygon><polygon points="3539.5,1187.4 3539.5,2406 3834.6,2406 3834.6,1482.5  " style=""></polygon></svg> <svg y="331.011" viewBox="0.7199999690055847 2.430000066757202 49.209999084472656 6.469999313354492" x="262.895" height="6.469999313354492" width="49.209999084472656" style="overflow: visible;"><g fill="#000" style=""><path d="M4.27 8.82L0.72 8.82L0.72 2.51L4.27 2.51L4.27 3.05L1.29 3.05L1.29 5.40L3.70 5.40L3.70 5.94L1.29 5.94L1.29 8.27L4.27 8.27L4.27 8.82ZM10.80 7.17L10.80 7.36Q10.80 7.68 10.67 7.96Q10.54 8.24 10.33 8.45Q10.11 8.66 9.82 8.78Q9.53 8.90 9.21 8.90L9.21 8.90L8.76 8.90Q8.44 8.90 8.15 8.78Q7.86 8.66 7.64 8.45Q7.43 8.24 7.30 7.96Q7.17 7.68 7.17 7.36L7.17 7.36L7.17 7.11L7.73 7.01L7.73 7.36Q7.73 7.57 7.82 7.75Q7.91 7.93 8.05 8.07Q8.20 8.21 8.39 8.29Q8.58 8.37 8.79 8.37L8.79 8.37L9.19 8.37Q9.40 8.37 9.58 8.29Q9.77 8.21 9.92 8.07Q10.06 7.93 10.15 7.75Q10.24 7.57 10.24 7.36L10.24 7.36L10.24 7.17Q10.24 6.84 10.11 6.63Q9.98 6.41 9.77 6.26Q9.56 6.11 9.29 6.00Q9.03 5.90 8.75 5.79Q8.46 5.69 8.20 5.56Q7.93 5.43 7.72 5.24Q7.51 5.05 7.38 4.77Q7.26 4.50 7.26 4.09L7.26 4.09L7.26 3.97Q7.26 3.65 7.38 3.37Q7.50 3.09 7.71 2.88Q7.92 2.67 8.20 2.55Q8.49 2.43 8.81 2.43L8.81 2.43L9.21 2.43Q9.53 2.43 9.81 2.55Q10.09 2.67 10.31 2.88Q10.52 3.09 10.64 3.37Q10.76 3.65 10.76 3.97L10.76 3.97L10.76 4.14L10.19 4.23L10.19 3.97Q10.19 3.76 10.11 3.58Q10.03 3.40 9.90 3.26Q9.76 3.12 9.58 3.05Q9.40 2.97 9.19 2.97L9.19 2.97L8.83 2.97Q8.62 2.97 8.44 3.05Q8.26 3.12 8.12 3.26Q7.98 3.40 7.90 3.58Q7.82 3.76 7.82 3.97L7.82 3.97L7.82 4.09Q7.82 4.39 7.95 4.60Q8.08 4.81 8.29 4.95Q8.50 5.10 8.77 5.21Q9.03 5.32 9.31 5.43Q9.59 5.54 9.86 5.68Q10.13 5.81 10.34 6.01Q10.55 6.20 10.67 6.48Q10.80 6.76 10.80 7.17L10.80 7.17ZM17.05 3.05L15.55 3.05L15.55 8.82L14.98 8.82L14.98 3.05L13.48 3.05L13.48 2.51L17.05 2.51L17.05 3.05ZM19.80 8.82L19.12 8.82L19.12 8.14L19.80 8.14L19.80 8.82ZM28.78 2.97L28.57 2.97Q28.36 2.97 28.17 3.05Q27.99 3.12 27.85 3.26Q27.72 3.40 27.64 3.58Q27.56 3.76 27.56 3.97L27.56 3.97L27.56 4.23L26.99 4.14L26.99 3.97Q26.99 3.65 27.11 3.37Q27.24 3.09 27.45 2.88Q27.66 2.67 27.94 2.55Q28.22 2.43 28.54 2.43L28.54 2.43L28.81 2.43Q29.13 2.43 29.41 2.54Q29.70 2.65 29.91 2.87Q30.12 3.08 30.24 3.39Q30.36 3.69 30.36 4.06L30.36 4.06Q30.36 4.44 30.25 4.82Q30.14 5.19 29.95 5.56Q29.77 5.92 29.54 6.27Q29.30 6.61 29.05 6.91L29.05 6.91Q28.48 7.62 27.75 8.27L27.75 8.27L30.40 8.27L30.40 8.82L26.86 8.82L26.86 8.37Q27.68 7.69 28.33 6.97L28.33 6.97Q28.60 6.65 28.87 6.30Q29.13 5.95 29.34 5.58Q29.54 5.21 29.67 4.82Q29.79 4.44 29.79 4.06L29.79 4.06Q29.79 3.79 29.71 3.58Q29.63 3.38 29.49 3.24Q29.34 3.10 29.16 3.03Q28.98 2.97 28.78 2.97L28.78 2.97ZM36.94 7.36L36.94 7.36Q36.94 7.68 36.82 7.96Q36.70 8.24 36.49 8.45Q36.28 8.66 35.99 8.78Q35.71 8.90 35.39 8.90L35.39 8.90L35.12 8.90Q34.80 8.90 34.52 8.78Q34.24 8.66 34.03 8.45Q33.81 8.24 33.69 7.96Q33.57 7.68 33.57 7.36L33.57 7.36L33.57 3.97Q33.57 3.65 33.69 3.37Q33.81 3.09 34.03 2.88Q34.24 2.67 34.52 2.55Q34.80 2.43 35.12 2.43L35.12 2.43L35.39 2.43Q35.71 2.43 35.99 2.55Q36.28 2.67 36.49 2.88Q36.70 3.09 36.82 3.37Q36.94 3.65 36.94 3.97L36.94 3.97L36.94 7.36ZM36.37 7.36L36.37 3.97Q36.37 3.76 36.29 3.58Q36.21 3.40 36.08 3.26Q35.94 3.12 35.76 3.05Q35.58 2.97 35.37 2.97L35.37 2.97L35.15 2.97Q34.94 2.97 34.76 3.05Q34.57 3.12 34.44 3.26Q34.30 3.40 34.22 3.58Q34.14 3.76 34.14 3.97L34.14 3.97L34.14 7.36Q34.14 7.57 34.22 7.75Q34.30 7.93 34.44 8.07Q34.57 8.21 34.76 8.29Q34.94 8.37 35.15 8.37L35.15 8.37L35.37 8.37Q35.58 8.37 35.76 8.29Q35.94 8.21 36.08 8.07Q36.21 7.93 36.29 7.75Q36.37 7.57 36.37 7.36L36.37 7.36ZM41.86 2.97L41.64 2.97Q41.43 2.97 41.25 3.05Q41.07 3.12 40.93 3.26Q40.79 3.40 40.71 3.58Q40.64 3.76 40.64 3.97L40.64 3.97L40.64 4.23L40.07 4.14L40.07 3.97Q40.07 3.65 40.19 3.37Q40.31 3.09 40.52 2.88Q40.73 2.67 41.01 2.55Q41.29 2.43 41.62 2.43L41.62 2.43L41.88 2.43Q42.20 2.43 42.49 2.54Q42.77 2.65 42.98 2.87Q43.19 3.08 43.31 3.39Q43.43 3.69 43.43 4.06L43.43 4.06Q43.43 4.44 43.32 4.82Q43.21 5.19 43.03 5.56Q42.85 5.92 42.61 6.27Q42.38 6.61 42.13 6.91L42.13 6.91Q41.55 7.62 40.82 8.27L40.82 8.27L43.48 8.27L43.48 8.82L39.93 8.82L39.93 8.37Q40.75 7.69 41.40 6.97L41.40 6.97Q41.68 6.65 41.94 6.30Q42.20 5.95 42.41 5.58Q42.62 5.21 42.74 4.82Q42.87 4.44 42.87 4.06L42.87 4.06Q42.87 3.79 42.78 3.58Q42.70 3.38 42.56 3.24Q42.42 3.10 42.24 3.03Q42.05 2.97 41.86 2.97L41.86 2.97ZM49.93 7.73L49.39 7.73L49.39 8.82L48.82 8.82L48.82 7.73L46.29 7.73L46.29 7.46L49.09 2.51L49.39 2.51L49.39 7.19L49.93 7.19L49.93 7.73ZM48.82 7.19L48.82 4.06L47.08 7.19L48.82 7.19Z" transform="translate(0, 0)"></path></g></svg> <svg y="287.5" viewBox="2.819999933242798 7 318.1300048828125 30.90999984741211" x="128.435" height="30.90999984741211" width="318.1300048828125" style="overflow: visible;"><g fill="#000" style=""><path d="M5.64 31L2.82 31L2.82 7.73L10.68 7.73Q13.41 7.73 15.16 8.65Q16.91 9.58 17.75 11.19Q18.59 12.81 18.59 14.86L18.59 14.86Q18.59 16.92 17.75 18.51Q16.91 20.10 15.17 21.01Q13.43 21.91 10.73 21.91L10.73 21.91L4.36 21.91L4.36 19.36L10.64 19.36Q12.50 19.36 13.64 18.82Q14.78 18.27 15.30 17.27Q15.82 16.26 15.82 14.86L15.82 14.86Q15.82 13.47 15.30 12.42Q14.77 11.38 13.63 10.80Q12.48 10.23 10.59 10.23L10.59 10.23L5.64 10.23L5.64 31ZM10.59 20.55L13.77 20.55L19.50 31L16.23 31L10.59 20.55ZM32.23 31.36L32.23 31.36Q29.70 31.36 27.88 30.24Q26.06 29.13 25.07 27.11Q24.09 25.09 24.09 22.41L24.09 22.41Q24.09 19.73 25.07 17.68Q26.06 15.63 27.82 14.47Q29.59 13.32 31.95 13.32L31.95 13.32Q33.32 13.32 34.65 13.77Q35.98 14.23 37.07 15.24Q38.16 16.26 38.81 17.93Q39.45 19.60 39.45 22.05L39.45 22.05L39.45 23.18L26.00 23.18L26.00 20.86L36.73 20.86Q36.73 19.39 36.14 18.23Q35.56 17.07 34.48 16.40Q33.41 15.73 31.95 15.73L31.95 15.73Q30.35 15.73 29.19 16.52Q28.02 17.31 27.40 18.57Q26.77 19.83 26.77 21.27L26.77 21.27L26.77 22.82Q26.77 24.80 27.46 26.16Q28.15 27.53 29.38 28.24Q30.60 28.95 32.23 28.95L32.23 28.95Q33.28 28.95 34.14 28.65Q35 28.35 35.63 27.74Q36.25 27.14 36.59 26.23L36.59 26.23L39.18 26.95Q38.77 28.27 37.81 29.27Q36.84 30.26 35.42 30.81Q34 31.36 32.23 31.36ZM52.59 37.91L52.59 37.91Q50.65 37.91 49.25 37.41Q47.85 36.92 46.93 36.12Q46 35.32 45.45 34.41L45.45 34.41L47.59 32.91Q47.95 33.39 48.51 34.01Q49.07 34.63 50.04 35.09Q51.01 35.55 52.59 35.55L52.59 35.55Q54.70 35.55 56.08 34.52Q57.45 33.50 57.45 31.32L57.45 31.32L57.45 27.77L57.23 27.77Q56.93 28.25 56.39 28.95Q55.85 29.65 54.85 30.19Q53.84 30.73 52.14 30.73L52.14 30.73Q50.02 30.73 48.35 29.73Q46.67 28.73 45.70 26.82Q44.73 24.91 44.73 22.18L44.73 22.18Q44.73 19.50 45.67 17.51Q46.61 15.51 48.30 14.41Q49.98 13.32 52.18 13.32L52.18 13.32Q53.89 13.32 54.89 13.88Q55.90 14.44 56.44 15.15Q56.98 15.86 57.27 16.32L57.27 16.32L57.55 16.32L57.55 13.55L60.14 13.55L60.14 31.50Q60.14 33.75 59.12 35.16Q58.10 36.58 56.39 37.24Q54.68 37.91 52.59 37.91ZM52.50 28.32L52.50 28.32Q54.11 28.32 55.23 27.58Q56.34 26.84 56.92 25.45Q57.50 24.07 57.50 22.14L57.50 22.14Q57.50 20.25 56.93 18.81Q56.36 17.36 55.25 16.55Q54.14 15.73 52.50 15.73L52.50 15.73Q50.80 15.73 49.66 16.59Q48.53 17.45 47.97 18.91Q47.41 20.36 47.41 22.14L47.41 22.14Q47.41 23.95 47.98 25.35Q48.56 26.74 49.69 27.53Q50.82 28.32 52.50 28.32ZM69.73 31L67.05 31L67.05 13.55L69.73 13.55L69.73 31ZM68.41 10.64L68.41 10.64Q67.63 10.64 67.06 10.10Q66.50 9.57 66.50 8.82L66.50 8.82Q66.50 8.07 67.06 7.53Q67.63 7 68.41 7L68.41 7Q69.19 7 69.76 7.53Q70.32 8.07 70.32 8.82L70.32 8.82Q70.32 9.57 69.76 10.10Q69.19 10.64 68.41 10.64ZM83.73 31.36L83.73 31.36Q81.36 31.36 79.59 30.24Q77.81 29.11 76.81 27.09Q75.82 25.07 75.82 22.36L75.82 22.36Q75.82 19.64 76.81 17.60Q77.81 15.57 79.59 14.44Q81.36 13.32 83.73 13.32L83.73 13.32Q86.09 13.32 87.87 14.44Q89.65 15.57 90.64 17.60Q91.64 19.64 91.64 22.36L91.64 22.36Q91.64 25.07 90.64 27.09Q89.65 29.11 87.87 30.24Q86.09 31.36 83.73 31.36ZM83.73 28.95L83.73 28.95Q85.52 28.95 86.68 28.03Q87.84 27.11 88.40 25.61Q88.95 24.11 88.95 22.36L88.95 22.36Q88.95 20.61 88.40 19.10Q87.84 17.59 86.68 16.66Q85.52 15.73 83.73 15.73L83.73 15.73Q81.93 15.73 80.77 16.66Q79.61 17.59 79.06 19.10Q78.50 20.61 78.50 22.36L78.50 22.36Q78.50 24.11 79.06 25.61Q79.61 27.11 80.77 28.03Q81.93 28.95 83.73 28.95ZM100.41 20.50L100.41 20.50L100.41 31L97.73 31L97.73 13.55L100.32 13.55L100.32 16.27L100.55 16.27Q101.16 14.94 102.41 14.13Q103.66 13.32 105.64 13.32L105.64 13.32Q107.41 13.32 108.74 14.04Q110.07 14.76 110.81 16.22Q111.55 17.68 111.55 19.91L111.55 19.91L111.55 31L108.86 31L108.86 20.09Q108.86 18.03 107.80 16.88Q106.73 15.73 104.86 15.73L104.86 15.73Q103.58 15.73 102.57 16.28Q101.57 16.84 100.99 17.91Q100.41 18.98 100.41 20.50ZM129.82 7.73L132.64 7.73L132.64 31L129.82 31L129.82 7.73ZM142.59 20.50L142.59 20.50L142.59 31L139.91 31L139.91 13.55L142.50 13.55L142.50 16.27L142.73 16.27Q143.34 14.94 144.59 14.13Q145.84 13.32 147.82 13.32L147.82 13.32Q149.59 13.32 150.92 14.04Q152.25 14.76 152.99 16.22Q153.73 17.68 153.73 19.91L153.73 19.91L153.73 31L151.05 31L151.05 20.09Q151.05 18.03 149.98 16.88Q148.91 15.73 147.05 15.73L147.05 15.73Q145.76 15.73 144.76 16.28Q143.75 16.84 143.17 17.91Q142.59 18.98 142.59 20.50ZM159.18 13.55L168.23 13.55L168.23 15.82L159.18 15.82L159.18 13.55ZM161.82 26.73L161.82 9.36L164.50 9.36L164.50 26Q164.50 27.14 164.84 27.70Q165.17 28.26 165.70 28.45Q166.23 28.64 166.82 28.64L166.82 28.64Q167.26 28.64 167.55 28.59Q167.83 28.53 168 28.50L168 28.50L168.55 30.91Q168.27 31.01 167.78 31.12Q167.30 31.23 166.55 31.23L166.55 31.23Q165.41 31.23 164.32 30.74Q163.24 30.25 162.53 29.25Q161.82 28.25 161.82 26.73L161.82 26.73ZM181.59 31.36L181.59 31.36Q179.07 31.36 177.24 30.24Q175.42 29.13 174.44 27.11Q173.45 25.09 173.45 22.41L173.45 22.41Q173.45 19.73 174.44 17.68Q175.42 15.63 177.19 14.47Q178.95 13.32 181.32 13.32L181.32 13.32Q182.68 13.32 184.01 13.77Q185.34 14.23 186.43 15.24Q187.52 16.26 188.17 17.93Q188.82 19.60 188.82 22.05L188.82 22.05L188.82 23.18L175.36 23.18L175.36 20.86L186.09 20.86Q186.09 19.39 185.51 18.23Q184.92 17.07 183.85 16.40Q182.77 15.73 181.32 15.73L181.32 15.73Q179.72 15.73 178.55 16.52Q177.39 17.31 176.76 18.57Q176.14 19.83 176.14 21.27L176.14 21.27L176.14 22.82Q176.14 24.80 176.82 26.16Q177.51 27.53 178.74 28.24Q179.97 28.95 181.59 28.95L181.59 28.95Q182.65 28.95 183.51 28.65Q184.36 28.35 184.99 27.74Q185.61 27.14 185.95 26.23L185.95 26.23L188.55 26.95Q188.14 28.27 187.17 29.27Q186.20 30.26 184.78 30.81Q183.36 31.36 181.59 31.36ZM194.91 7.73L197.59 7.73L197.59 31L194.91 31L194.91 7.73ZM204.50 7.73L207.18 7.73L207.18 31L204.50 31L204.50 7.73ZM216.77 31L214.09 31L214.09 13.55L216.77 13.55L216.77 31ZM215.45 10.64L215.45 10.64Q214.67 10.64 214.11 10.10Q213.55 9.57 213.55 8.82L213.55 8.82Q213.55 8.07 214.11 7.53Q214.67 7 215.45 7L215.45 7Q216.24 7 216.80 7.53Q217.36 8.07 217.36 8.82L217.36 8.82Q217.36 9.57 216.80 10.10Q216.24 10.64 215.45 10.64ZM230.73 37.91L230.73 37.91Q228.78 37.91 227.39 37.41Q225.99 36.92 225.06 36.12Q224.14 35.32 223.59 34.41L223.59 34.41L225.73 32.91Q226.09 33.39 226.65 34.01Q227.20 34.63 228.18 35.09Q229.15 35.55 230.73 35.55L230.73 35.55Q232.84 35.55 234.22 34.52Q235.59 33.50 235.59 31.32L235.59 31.32L235.59 27.77L235.36 27.77Q235.07 28.25 234.53 28.95Q233.99 29.65 232.98 30.19Q231.98 30.73 230.27 30.73L230.27 30.73Q228.16 30.73 226.48 29.73Q224.81 28.73 223.84 26.82Q222.86 24.91 222.86 22.18L222.86 22.18Q222.86 19.50 223.81 17.51Q224.75 15.51 226.43 14.41Q228.11 13.32 230.32 13.32L230.32 13.32Q232.02 13.32 233.03 13.88Q234.03 14.44 234.57 15.15Q235.11 15.86 235.41 16.32L235.41 16.32L235.68 16.32L235.68 13.55L238.27 13.55L238.27 31.50Q238.27 33.75 237.26 35.16Q236.24 36.58 234.53 37.24Q232.82 37.91 230.73 37.91ZM230.64 28.32L230.64 28.32Q232.25 28.32 233.36 27.58Q234.48 26.84 235.06 25.45Q235.64 24.07 235.64 22.14L235.64 22.14Q235.64 20.25 235.07 18.81Q234.50 17.36 233.39 16.55Q232.27 15.73 230.64 15.73L230.64 15.73Q228.93 15.73 227.80 16.59Q226.67 17.45 226.11 18.91Q225.55 20.36 225.55 22.14L225.55 22.14Q225.55 23.95 226.12 25.35Q226.69 26.74 227.82 27.53Q228.95 28.32 230.64 28.32ZM252.50 31.36L252.50 31.36Q249.98 31.36 248.15 30.24Q246.33 29.13 245.35 27.11Q244.36 25.09 244.36 22.41L244.36 22.41Q244.36 19.73 245.35 17.68Q246.33 15.63 248.10 14.47Q249.86 13.32 252.23 13.32L252.23 13.32Q253.59 13.32 254.92 13.77Q256.25 14.23 257.34 15.24Q258.43 16.26 259.08 17.93Q259.73 19.60 259.73 22.05L259.73 22.05L259.73 23.18L246.27 23.18L246.27 20.86L257 20.86Q257 19.39 256.41 18.23Q255.83 17.07 254.76 16.40Q253.68 15.73 252.23 15.73L252.23 15.73Q250.63 15.73 249.46 16.52Q248.30 17.31 247.67 18.57Q247.05 19.83 247.05 21.27L247.05 21.27L247.05 22.82Q247.05 24.80 247.73 26.16Q248.42 27.53 249.65 28.24Q250.88 28.95 252.50 28.95L252.50 28.95Q253.56 28.95 254.41 28.65Q255.27 28.35 255.90 27.74Q256.52 27.14 256.86 26.23L256.86 26.23L259.45 26.95Q259.05 28.27 258.08 29.27Q257.11 30.26 255.69 30.81Q254.27 31.36 252.50 31.36ZM268.50 20.50L268.50 20.50L268.50 31L265.82 31L265.82 13.55L268.41 13.55L268.41 16.27L268.64 16.27Q269.25 14.94 270.50 14.13Q271.75 13.32 273.73 13.32L273.73 13.32Q275.50 13.32 276.83 14.04Q278.16 14.76 278.90 16.22Q279.64 17.68 279.64 19.91L279.64 19.91L279.64 31L276.95 31L276.95 20.09Q276.95 18.03 275.89 16.88Q274.82 15.73 272.95 15.73L272.95 15.73Q271.67 15.73 270.66 16.28Q269.66 16.84 269.08 17.91Q268.50 18.98 268.50 20.50ZM293.64 31.36L293.64 31.36Q291.18 31.36 289.41 30.20Q287.64 29.05 286.68 27.01Q285.73 24.98 285.73 22.36L285.73 22.36Q285.73 19.70 286.71 17.66Q287.69 15.63 289.46 14.47Q291.23 13.32 293.59 13.32L293.59 13.32Q295.43 13.32 296.91 14Q298.39 14.68 299.33 15.91Q300.27 17.14 300.50 18.77L300.50 18.77L297.82 18.77Q297.51 17.58 296.46 16.65Q295.41 15.73 293.64 15.73L293.64 15.73Q292.07 15.73 290.89 16.54Q289.72 17.35 289.06 18.82Q288.41 20.30 288.41 22.27L288.41 22.27Q288.41 24.30 289.05 25.80Q289.69 27.30 290.87 28.13Q292.05 28.95 293.64 28.95L293.64 28.95Q294.68 28.95 295.53 28.59Q296.39 28.23 296.98 27.55Q297.57 26.86 297.82 25.91L297.82 25.91L300.50 25.91Q300.27 27.45 299.38 28.69Q298.49 29.92 297.03 30.64Q295.57 31.36 293.64 31.36ZM313.73 31.36L313.73 31.36Q311.20 31.36 309.38 30.24Q307.56 29.13 306.57 27.11Q305.59 25.09 305.59 22.41L305.59 22.41Q305.59 19.73 306.57 17.68Q307.56 15.63 309.32 14.47Q311.09 13.32 313.45 13.32L313.45 13.32Q314.82 13.32 316.15 13.77Q317.48 14.23 318.57 15.24Q319.66 16.26 320.31 17.93Q320.95 19.60 320.95 22.05L320.95 22.05L320.95 23.18L307.50 23.18L307.50 20.86L318.23 20.86Q318.23 19.39 317.64 18.23Q317.06 17.07 315.98 16.40Q314.91 15.73 313.45 15.73L313.45 15.73Q311.85 15.73 310.69 16.52Q309.52 17.31 308.90 18.57Q308.27 19.83 308.27 21.27L308.27 21.27L308.27 22.82Q308.27 24.80 308.96 26.16Q309.65 27.53 310.88 28.24Q312.10 28.95 313.73 28.95L313.73 28.95Q314.78 28.95 315.64 28.65Q316.50 28.35 317.13 27.74Q317.75 27.14 318.09 26.23L318.09 26.23L320.68 26.95Q320.27 28.27 319.31 29.27Q318.34 30.26 316.92 30.81Q315.50 31.36 313.73 31.36Z" transform="translate(0, 0)"></path></g></svg></svg>