<svg width="241" height="24" viewBox="0 0 241 24" fill="none" xmlns="http://www.w3.org/2000/svg">
<path d="M2.12929 18.1216H0V0.5512H5.93484C7.30906 0.5512 8.43663 0.782754 9.31755 1.24586C10.1985 1.71401 10.8503 2.3533 11.2732 3.16374C11.696 3.97921 11.9074 4.90291 11.9074 5.93484C11.9074 6.9718 11.696 7.89047 11.2732 8.69084C10.8503 9.49121 10.201 10.1204 9.3251 10.5785C8.44922 11.0316 7.33171 11.2581 5.97259 11.2581H1.16281V9.33265H5.90464C6.84092 9.33265 7.59599 9.19673 8.16984 8.92491C8.74369 8.64805 9.1615 8.25793 9.42326 7.75455C9.68501 7.24614 9.81589 6.63957 9.81589 5.93484C9.81589 5.23514 9.68501 4.62102 9.42326 4.09247C9.15646 3.56896 8.73614 3.16122 8.16229 2.86926C7.5834 2.58233 6.81827 2.43887 5.86688 2.43887H2.12929V18.1216ZM5.86688 10.2312H8.268L12.5945 18.1216H10.1255L5.86688 10.2312ZM22.2066 18.3935C20.933 18.3935 19.8382 18.1116 18.922 17.5478C18.0059 16.989 17.2986 16.2013 16.8003 15.1844C16.307 14.1676 16.0603 12.9847 16.0603 11.6356C16.0603 10.2865 16.307 9.09606 16.8003 8.06413C17.2986 7.0322 17.9908 6.22428 18.8767 5.64036C19.7677 5.06148 20.8072 4.77203 21.9951 4.77203C22.6848 4.77203 23.3643 4.88529 24.0338 5.11181C24.7033 5.34337 25.3124 5.71335 25.8611 6.22176C26.4098 6.73521 26.8477 7.41226 27.1749 8.2529C27.4971 9.09354 27.6582 10.1305 27.6582 11.3638V12.217H17.5025V10.4652H25.6044C25.6044 9.72528 25.4559 9.06334 25.1589 8.47942C24.8669 7.8955 24.4491 7.43491 23.9055 7.09764C23.3669 6.76038 22.7301 6.59175 21.9951 6.59175C21.1897 6.59175 20.4951 6.79058 19.9112 7.18825C19.3222 7.58592 18.8717 8.10188 18.5596 8.73614C18.2425 9.3704 18.0839 10.05 18.0839 10.7748V11.9452C18.0839 12.9419 18.2576 13.7825 18.6049 14.4671C18.9522 15.1567 19.4355 15.6803 20.0546 16.0377C20.6687 16.3951 21.3861 16.5738 22.2066 16.5738C22.7351 16.5738 23.2158 16.4982 23.6487 16.3472C24.0817 16.1962 24.4567 15.9672 24.7738 15.6601C25.0859 15.3581 25.3275 14.978 25.4987 14.52L27.4543 15.0636C27.2479 15.7281 26.9031 16.312 26.4198 16.8154C25.9316 17.3137 25.33 17.7013 24.6152 17.9782C23.9004 18.255 23.0975 18.3935 22.2066 18.3935ZM37.5798 23.3392C36.6032 23.3392 35.7626 23.2133 35.0578 22.9616C34.3531 22.715 33.7692 22.3903 33.3061 21.9876C32.8379 21.5849 32.4654 21.1545 32.1886 20.6964L33.8044 19.5638C33.9856 19.8054 34.2172 20.0823 34.4991 20.3944C34.781 20.7065 35.1661 20.9783 35.6543 21.2099C36.1426 21.4414 36.7844 21.5572 37.5798 21.5572C38.6419 21.5572 39.5203 21.298 40.2149 20.7795C40.9046 20.266 41.2494 19.4606 41.2494 18.3633V15.6828H41.0833C40.9323 15.9244 40.7208 16.2214 40.449 16.5738C40.1772 16.9261 39.7896 17.2382 39.2862 17.51C38.7778 17.7819 38.0957 17.9178 37.24 17.9178C36.1728 17.9178 35.2189 17.6661 34.3783 17.1627C33.5326 16.6593 32.8656 15.9269 32.3773 14.9655C31.8891 14.004 31.6449 12.8362 31.6449 11.4619C31.6449 10.1129 31.8815 8.93749 32.3547 7.93577C32.8279 6.92901 33.4898 6.14877 34.3405 5.59506C35.1862 5.04637 36.1627 4.77203 37.2702 4.77203C38.131 4.77203 38.813 4.91298 39.3164 5.19487C39.8248 5.47676 40.2149 5.79641 40.4868 6.15381C40.7586 6.51121 40.9675 6.80568 41.1135 7.03724H41.3249V4.9457H43.2805V18.4992C43.2805 19.6318 43.0238 20.553 42.5104 21.2627C41.9969 21.9775 41.3098 22.501 40.449 22.8333C39.5882 23.1705 38.6318 23.3392 37.5798 23.3392ZM37.5118 16.0981C38.3222 16.0981 39.0094 15.9118 39.5731 15.5393C40.1319 15.1668 40.5572 14.6307 40.8492 13.931C41.1412 13.2364 41.2871 12.4033 41.2871 11.4317C41.2871 10.4804 41.1437 9.64222 40.8568 8.91736C40.5698 8.18746 40.147 7.61864 39.5882 7.2109C39.0295 6.79813 38.3373 6.59175 37.5118 6.59175C36.6561 6.59175 35.9413 6.8082 35.3674 7.24111C34.7986 7.67401 34.3732 8.25793 34.0913 8.99287C33.8095 9.72277 33.6685 10.5357 33.6685 11.4317C33.6685 12.3429 33.812 13.1508 34.0989 13.8555C34.3909 14.5552 34.8212 15.1039 35.3901 15.5016C35.9589 15.8992 36.6661 16.0981 37.5118 16.0981ZM50.5216 18.1216H48.4981V4.9457H50.5216V18.1216ZM49.5249 2.74845C49.1323 2.74845 48.7925 2.61254 48.5056 2.34071C48.2237 2.07392 48.0828 1.75176 48.0828 1.37422C48.0828 0.99669 48.2237 0.672011 48.5056 0.400186C48.7925 0.133396 49.1323 0 49.5249 0C49.9176 0 50.2574 0.133396 50.5443 0.400186C50.8262 0.672011 50.9671 0.99669 50.9671 1.37422C50.9671 1.75176 50.8262 2.07392 50.5443 2.34071C50.2574 2.61254 49.9176 2.74845 49.5249 2.74845ZM61.0926 18.3935C59.8996 18.3935 58.8576 18.1116 57.9666 17.5478C57.0706 16.979 56.3709 16.1862 55.8675 15.1693C55.3692 14.1525 55.12 12.962 55.12 11.5979C55.12 10.2287 55.3692 9.03062 55.8675 8.00373C56.3709 6.98187 57.0706 6.18653 57.9666 5.61771C58.8576 5.05392 59.8996 4.77203 61.0926 4.77203C62.2806 4.77203 63.3226 5.05392 64.2186 5.61771C65.1146 6.18653 65.8118 6.98187 66.3101 8.00373C66.8135 9.03062 67.0652 10.2287 67.0652 11.5979C67.0652 12.962 66.8135 14.1525 66.3101 15.1693C65.8118 16.1862 65.1146 16.979 64.2186 17.5478C63.3226 18.1116 62.2806 18.3935 61.0926 18.3935ZM61.0926 16.5738C61.9936 16.5738 62.7361 16.3422 63.32 15.8791C63.904 15.416 64.3369 14.8069 64.6188 14.0518C64.8956 13.2968 65.034 12.4788 65.034 11.5979C65.034 10.7169 64.8956 9.89643 64.6188 9.13633C64.3369 8.37623 63.904 7.7621 63.32 7.29396C62.7361 6.82582 61.9936 6.59175 61.0926 6.59175C60.1865 6.59175 59.4415 6.82582 58.8576 7.29396C58.2737 7.7621 57.8433 8.37623 57.5664 9.13633C57.2845 9.89643 57.1436 10.7169 57.1436 11.5979C57.1436 12.4788 57.2845 13.2968 57.5664 14.0518C57.8433 14.8069 58.2737 15.416 58.8576 15.8791C59.4415 16.3422 60.1865 16.5738 61.0926 16.5738ZM73.6871 10.1934V18.1216H71.6636V4.9457H73.6192V6.99949H73.7928C74.0999 6.32999 74.568 5.79138 75.1973 5.38364C75.8265 4.9759 76.6395 4.77203 77.6361 4.77203C78.5271 4.77203 79.3074 4.95325 79.9769 5.31568C80.6463 5.67811 81.1673 6.2268 81.5398 6.96173C81.9123 7.69666 82.0986 8.6254 82.0986 9.74793V18.1216H80.0675V9.88385C80.0675 8.84689 79.8007 8.03896 79.2671 7.46008C78.7285 6.88119 77.9885 6.59175 77.0472 6.59175C76.4029 6.59175 75.8265 6.73018 75.3181 7.00704C74.8147 7.28893 74.417 7.69918 74.1251 8.2378C73.8331 8.77641 73.6871 9.42829 73.6871 10.1934ZM95.8937 0.5512H98.023V18.1216H95.8937V0.5512ZM105.536 10.1934V18.1216H103.512V4.9457H105.468V6.99949H105.642C105.949 6.32999 106.417 5.79138 107.046 5.38364C107.675 4.9759 108.488 4.77203 109.485 4.77203C110.376 4.77203 111.156 4.95325 111.826 5.31568C112.495 5.67811 113.016 6.2268 113.389 6.96173C113.761 7.69666 113.947 8.6254 113.947 9.74793V18.1216H111.924V9.88385C111.924 8.84689 111.654 8.03896 111.116 7.46008C110.577 6.88119 109.84 6.59175 108.904 6.59175C108.254 6.59175 107.678 6.73018 107.174 7.00704C106.666 7.28893 106.266 7.69918 105.974 8.2378C105.682 8.77641 105.536 9.42829 105.536 10.1934ZM118.062 4.9457H124.896V6.6597H118.062V4.9457ZM120.056 14.8975V1.78196H122.079V14.3463C122.079 14.9202 122.165 15.348 122.336 15.6299C122.502 15.9118 122.719 16.1006 122.986 16.1962C123.252 16.2919 123.534 16.3397 123.831 16.3397C124.053 16.3397 124.236 16.3271 124.382 16.3019C124.523 16.2717 124.637 16.2491 124.722 16.234L125.137 18.0537C124.997 18.104 124.803 18.1569 124.556 18.2123C124.314 18.2676 124.005 18.2953 123.627 18.2953C123.054 18.2953 122.492 18.172 121.944 17.9253C121.4 17.6787 120.949 17.3037 120.592 16.8003C120.235 16.2969 120.056 15.6626 120.056 14.8975ZM134.984 18.3935C133.715 18.3935 132.62 18.1116 131.699 17.5478C130.783 16.989 130.078 16.2013 129.585 15.1844C129.087 14.1676 128.837 12.9847 128.837 11.6356C128.837 10.2865 129.087 9.09606 129.585 8.06413C130.078 7.0322 130.77 6.22428 131.661 5.64036C132.547 5.06148 133.587 4.77203 134.78 4.77203C135.464 4.77203 136.141 4.88529 136.811 5.11181C137.48 5.34337 138.089 5.71335 138.638 6.22176C139.187 6.73521 139.625 7.41226 139.952 8.2529C140.279 9.09354 140.443 10.1305 140.443 11.3638V12.217H130.28V10.4652H138.381C138.381 9.72528 138.235 9.06334 137.943 8.47942C137.646 7.8955 137.229 7.43491 136.69 7.09764C136.146 6.76038 135.51 6.59175 134.78 6.59175C133.974 6.59175 133.277 6.79058 132.688 7.18825C132.104 7.58592 131.654 8.10188 131.337 8.73614C131.025 9.3704 130.868 10.05 130.868 10.7748V11.9452C130.868 12.9419 131.04 13.7825 131.382 14.4671C131.729 15.1567 132.212 15.6803 132.832 16.0377C133.451 16.3951 134.168 16.5738 134.984 16.5738C135.517 16.5738 136 16.4982 136.433 16.3472C136.861 16.1962 137.234 15.9672 137.551 15.6601C137.863 15.3581 138.105 14.978 138.276 14.52L140.239 15.0636C140.032 15.7281 139.685 16.312 139.197 16.8154C138.709 17.3137 138.107 17.7013 137.392 17.9782C136.677 18.255 135.875 18.3935 134.984 18.3935ZM145.041 0.5512H147.065V18.1216H145.041V0.5512ZM152.282 0.5512H154.306V18.1216H152.282V0.5512ZM161.547 18.1216H159.523V4.9457H161.547V18.1216ZM160.55 2.74845C160.158 2.74845 159.82 2.61254 159.538 2.34071C159.257 2.07392 159.116 1.75176 159.116 1.37422C159.116 0.99669 159.257 0.672011 159.538 0.400186C159.82 0.133396 160.158 0 160.55 0C160.948 0 161.288 0.133396 161.57 0.400186C161.851 0.672011 161.992 0.99669 161.992 1.37422C161.992 1.75176 161.851 2.07392 161.57 2.34071C161.288 2.61254 160.948 2.74845 160.55 2.74845ZM172.088 23.3392C171.106 23.3392 170.265 23.2133 169.566 22.9616C168.861 22.715 168.275 22.3903 167.806 21.9876C167.343 21.5849 166.973 21.1545 166.696 20.6964L168.312 19.5638C168.494 19.8054 168.725 20.0823 169.007 20.3944C169.284 20.7065 169.669 20.9783 170.162 21.2099C170.65 21.4414 171.292 21.5572 172.088 21.5572C173.15 21.5572 174.028 21.298 174.723 20.7795C175.412 20.266 175.757 19.4606 175.757 18.3633V15.6828H175.584C175.438 15.9244 175.229 16.2214 174.957 16.5738C174.685 16.9261 174.295 17.2382 173.787 17.51C173.283 17.7819 172.601 17.9178 171.74 17.9178C170.678 17.9178 169.724 17.6661 168.879 17.1627C168.038 16.6593 167.374 15.9269 166.885 14.9655C166.392 14.004 166.145 12.8362 166.145 11.4619C166.145 10.1129 166.384 8.93749 166.863 7.93577C167.336 6.92901 167.995 6.14877 168.841 5.59506C169.687 5.04637 170.666 4.77203 171.778 4.77203C172.634 4.77203 173.316 4.91298 173.824 5.19487C174.328 5.47676 174.715 5.79641 174.987 6.15381C175.259 6.51121 175.47 6.80568 175.621 7.03724H175.825V4.9457H177.781V18.4992C177.781 19.6318 177.527 20.553 177.018 21.2627C176.505 21.9775 175.818 22.501 174.957 22.8333C174.096 23.1705 173.14 23.3392 172.088 23.3392ZM172.02 16.0981C172.83 16.0981 173.515 15.9118 174.073 15.5393C174.637 15.1668 175.065 14.6307 175.357 13.931C175.649 13.2364 175.795 12.4033 175.795 11.4317C175.795 10.4804 175.652 9.64222 175.365 8.91736C175.078 8.18746 174.655 7.61864 174.096 7.2109C173.532 6.79813 172.84 6.59175 172.02 6.59175C171.159 6.59175 170.444 6.8082 169.875 7.24111C169.306 7.67401 168.881 8.25793 168.599 8.99287C168.317 9.72277 168.176 10.5357 168.176 11.4317C168.176 12.3429 168.32 13.1508 168.607 13.8555C168.894 14.5552 169.322 15.1039 169.89 15.5016C170.459 15.8992 171.169 16.0981 172.02 16.0981ZM188.525 18.3935C187.257 18.3935 186.162 18.1116 185.241 17.5478C184.325 16.989 183.62 16.2013 183.127 15.1844C182.628 14.1676 182.379 12.9847 182.379 11.6356C182.379 10.2865 182.628 9.09606 183.127 8.06413C183.62 7.0322 184.312 6.22428 185.203 5.64036C186.089 5.06148 187.129 4.77203 188.322 4.77203C189.006 4.77203 189.683 4.88529 190.353 5.11181C191.022 5.34337 191.631 5.71335 192.18 6.22176C192.729 6.73521 193.167 7.41226 193.494 8.2529C193.821 9.09354 193.985 10.1305 193.985 11.3638V12.217H183.821V10.4652H191.923C191.923 9.72528 191.775 9.06334 191.478 8.47942C191.186 7.8955 190.771 7.43491 190.232 7.09764C189.688 6.76038 189.052 6.59175 188.322 6.59175C187.516 6.59175 186.819 6.79058 186.23 7.18825C185.646 7.58592 185.196 8.10188 184.879 8.73614C184.566 9.3704 184.41 10.05 184.41 10.7748V11.9452C184.41 12.9419 184.582 13.7825 184.924 14.4671C185.271 15.1567 185.754 15.6803 186.374 16.0377C186.993 16.3951 187.71 16.5738 188.525 16.5738C189.059 16.5738 189.54 16.4982 189.968 16.3472C190.401 16.1962 190.776 15.9672 191.093 15.6601C191.405 15.3581 191.646 14.978 191.818 14.52L193.773 15.0636C193.572 15.7281 193.227 16.312 192.739 16.8154C192.25 17.3137 191.649 17.7013 190.934 17.9782C190.219 18.255 189.416 18.3935 188.525 18.3935ZM200.607 10.1934V18.1216H198.583V4.9457H200.539V6.99949H200.712C201.019 6.32999 201.488 5.79138 202.117 5.38364C202.746 4.9759 203.559 4.77203 204.556 4.77203C205.447 4.77203 206.227 4.95325 206.896 5.31568C207.566 5.67811 208.087 6.2268 208.459 6.96173C208.832 7.69666 209.018 8.6254 209.018 9.74793V18.1216H206.987V9.88385C206.987 8.84689 206.72 8.03896 206.187 7.46008C205.648 6.88119 204.908 6.59175 203.967 6.59175C203.322 6.59175 202.746 6.73018 202.238 7.00704C201.734 7.28893 201.336 7.69918 201.045 8.2378C200.753 8.77641 200.607 9.42829 200.607 10.1934ZM219.589 18.3935C218.351 18.3935 217.286 18.1015 216.395 17.5176C215.504 16.9387 214.817 16.1358 214.334 15.1089C213.856 14.0871 213.616 12.9167 213.616 11.5979C213.616 10.2589 213.863 9.07592 214.356 8.04903C214.85 7.02717 215.542 6.22428 216.433 5.64036C217.324 5.06148 218.363 4.77203 219.551 4.77203C220.477 4.77203 221.313 4.94318 222.058 5.28548C222.803 5.62778 223.412 6.1085 223.885 6.72766C224.359 7.34682 224.653 8.06665 224.769 8.88716H222.745C222.589 8.28814 222.247 7.75455 221.718 7.28641C221.19 6.8233 220.48 6.59175 219.589 6.59175C218.799 6.59175 218.107 6.79562 217.513 7.20335C216.924 7.61109 216.463 8.18494 216.131 8.92491C215.804 9.66991 215.64 10.5382 215.64 11.5299C215.64 12.5518 215.801 13.4402 216.123 14.1953C216.445 14.9504 216.903 15.5368 217.497 15.9546C218.091 16.3674 218.789 16.5738 219.589 16.5738C220.113 16.5738 220.588 16.4831 221.016 16.3019C221.449 16.1207 221.814 15.859 222.111 15.5167C222.408 15.1693 222.619 14.7566 222.745 14.2783H224.769C224.653 15.0535 224.371 15.7532 223.923 16.3774C223.475 16.9966 222.884 17.4874 222.149 17.8498C221.414 18.2123 220.561 18.3935 219.589 18.3935ZM234.758 18.3935C233.485 18.3935 232.39 18.1116 231.474 17.5478C230.558 16.989 229.85 16.2013 229.352 15.1844C228.859 14.1676 228.612 12.9847 228.612 11.6356C228.612 10.2865 228.859 9.09606 229.352 8.06413C229.85 7.0322 230.543 6.22428 231.428 5.64036C232.319 5.06148 233.359 4.77203 234.547 4.77203C235.237 4.77203 235.916 4.88529 236.586 5.11181C237.255 5.34337 237.864 5.71335 238.413 6.22176C238.962 6.73521 239.399 7.41226 239.727 8.2529C240.049 9.09354 240.21 10.1305 240.21 11.3638V12.217H230.054V10.4652H238.156C238.156 9.72528 238.008 9.06334 237.711 8.47942C237.419 7.8955 237.001 7.43491 236.457 7.09764C235.919 6.76038 235.282 6.59175 234.547 6.59175C233.742 6.59175 233.047 6.79058 232.463 7.18825C231.874 7.58592 231.423 8.10188 231.111 8.73614C230.794 9.3704 230.636 10.05 230.636 10.7748V11.9452C230.636 12.9419 230.809 13.7825 231.157 14.4671C231.504 15.1567 231.987 15.6803 232.606 16.0377C233.221 16.3951 233.938 16.5738 234.758 16.5738C235.287 16.5738 235.768 16.4982 236.201 16.3472C236.633 16.1962 237.008 15.9672 237.326 15.6601C237.638 15.3581 237.879 14.978 238.05 14.52L240.006 15.0636C239.8 15.7281 239.455 16.312 238.972 16.8154C238.483 17.3137 237.882 17.7013 237.167 17.9782C236.452 18.255 235.649 18.3935 234.758 18.3935Z" fill="black"/>
</svg>
