<svg width="241" height="79" viewBox="0 0 241 79" fill="none" xmlns="http://www.w3.org/2000/svg">
<path d="M110.066 31.2662H114.303V23.0145L110.066 21.1992V31.2662Z" fill="black"/>
<path d="M93 31.2689H104.297V7.0625L93 18.3581V31.2689Z" fill="black"/>
<path d="M113.037 10.6917L120.837 14.7261V31.2675H130.336V6.60897L123.727 0L113.037 10.6917Z" fill="black"/>
<path d="M133.967 10.2383V31.2662H139.059V15.3305L133.967 10.2383Z" fill="black"/>
<g clip-path="url(#clip0_1108_5257)">
<path d="M99.681 78.8288H97.0005V74.0643H99.681V74.472H97.4309V76.2465H99.2506V76.6542H97.4309V78.4135H99.681V78.8288ZM104.612 77.5829V77.7264C104.612 77.8875 104.579 78.0385 104.513 78.1794C104.448 78.3204 104.362 78.4437 104.257 78.5494C104.146 78.6551 104.018 78.7382 103.872 78.7986C103.726 78.859 103.572 78.8892 103.411 78.8892H103.071C102.91 78.8892 102.757 78.859 102.611 78.7986C102.465 78.7382 102.336 78.6551 102.226 78.5494C102.12 78.4437 102.034 78.3204 101.969 78.1794C101.903 78.0385 101.871 77.8875 101.871 77.7264V77.5376L102.294 77.4621V77.7264C102.294 77.8321 102.316 77.9303 102.361 78.0209C102.407 78.1115 102.465 78.192 102.535 78.2625C102.611 78.333 102.696 78.3883 102.792 78.4286C102.888 78.4689 102.988 78.489 103.094 78.489H103.396C103.502 78.489 103.6 78.4689 103.69 78.4286C103.786 78.3883 103.872 78.333 103.947 78.2625C104.018 78.192 104.075 78.1115 104.121 78.0209C104.166 77.9303 104.189 77.8321 104.189 77.7264V77.5829C104.189 77.4168 104.156 77.2809 104.091 77.1752C104.025 77.0645 103.94 76.9713 103.834 76.8958C103.728 76.8203 103.607 76.7549 103.471 76.6995C103.341 76.6492 103.205 76.5963 103.064 76.5409C102.918 76.4906 102.779 76.4327 102.648 76.3673C102.512 76.3018 102.392 76.2213 102.286 76.1256C102.18 76.03 102.095 75.9117 102.029 75.7708C101.969 75.6349 101.939 75.4637 101.939 75.2573V75.1667C101.939 75.0056 101.969 74.8546 102.029 74.7137C102.09 74.5727 102.173 74.4494 102.278 74.3437C102.384 74.238 102.507 74.1549 102.648 74.0945C102.794 74.0341 102.948 74.0039 103.109 74.0039H103.411C103.572 74.0039 103.723 74.0341 103.864 74.0945C104.005 74.1549 104.131 74.238 104.242 74.3437C104.347 74.4494 104.43 74.5727 104.491 74.7137C104.551 74.8546 104.581 75.0056 104.581 75.1667V75.2951L104.151 75.363V75.1667C104.151 75.061 104.131 74.9628 104.091 74.8722C104.05 74.7816 103.997 74.7011 103.932 74.6306C103.862 74.5601 103.781 74.5073 103.69 74.472C103.6 74.4318 103.502 74.4116 103.396 74.4116H103.124C103.018 74.4116 102.92 74.4318 102.83 74.472C102.739 74.5073 102.658 74.5601 102.588 74.6306C102.518 74.7011 102.462 74.7816 102.422 74.8722C102.382 74.9628 102.361 75.061 102.361 75.1667V75.2573C102.361 75.4083 102.394 75.5367 102.46 75.6424C102.525 75.7481 102.611 75.8362 102.716 75.9067C102.822 75.9822 102.943 76.0476 103.079 76.103C103.21 76.1584 103.346 76.2137 103.487 76.2691C103.627 76.3245 103.766 76.3874 103.902 76.4579C104.038 76.5233 104.159 76.6064 104.264 76.7071C104.37 76.8027 104.453 76.921 104.513 77.0619C104.579 77.2029 104.612 77.3765 104.612 77.5829ZM109.331 74.472H108.198V78.8288H107.768V74.472H106.635V74.0643H109.331V74.472ZM111.407 78.8288H110.894V78.3153H111.407V78.8288ZM118.188 74.4116H118.029C117.923 74.4116 117.823 74.4318 117.727 74.472C117.637 74.5073 117.556 74.5601 117.485 74.6306C117.42 74.7011 117.367 74.7816 117.327 74.8722C117.287 74.9628 117.267 75.061 117.267 75.1667V75.363L116.836 75.2951V75.1667C116.836 75.0056 116.866 74.8546 116.927 74.7137C116.992 74.5727 117.078 74.4494 117.183 74.3437C117.289 74.238 117.413 74.1549 117.553 74.0945C117.694 74.0341 117.845 74.0039 118.006 74.0039H118.21C118.371 74.0039 118.522 74.0316 118.663 74.087C118.809 74.1423 118.935 74.2254 119.041 74.3361C119.147 74.4418 119.23 74.5727 119.29 74.7288C119.351 74.8798 119.381 75.0484 119.381 75.2347C119.381 75.426 119.353 75.6172 119.298 75.8085C119.242 75.9948 119.167 76.181 119.071 76.3673C118.981 76.5485 118.877 76.7272 118.762 76.9034C118.641 77.0745 118.517 77.2356 118.392 77.3866C118.105 77.744 117.777 78.0863 117.41 78.4135H119.411V78.8288H116.738V78.489C117.151 78.1467 117.521 77.7943 117.848 77.4319C117.984 77.2708 118.12 77.1022 118.256 76.926C118.387 76.7498 118.505 76.5686 118.611 76.3824C118.711 76.1961 118.794 76.0048 118.86 75.8085C118.92 75.6172 118.95 75.426 118.95 75.2347C118.95 75.0988 118.93 74.9779 118.89 74.8722C118.85 74.7716 118.794 74.686 118.724 74.6155C118.648 74.545 118.565 74.4922 118.475 74.4569C118.384 74.4267 118.288 74.4116 118.188 74.4116ZM124.349 77.7264C124.349 77.8875 124.319 78.0385 124.258 78.1794C124.198 78.3204 124.115 78.4437 124.009 78.5494C123.904 78.6551 123.778 78.7382 123.632 78.7986C123.491 78.859 123.34 78.8892 123.179 78.8892H122.975C122.814 78.8892 122.663 78.859 122.522 78.7986C122.381 78.7382 122.258 78.6551 122.152 78.5494C122.041 78.4437 121.956 78.3204 121.895 78.1794C121.835 78.0385 121.804 77.8875 121.804 77.7264V75.1667C121.804 75.0056 121.835 74.8546 121.895 74.7137C121.956 74.5727 122.041 74.4494 122.152 74.3437C122.258 74.238 122.381 74.1549 122.522 74.0945C122.663 74.0341 122.814 74.0039 122.975 74.0039H123.179C123.34 74.0039 123.491 74.0341 123.632 74.0945C123.778 74.1549 123.904 74.238 124.009 74.3437C124.115 74.4494 124.198 74.5727 124.258 74.7137C124.319 74.8546 124.349 75.0056 124.349 75.1667V77.7264ZM123.919 77.7264V75.1667C123.919 75.061 123.899 74.9628 123.858 74.8722C123.818 74.7816 123.765 74.7011 123.7 74.6306C123.629 74.5601 123.549 74.5073 123.458 74.472C123.367 74.4318 123.269 74.4116 123.164 74.4116H122.997C122.892 74.4116 122.794 74.4318 122.703 74.472C122.607 74.5073 122.527 74.5601 122.461 74.6306C122.391 74.7011 122.336 74.7816 122.295 74.8722C122.255 74.9628 122.235 75.061 122.235 75.1667V77.7264C122.235 77.8321 122.255 77.9303 122.295 78.0209C122.336 78.1115 122.391 78.192 122.461 78.2625C122.527 78.333 122.607 78.3883 122.703 78.4286C122.794 78.4689 122.892 78.489 122.997 78.489H123.164C123.269 78.489 123.367 78.4689 123.458 78.4286C123.549 78.3883 123.629 78.333 123.7 78.2625C123.765 78.192 123.818 78.1115 123.858 78.0209C123.899 77.9303 123.919 77.8321 123.919 77.7264ZM128.064 74.4116H127.898C127.792 74.4116 127.694 74.4318 127.603 74.472C127.513 74.5073 127.432 74.5601 127.362 74.6306C127.291 74.7011 127.236 74.7816 127.196 74.8722C127.16 74.9628 127.143 75.061 127.143 75.1667V75.363L126.712 75.2951V75.1667C126.712 75.0056 126.743 74.8546 126.803 74.7137C126.863 74.5727 126.947 74.4494 127.052 74.3437C127.158 74.238 127.281 74.1549 127.422 74.0945C127.563 74.0341 127.717 74.0039 127.883 74.0039H128.079C128.24 74.0039 128.394 74.0316 128.54 74.087C128.681 74.1423 128.804 74.2254 128.91 74.3361C129.015 74.4418 129.098 74.5727 129.159 74.7288C129.219 74.8798 129.249 75.0484 129.249 75.2347C129.249 75.426 129.222 75.6172 129.166 75.8085C129.111 75.9948 129.038 76.181 128.947 76.3673C128.857 76.5485 128.751 76.7272 128.63 76.9034C128.515 77.0745 128.394 77.2356 128.268 77.3866C127.976 77.744 127.646 78.0863 127.279 78.4135H129.287V78.8288H126.607V78.489C127.019 78.1467 127.389 77.7943 127.717 77.4319C127.858 77.2708 127.994 77.1022 128.124 76.926C128.255 76.7498 128.374 76.5686 128.479 76.3824C128.585 76.1961 128.668 76.0048 128.728 75.8085C128.794 75.6172 128.827 75.426 128.827 75.2347C128.827 75.0988 128.804 74.9779 128.759 74.8722C128.718 74.7716 128.663 74.686 128.593 74.6155C128.522 74.545 128.442 74.4922 128.351 74.4569C128.255 74.4267 128.16 74.4116 128.064 74.4116ZM134.157 78.0058H133.75V78.8288H133.319V78.0058H131.409V77.8019L133.523 74.0643H133.75V77.598H134.157V78.0058ZM133.319 77.598V75.2347L132.005 77.598H133.319Z" fill="black"/>
</g>
<path d="M2.12929 59.1216H0V41.5512H5.93484C7.30906 41.5512 8.43663 41.7828 9.31755 42.2459C10.1985 42.714 10.8503 43.3533 11.2732 44.1637C11.696 44.9792 11.9074 45.9029 11.9074 46.9348C11.9074 47.9718 11.696 48.8905 11.2732 49.6908C10.8503 50.4912 10.201 51.1204 9.3251 51.5785C8.44922 52.0316 7.33171 52.2581 5.97259 52.2581H1.16281V50.3326H5.90464C6.84092 50.3326 7.59599 50.1967 8.16984 49.9249C8.74369 49.6481 9.1615 49.2579 9.42326 48.7546C9.68501 48.2461 9.81589 47.6396 9.81589 46.9348C9.81589 46.2351 9.68501 45.621 9.42326 45.0925C9.15646 44.569 8.73614 44.1612 8.16229 43.8693C7.5834 43.5823 6.81827 43.4389 5.86688 43.4389H2.12929V59.1216ZM5.86688 51.2312H8.268L12.5945 59.1216H10.1255L5.86688 51.2312ZM22.2066 59.3935C20.933 59.3935 19.8382 59.1116 18.922 58.5478C18.0059 57.989 17.2986 57.2013 16.8003 56.1844C16.307 55.1676 16.0603 53.9847 16.0603 52.6356C16.0603 51.2865 16.307 50.0961 16.8003 49.0641C17.2986 48.0322 17.9908 47.2243 18.8767 46.6404C19.7677 46.0615 20.8072 45.772 21.9951 45.772C22.6848 45.772 23.3643 45.8853 24.0338 46.1118C24.7033 46.3434 25.3124 46.7134 25.8611 47.2218C26.4098 47.7352 26.8477 48.4123 27.1749 49.2529C27.4971 50.0935 27.6582 51.1305 27.6582 52.3638V53.217H17.5025V51.4652H25.6044C25.6044 50.7253 25.4559 50.0633 25.1589 49.4794C24.8669 48.8955 24.4491 48.4349 23.9055 48.0976C23.3669 47.7604 22.7301 47.5917 21.9951 47.5917C21.1897 47.5917 20.4951 47.7906 19.9112 48.1883C19.3222 48.5859 18.8717 49.1019 18.5596 49.7361C18.2425 50.3704 18.0839 51.05 18.0839 51.7748V52.9452C18.0839 53.9419 18.2576 54.7825 18.6049 55.4671C18.9522 56.1567 19.4355 56.6803 20.0546 57.0377C20.6687 57.3951 21.3861 57.5738 22.2066 57.5738C22.7351 57.5738 23.2158 57.4982 23.6487 57.3472C24.0817 57.1962 24.4567 56.9672 24.7738 56.6601C25.0859 56.3581 25.3275 55.978 25.4987 55.52L27.4543 56.0636C27.2479 56.7281 26.9031 57.312 26.4198 57.8154C25.9316 58.3137 25.33 58.7013 24.6152 58.9782C23.9004 59.255 23.0975 59.3935 22.2066 59.3935ZM37.5798 64.3392C36.6032 64.3392 35.7626 64.2133 35.0578 63.9616C34.3531 63.715 33.7692 63.3903 33.3061 62.9876C32.8379 62.5849 32.4654 62.1545 32.1886 61.6964L33.8044 60.5638C33.9856 60.8054 34.2172 61.0823 34.4991 61.3944C34.781 61.7065 35.1661 61.9783 35.6543 62.2099C36.1426 62.4414 36.7844 62.5572 37.5798 62.5572C38.6419 62.5572 39.5203 62.298 40.2149 61.7795C40.9046 61.266 41.2494 60.4606 41.2494 59.3633V56.6828H41.0833C40.9323 56.9244 40.7208 57.2214 40.449 57.5738C40.1772 57.9261 39.7896 58.2382 39.2862 58.51C38.7778 58.7819 38.0957 58.9178 37.24 58.9178C36.1728 58.9178 35.2189 58.6661 34.3783 58.1627C33.5326 57.6593 32.8656 56.9269 32.3773 55.9655C31.8891 55.004 31.6449 53.8362 31.6449 52.4619C31.6449 51.1129 31.8815 49.9375 32.3547 48.9358C32.8279 47.929 33.4898 47.1488 34.3405 46.5951C35.1862 46.0464 36.1627 45.772 37.2702 45.772C38.131 45.772 38.813 45.913 39.3164 46.1949C39.8248 46.4768 40.2149 46.7964 40.4868 47.1538C40.7586 47.5112 40.9675 47.8057 41.1135 48.0372H41.3249V45.9457H43.2805V59.4992C43.2805 60.6318 43.0238 61.553 42.5104 62.2627C41.9969 62.9775 41.3098 63.501 40.449 63.8333C39.5882 64.1705 38.6318 64.3392 37.5798 64.3392ZM37.5118 57.0981C38.3222 57.0981 39.0094 56.9118 39.5731 56.5393C40.1319 56.1668 40.5572 55.6307 40.8492 54.931C41.1412 54.2364 41.2871 53.4033 41.2871 52.4317C41.2871 51.4804 41.1437 50.6422 40.8568 49.9174C40.5698 49.1875 40.147 48.6186 39.5882 48.2109C39.0295 47.7981 38.3373 47.5917 37.5118 47.5917C36.6561 47.5917 35.9413 47.8082 35.3674 48.2411C34.7986 48.674 34.3732 49.2579 34.0913 49.9929C33.8095 50.7228 33.6685 51.5357 33.6685 52.4317C33.6685 53.3429 33.812 54.1508 34.0989 54.8555C34.3909 55.5552 34.8212 56.1039 35.3901 56.5016C35.9589 56.8992 36.6661 57.0981 37.5118 57.0981ZM50.5216 59.1216H48.4981V45.9457H50.5216V59.1216ZM49.5249 43.7484C49.1323 43.7484 48.7925 43.6125 48.5056 43.3407C48.2237 43.0739 48.0828 42.7518 48.0828 42.3742C48.0828 41.9967 48.2237 41.672 48.5056 41.4002C48.7925 41.1334 49.1323 41 49.5249 41C49.9176 41 50.2574 41.1334 50.5443 41.4002C50.8262 41.672 50.9671 41.9967 50.9671 42.3742C50.9671 42.7518 50.8262 43.0739 50.5443 43.3407C50.2574 43.6125 49.9176 43.7484 49.5249 43.7484ZM61.0926 59.3935C59.8996 59.3935 58.8576 59.1116 57.9666 58.5478C57.0706 57.979 56.3709 57.1862 55.8675 56.1693C55.3692 55.1525 55.12 53.962 55.12 52.5979C55.12 51.2287 55.3692 50.0306 55.8675 49.0037C56.3709 47.9819 57.0706 47.1865 57.9666 46.6177C58.8576 46.0539 59.8996 45.772 61.0926 45.772C62.2806 45.772 63.3226 46.0539 64.2186 46.6177C65.1146 47.1865 65.8118 47.9819 66.3101 49.0037C66.8135 50.0306 67.0652 51.2287 67.0652 52.5979C67.0652 53.962 66.8135 55.1525 66.3101 56.1693C65.8118 57.1862 65.1146 57.979 64.2186 58.5478C63.3226 59.1116 62.2806 59.3935 61.0926 59.3935ZM61.0926 57.5738C61.9936 57.5738 62.7361 57.3422 63.32 56.8791C63.904 56.416 64.3369 55.8069 64.6188 55.0518C64.8956 54.2968 65.034 53.4788 65.034 52.5979C65.034 51.7169 64.8956 50.8964 64.6188 50.1363C64.3369 49.3762 63.904 48.7621 63.32 48.294C62.7361 47.8258 61.9936 47.5917 61.0926 47.5917C60.1865 47.5917 59.4415 47.8258 58.8576 48.294C58.2737 48.7621 57.8433 49.3762 57.5664 50.1363C57.2845 50.8964 57.1436 51.7169 57.1436 52.5979C57.1436 53.4788 57.2845 54.2968 57.5664 55.0518C57.8433 55.8069 58.2737 56.416 58.8576 56.8791C59.4415 57.3422 60.1865 57.5738 61.0926 57.5738ZM73.6871 51.1934V59.1216H71.6636V45.9457H73.6192V47.9995H73.7928C74.0999 47.33 74.568 46.7914 75.1973 46.3836C75.8265 45.9759 76.6395 45.772 77.6361 45.772C78.5271 45.772 79.3074 45.9532 79.9769 46.3157C80.6463 46.6781 81.1673 47.2268 81.5398 47.9617C81.9123 48.6967 82.0986 49.6254 82.0986 50.7479V59.1216H80.0675V50.8838C80.0675 49.8469 79.8007 49.039 79.2671 48.4601C78.7285 47.8812 77.9885 47.5917 77.0472 47.5917C76.4029 47.5917 75.8265 47.7302 75.3181 48.007C74.8147 48.2889 74.417 48.6992 74.1251 49.2378C73.8331 49.7764 73.6871 50.4283 73.6871 51.1934ZM95.8937 41.5512H98.023V59.1216H95.8937V41.5512ZM105.536 51.1934V59.1216H103.512V45.9457H105.468V47.9995H105.642C105.949 47.33 106.417 46.7914 107.046 46.3836C107.675 45.9759 108.488 45.772 109.485 45.772C110.376 45.772 111.156 45.9532 111.826 46.3157C112.495 46.6781 113.016 47.2268 113.389 47.9617C113.761 48.6967 113.947 49.6254 113.947 50.7479V59.1216H111.924V50.8838C111.924 49.8469 111.654 49.039 111.116 48.4601C110.577 47.8812 109.84 47.5917 108.904 47.5917C108.254 47.5917 107.678 47.7302 107.174 48.007C106.666 48.2889 106.266 48.6992 105.974 49.2378C105.682 49.7764 105.536 50.4283 105.536 51.1934ZM118.062 45.9457H124.896V47.6597H118.062V45.9457ZM120.056 55.8975V42.782H122.079V55.3463C122.079 55.9202 122.165 56.348 122.336 56.6299C122.502 56.9118 122.719 57.1006 122.986 57.1962C123.252 57.2919 123.534 57.3397 123.831 57.3397C124.053 57.3397 124.236 57.3271 124.382 57.3019C124.523 57.2717 124.637 57.2491 124.722 57.234L125.137 59.0537C124.997 59.104 124.803 59.1569 124.556 59.2123C124.314 59.2676 124.005 59.2953 123.627 59.2953C123.054 59.2953 122.492 59.172 121.944 58.9253C121.4 58.6787 120.949 58.3037 120.592 57.8003C120.235 57.2969 120.056 56.6626 120.056 55.8975ZM134.984 59.3935C133.715 59.3935 132.62 59.1116 131.699 58.5478C130.783 57.989 130.078 57.2013 129.585 56.1844C129.087 55.1676 128.837 53.9847 128.837 52.6356C128.837 51.2865 129.087 50.0961 129.585 49.0641C130.078 48.0322 130.77 47.2243 131.661 46.6404C132.547 46.0615 133.587 45.772 134.78 45.772C135.464 45.772 136.141 45.8853 136.811 46.1118C137.48 46.3434 138.089 46.7134 138.638 47.2218C139.187 47.7352 139.625 48.4123 139.952 49.2529C140.279 50.0935 140.443 51.1305 140.443 52.3638V53.217H130.28V51.4652H138.381C138.381 50.7253 138.235 50.0633 137.943 49.4794C137.646 48.8955 137.229 48.4349 136.69 48.0976C136.146 47.7604 135.51 47.5917 134.78 47.5917C133.974 47.5917 133.277 47.7906 132.688 48.1883C132.104 48.5859 131.654 49.1019 131.337 49.7361C131.025 50.3704 130.868 51.05 130.868 51.7748V52.9452C130.868 53.9419 131.04 54.7825 131.382 55.4671C131.729 56.1567 132.212 56.6803 132.832 57.0377C133.451 57.3951 134.168 57.5738 134.984 57.5738C135.517 57.5738 136 57.4982 136.433 57.3472C136.861 57.1962 137.234 56.9672 137.551 56.6601C137.863 56.3581 138.105 55.978 138.276 55.52L140.239 56.0636C140.032 56.7281 139.685 57.312 139.197 57.8154C138.709 58.3137 138.107 58.7013 137.392 58.9782C136.677 59.255 135.875 59.3935 134.984 59.3935ZM145.041 41.5512H147.065V59.1216H145.041V41.5512ZM152.282 41.5512H154.306V59.1216H152.282V41.5512ZM161.547 59.1216H159.523V45.9457H161.547V59.1216ZM160.55 43.7484C160.158 43.7484 159.82 43.6125 159.538 43.3407C159.257 43.0739 159.116 42.7518 159.116 42.3742C159.116 41.9967 159.257 41.672 159.538 41.4002C159.82 41.1334 160.158 41 160.55 41C160.948 41 161.288 41.1334 161.57 41.4002C161.851 41.672 161.992 41.9967 161.992 42.3742C161.992 42.7518 161.851 43.0739 161.57 43.3407C161.288 43.6125 160.948 43.7484 160.55 43.7484ZM172.088 64.3392C171.106 64.3392 170.265 64.2133 169.566 63.9616C168.861 63.715 168.275 63.3903 167.806 62.9876C167.343 62.5849 166.973 62.1545 166.696 61.6964L168.312 60.5638C168.494 60.8054 168.725 61.0823 169.007 61.3944C169.284 61.7065 169.669 61.9783 170.162 62.2099C170.65 62.4414 171.292 62.5572 172.088 62.5572C173.15 62.5572 174.028 62.298 174.723 61.7795C175.412 61.266 175.757 60.4606 175.757 59.3633V56.6828H175.584C175.438 56.9244 175.229 57.2214 174.957 57.5738C174.685 57.9261 174.295 58.2382 173.787 58.51C173.283 58.7819 172.601 58.9178 171.74 58.9178C170.678 58.9178 169.724 58.6661 168.879 58.1627C168.038 57.6593 167.374 56.9269 166.885 55.9655C166.392 55.004 166.145 53.8362 166.145 52.4619C166.145 51.1129 166.384 49.9375 166.863 48.9358C167.336 47.929 167.995 47.1488 168.841 46.5951C169.687 46.0464 170.666 45.772 171.778 45.772C172.634 45.772 173.316 45.913 173.824 46.1949C174.328 46.4768 174.715 46.7964 174.987 47.1538C175.259 47.5112 175.47 47.8057 175.621 48.0372H175.825V45.9457H177.781V59.4992C177.781 60.6318 177.527 61.553 177.018 62.2627C176.505 62.9775 175.818 63.501 174.957 63.8333C174.096 64.1705 173.14 64.3392 172.088 64.3392ZM172.02 57.0981C172.83 57.0981 173.515 56.9118 174.073 56.5393C174.637 56.1668 175.065 55.6307 175.357 54.931C175.649 54.2364 175.795 53.4033 175.795 52.4317C175.795 51.4804 175.652 50.6422 175.365 49.9174C175.078 49.1875 174.655 48.6186 174.096 48.2109C173.532 47.7981 172.84 47.5917 172.02 47.5917C171.159 47.5917 170.444 47.8082 169.875 48.2411C169.306 48.674 168.881 49.2579 168.599 49.9929C168.317 50.7228 168.176 51.5357 168.176 52.4317C168.176 53.3429 168.32 54.1508 168.607 54.8555C168.894 55.5552 169.322 56.1039 169.89 56.5016C170.459 56.8992 171.169 57.0981 172.02 57.0981ZM188.525 59.3935C187.257 59.3935 186.162 59.1116 185.241 58.5478C184.325 57.989 183.62 57.2013 183.127 56.1844C182.628 55.1676 182.379 53.9847 182.379 52.6356C182.379 51.2865 182.628 50.0961 183.127 49.0641C183.62 48.0322 184.312 47.2243 185.203 46.6404C186.089 46.0615 187.129 45.772 188.322 45.772C189.006 45.772 189.683 45.8853 190.353 46.1118C191.022 46.3434 191.631 46.7134 192.18 47.2218C192.729 47.7352 193.167 48.4123 193.494 49.2529C193.821 50.0935 193.985 51.1305 193.985 52.3638V53.217H183.821V51.4652H191.923C191.923 50.7253 191.775 50.0633 191.478 49.4794C191.186 48.8955 190.771 48.4349 190.232 48.0976C189.688 47.7604 189.052 47.5917 188.322 47.5917C187.516 47.5917 186.819 47.7906 186.23 48.1883C185.646 48.5859 185.196 49.1019 184.879 49.7361C184.566 50.3704 184.41 51.05 184.41 51.7748V52.9452C184.41 53.9419 184.582 54.7825 184.924 55.4671C185.271 56.1567 185.754 56.6803 186.374 57.0377C186.993 57.3951 187.71 57.5738 188.525 57.5738C189.059 57.5738 189.54 57.4982 189.968 57.3472C190.401 57.1962 190.776 56.9672 191.093 56.6601C191.405 56.3581 191.646 55.978 191.818 55.52L193.773 56.0636C193.572 56.7281 193.227 57.312 192.739 57.8154C192.25 58.3137 191.649 58.7013 190.934 58.9782C190.219 59.255 189.416 59.3935 188.525 59.3935ZM200.607 51.1934V59.1216H198.583V45.9457H200.539V47.9995H200.712C201.019 47.33 201.488 46.7914 202.117 46.3836C202.746 45.9759 203.559 45.772 204.556 45.772C205.447 45.772 206.227 45.9532 206.896 46.3157C207.566 46.6781 208.087 47.2268 208.459 47.9617C208.832 48.6967 209.018 49.6254 209.018 50.7479V59.1216H206.987V50.8838C206.987 49.8469 206.72 49.039 206.187 48.4601C205.648 47.8812 204.908 47.5917 203.967 47.5917C203.322 47.5917 202.746 47.7302 202.238 48.007C201.734 48.2889 201.336 48.6992 201.045 49.2378C200.753 49.7764 200.607 50.4283 200.607 51.1934ZM219.589 59.3935C218.351 59.3935 217.286 59.1015 216.395 58.5176C215.504 57.9387 214.817 57.1358 214.334 56.1089C213.856 55.0871 213.616 53.9167 213.616 52.5979C213.616 51.2589 213.863 50.0759 214.356 49.049C214.85 48.0272 215.542 47.2243 216.433 46.6404C217.324 46.0615 218.363 45.772 219.551 45.772C220.477 45.772 221.313 45.9432 222.058 46.2855C222.803 46.6278 223.412 47.1085 223.885 47.7277C224.359 48.3468 224.653 49.0666 224.769 49.8872H222.745C222.589 49.2881 222.247 48.7546 221.718 48.2864C221.19 47.8233 220.48 47.5917 219.589 47.5917C218.799 47.5917 218.107 47.7956 217.513 48.2034C216.924 48.6111 216.463 49.1849 216.131 49.9249C215.804 50.6699 215.64 51.5382 215.64 52.5299C215.64 53.5518 215.801 54.4402 216.123 55.1953C216.445 55.9504 216.903 56.5368 217.497 56.9546C218.091 57.3674 218.789 57.5738 219.589 57.5738C220.113 57.5738 220.588 57.4831 221.016 57.3019C221.449 57.1207 221.814 56.859 222.111 56.5167C222.408 56.1693 222.619 55.7566 222.745 55.2783H224.769C224.653 56.0535 224.371 56.7532 223.923 57.3774C223.475 57.9966 222.884 58.4874 222.149 58.8498C221.414 59.2123 220.561 59.3935 219.589 59.3935ZM234.758 59.3935C233.485 59.3935 232.39 59.1116 231.474 58.5478C230.558 57.989 229.85 57.2013 229.352 56.1844C228.859 55.1676 228.612 53.9847 228.612 52.6356C228.612 51.2865 228.859 50.0961 229.352 49.0641C229.85 48.0322 230.543 47.2243 231.428 46.6404C232.319 46.0615 233.359 45.772 234.547 45.772C235.237 45.772 235.916 45.8853 236.586 46.1118C237.255 46.3434 237.864 46.7134 238.413 47.2218C238.962 47.7352 239.399 48.4123 239.727 49.2529C240.049 50.0935 240.21 51.1305 240.21 52.3638V53.217H230.054V51.4652H238.156C238.156 50.7253 238.008 50.0633 237.711 49.4794C237.419 48.8955 237.001 48.4349 236.457 48.0976C235.919 47.7604 235.282 47.5917 234.547 47.5917C233.742 47.5917 233.047 47.7906 232.463 48.1883C231.874 48.5859 231.423 49.1019 231.111 49.7361C230.794 50.3704 230.636 51.05 230.636 51.7748V52.9452C230.636 53.9419 230.809 54.7825 231.157 55.4671C231.504 56.1567 231.987 56.6803 232.606 57.0377C233.221 57.3951 233.938 57.5738 234.758 57.5738C235.287 57.5738 235.768 57.4982 236.201 57.3472C236.633 57.1962 237.008 56.9672 237.326 56.6601C237.638 56.3581 237.879 55.978 238.05 55.52L240.006 56.0636C239.8 56.7281 239.455 57.312 238.972 57.8154C238.483 58.3137 237.882 58.7013 237.167 58.9782C236.452 59.255 235.649 59.3935 234.758 59.3935Z" fill="black"/>
<defs>
<clipPath id="clip0_1108_5257">
<rect width="37.1569" height="4.88529" fill="white" transform="translate(97 74)"/>
</clipPath>
</defs>
</svg>
