<svg width="432" height="282" viewBox="0 0 432 282" fill="none" xmlns="http://www.w3.org/2000/svg">
<g filter="url(#filter0_d_1208_5674)">
<rect x="4.07617" y="86.8203" width="169.535" height="94.9025" rx="4.60692" fill="white"/>
<rect x="4.07617" y="86.8203" width="169.535" height="94.9025" rx="4.60692" stroke="black" stroke-width="0.00088575"/>
</g>
<g filter="url(#filter1_d_1208_5674)">
<rect x="206.78" y="90.5039" width="221.132" height="78.3176" rx="4.60692" fill="white"/>
<rect x="206.78" y="90.5039" width="221.132" height="78.3176" rx="4.60692" stroke="black" stroke-width="0.00088575"/>
</g>
<g filter="url(#filter2_d_1208_5674)">
<rect x="206.78" y="2.97266" width="221.132" height="76.4748" rx="4.60692" fill="white"/>
<rect x="206.78" y="2.97266" width="221.132" height="76.4748" rx="4.60692" stroke="black" stroke-width="0.00088575"/>
</g>
<path d="M21.1624 112.66H19.2306L23.5712 100.598H25.6738L30.0143 112.66H28.0826L24.6725 102.789H24.5783L21.1624 112.66ZM21.4863 107.937H27.7528V109.468H21.4863V107.937ZM31.7562 112.66V100.598H36.0555C36.9939 100.598 37.7713 100.769 38.3878 101.111C39.0042 101.452 39.4656 101.92 39.7718 102.513C40.0781 103.101 40.2312 103.765 40.2312 104.503C40.2312 105.245 40.0761 105.913 39.7659 106.506C39.4597 107.095 38.9964 107.562 38.376 107.907C37.7596 108.249 36.9841 108.42 36.0496 108.42H33.0931V106.877H35.8847C36.4776 106.877 36.9586 106.775 37.3277 106.57C37.6967 106.362 37.9677 106.08 38.1404 105.722C38.3132 105.365 38.3996 104.959 38.3996 104.503C38.3996 104.048 38.3132 103.643 38.1404 103.29C37.9677 102.937 37.6948 102.66 37.3218 102.459C36.9527 102.259 36.4658 102.159 35.8612 102.159H33.576V112.66H31.7562ZM52.1001 100.598V112.66H50.4274L44.2964 103.814H44.1845V112.66H42.3647V100.598H44.0491L50.186 109.456H50.2979V100.598H52.1001Z" fill="black"/>
<path d="M24.975 149.684C24.1309 149.684 23.3849 149.539 22.737 149.249C22.0931 148.958 21.5886 148.558 21.2234 148.047C20.8583 147.537 20.6777 146.956 20.6816 146.304C20.6777 145.793 20.7817 145.324 20.9937 144.896C21.2097 144.464 21.5022 144.105 21.8713 143.818C22.2403 143.528 22.6526 143.343 23.1081 143.265V143.194C22.5073 143.049 22.0264 142.727 21.6651 142.228C21.3039 141.73 21.1253 141.156 21.1292 140.509C21.1253 139.892 21.2882 139.342 21.618 138.859C21.9518 138.373 22.4092 137.99 22.9903 137.711C23.5714 137.432 24.233 137.293 24.975 137.293C25.7093 137.293 26.365 137.434 26.9421 137.717C27.5232 137.996 27.9807 138.379 28.3144 138.865C28.6481 139.348 28.817 139.896 28.8209 140.509C28.817 141.156 28.6324 141.73 28.2673 142.228C27.9021 142.727 27.4271 143.049 26.842 143.194V143.265C27.2936 143.343 27.6999 143.528 28.0612 143.818C28.4263 144.105 28.7169 144.464 28.9328 144.896C29.1527 145.324 29.2646 145.793 29.2685 146.304C29.2646 146.956 29.08 147.537 28.7149 148.047C28.3497 148.558 27.8432 148.958 27.1954 149.249C26.5515 149.539 25.8114 149.684 24.975 149.684ZM24.975 148.194C25.4737 148.194 25.9056 148.112 26.2707 147.947C26.6359 147.778 26.9186 147.545 27.1188 147.246C27.3191 146.944 27.4212 146.59 27.4251 146.186C27.4212 145.766 27.3112 145.395 27.0953 145.073C26.8833 144.751 26.5947 144.498 26.2295 144.313C25.8644 144.129 25.4462 144.036 24.975 144.036C24.5 144.036 24.0779 144.129 23.7088 144.313C23.3397 144.498 23.0492 144.751 22.8371 145.073C22.6251 145.395 22.5211 145.766 22.525 146.186C22.5211 146.59 22.6173 146.944 22.8136 147.246C23.0138 147.545 23.2985 147.778 23.6676 147.947C24.0366 148.112 24.4725 148.194 24.975 148.194ZM24.975 142.582C25.3755 142.582 25.7309 142.501 26.041 142.34C26.3512 142.179 26.5947 141.955 26.7714 141.669C26.952 141.382 27.0442 141.046 27.0482 140.662C27.0442 140.285 26.9539 139.955 26.7772 139.672C26.6045 139.39 26.363 139.172 26.0528 139.019C25.7426 138.861 25.3834 138.783 24.975 138.783C24.5589 138.783 24.1937 138.861 23.8796 139.019C23.5694 139.172 23.3279 139.39 23.1552 139.672C22.9824 139.955 22.898 140.285 22.9019 140.662C22.898 141.046 22.9844 141.382 23.1611 141.669C23.3378 141.955 23.5812 142.179 23.8914 142.34C24.2055 142.501 24.5667 142.582 24.975 142.582ZM35.5894 149.684C35.0515 149.677 34.5215 149.578 33.9993 149.39C33.481 149.201 33.0098 148.887 32.5858 148.448C32.1617 148.008 31.8221 147.417 31.5669 146.675C31.3156 145.933 31.19 145.006 31.19 143.895C31.19 142.843 31.294 141.908 31.5021 141.092C31.7141 140.275 32.0184 139.586 32.415 139.024C32.8115 138.459 33.2906 138.029 33.852 137.735C34.4135 137.44 35.0437 137.293 35.7426 137.293C36.4611 137.293 37.0991 137.434 37.6567 137.717C38.2142 138 38.6657 138.39 39.0113 138.889C39.3607 139.388 39.5825 139.955 39.6768 140.591H37.8805C37.7588 140.088 37.5173 139.678 37.1561 139.36C36.7948 139.042 36.3237 138.883 35.7426 138.883C34.8591 138.883 34.1701 139.268 33.6753 140.037C33.1846 140.807 32.9372 141.877 32.9333 143.247H33.0216C33.2297 142.906 33.4849 142.615 33.7872 142.376C34.0935 142.132 34.4351 141.946 34.812 141.816C35.1929 141.683 35.5934 141.616 36.0135 141.616C36.7124 141.616 37.3445 141.787 37.9099 142.128C38.4792 142.466 38.9327 142.933 39.2704 143.53C39.6081 144.127 39.7769 144.81 39.7769 145.579C39.7769 146.349 39.6022 147.046 39.2527 147.67C38.9072 148.295 38.4203 148.789 37.7921 149.154C37.1639 149.516 36.4297 149.692 35.5894 149.684ZM35.5836 148.153C36.0469 148.153 36.4611 148.039 36.8262 147.812C37.1914 147.584 37.48 147.278 37.692 146.893C37.904 146.508 38.01 146.078 38.01 145.603C38.01 145.14 37.906 144.718 37.6979 144.337C37.4937 143.956 37.211 143.654 36.8498 143.43C36.4925 143.206 36.0842 143.094 35.6248 143.094C35.2753 143.094 34.9514 143.161 34.653 143.294C34.3585 143.428 34.0994 143.612 33.8756 143.848C33.6518 144.083 33.4751 144.354 33.3455 144.661C33.2199 144.963 33.1571 145.283 33.1571 145.621C33.1571 146.072 33.2611 146.49 33.4692 146.875C33.6812 147.26 33.9698 147.57 34.335 147.806C34.704 148.037 35.1202 148.153 35.5836 148.153ZM42.3285 149.52L47.5938 139.107V139.019H41.504V137.458H49.4784V139.072L44.2308 149.52H42.3285ZM55.3459 149.684C54.6077 149.684 53.9441 149.543 53.3552 149.26C52.7702 148.974 52.3029 148.581 51.9535 148.082C51.604 147.584 51.4175 147.015 51.394 146.375H53.1608C53.204 146.893 53.4337 147.319 53.8499 147.653C54.2661 147.986 54.7648 148.153 55.3459 148.153C55.8092 148.153 56.2195 148.047 56.5768 147.835C56.938 147.619 57.2207 147.323 57.4249 146.946C57.633 146.569 57.737 146.139 57.737 145.656C57.737 145.165 57.631 144.727 57.419 144.343C57.2069 143.958 56.9144 143.656 56.5414 143.436C56.1723 143.216 55.7483 143.104 55.2693 143.1C54.9041 143.1 54.537 143.163 54.1679 143.288C53.7989 143.414 53.5005 143.579 53.2727 143.783L51.606 143.536L52.2833 137.458H58.9149V139.019H53.7969L53.4141 142.393H53.4848C53.7203 142.165 54.0325 141.975 54.4212 141.822C54.8138 141.669 55.234 141.592 55.6816 141.592C56.4158 141.592 57.0695 141.767 57.6428 142.116C58.2199 142.466 58.6734 142.943 59.0032 143.548C59.337 144.148 59.5019 144.839 59.498 145.621C59.5019 146.402 59.3252 147.099 58.9679 147.711C58.6145 148.324 58.1237 148.807 57.4955 149.16C56.8712 149.51 56.1547 149.684 55.3459 149.684ZM65.8483 149.684C65.0395 149.684 64.3171 149.545 63.681 149.266C63.0489 148.988 62.5483 148.601 62.1792 148.106C61.814 147.607 61.6177 147.03 61.5902 146.375H63.4395C63.4631 146.732 63.5828 147.042 63.7988 147.305C64.0187 147.564 64.3053 147.764 64.6587 147.906C65.012 148.047 65.4047 148.118 65.8366 148.118C66.3117 148.118 66.7318 148.035 67.0969 147.87C67.466 147.706 67.7546 147.476 67.9627 147.181C68.1708 146.883 68.2748 146.539 68.2748 146.151C68.2748 145.746 68.1708 145.391 67.9627 145.085C67.7585 144.775 67.4582 144.531 67.0616 144.354C66.669 144.178 66.1939 144.089 65.6363 144.089H64.6174V142.605H65.6363C66.0839 142.605 66.4766 142.525 66.8142 142.364C67.1558 142.203 67.4228 141.979 67.6152 141.692C67.8076 141.402 67.9038 141.062 67.9038 140.673C67.9038 140.3 67.8194 139.977 67.6505 139.702C67.4856 139.423 67.2501 139.205 66.9438 139.048C66.6415 138.891 66.2842 138.812 65.8719 138.812C65.4793 138.812 65.1122 138.885 64.7706 139.03C64.4329 139.172 64.1581 139.376 63.946 139.643C63.734 139.906 63.6201 140.222 63.6044 140.591H61.8435C61.8631 139.939 62.0555 139.366 62.4206 138.871C62.7897 138.377 63.2766 137.99 63.8812 137.711C64.4859 137.432 65.1573 137.293 65.8955 137.293C66.669 137.293 67.3364 137.444 67.8979 137.746C68.4633 138.045 68.8991 138.443 69.2054 138.942C69.5156 139.441 69.6687 139.986 69.6648 140.579C69.6687 141.255 69.4802 141.828 69.0994 142.299C68.7224 142.77 68.2199 143.086 67.5916 143.247V143.341C68.3926 143.463 69.013 143.781 69.4527 144.296C69.8964 144.81 70.1163 145.448 70.1124 146.21C70.1163 146.873 69.9318 147.468 69.5587 147.994C69.1897 148.52 68.6851 148.935 68.0451 149.237C67.4051 149.535 66.6729 149.684 65.8483 149.684ZM76.5378 149.72C75.6073 149.716 74.8122 149.47 74.1526 148.984C73.493 148.497 72.9884 147.788 72.639 146.857C72.2895 145.927 72.1148 144.806 72.1148 143.495C72.1148 142.187 72.2895 141.07 72.639 140.143C72.9923 139.217 73.4988 138.51 74.1585 138.023C74.822 137.536 75.6151 137.293 76.5378 137.293C77.4605 137.293 78.2517 137.538 78.9113 138.029C79.5709 138.516 80.0755 139.223 80.4249 140.149C80.7783 141.072 80.955 142.187 80.955 143.495C80.955 144.81 80.7803 145.933 80.4308 146.863C80.0814 147.79 79.5768 148.499 78.9172 148.989C78.2576 149.476 77.4645 149.72 76.5378 149.72ZM76.5378 148.147C77.3545 148.147 77.9925 147.749 78.4519 146.952C78.9152 146.155 79.1469 145.002 79.1469 143.495C79.1469 142.493 79.0409 141.647 78.8289 140.956C78.6208 140.261 78.3204 139.735 77.9278 139.378C77.5391 139.017 77.0757 138.836 76.5378 138.836C75.7251 138.836 75.087 139.236 74.6237 140.037C74.1604 140.838 73.9268 141.991 73.9229 143.495C73.9229 144.5 74.0269 145.35 74.235 146.045C74.4471 146.736 74.7474 147.26 75.1361 147.617C75.5248 147.971 75.9921 148.147 76.5378 148.147ZM87.0551 137.293C87.593 137.297 88.123 137.395 88.6452 137.587C89.1674 137.78 89.6386 138.094 90.0587 138.53C90.4828 138.966 90.8204 139.554 91.0717 140.297C91.3269 141.035 91.4565 141.953 91.4604 143.053C91.4604 144.109 91.3544 145.049 91.1424 145.874C90.9304 146.695 90.6261 147.388 90.2295 147.953C89.8369 148.518 89.3598 148.948 88.7984 149.243C88.2369 149.537 87.6047 149.684 86.9019 149.684C86.1834 149.684 85.5454 149.543 84.9878 149.26C84.4303 148.978 83.9768 148.587 83.6274 148.088C83.2779 147.586 83.06 147.009 82.9736 146.357H84.7699C84.8877 146.875 85.1272 147.295 85.4884 147.617C85.8536 147.935 86.3248 148.094 86.9019 148.094C87.7854 148.094 88.4744 147.709 88.9692 146.94C89.4639 146.166 89.7132 145.087 89.7171 143.701H89.6229C89.4187 144.038 89.1635 144.329 88.8572 144.572C88.5549 144.816 88.2153 145.004 87.8384 145.138C87.4614 145.271 87.059 145.338 86.631 145.338C85.936 145.338 85.3039 145.167 84.7346 144.826C84.1653 144.484 83.7118 144.015 83.3741 143.418C83.0364 142.821 82.8676 142.14 82.8676 141.374C82.8676 140.613 83.0404 139.922 83.3859 139.301C83.7353 138.681 84.2222 138.19 84.8465 137.829C85.4747 137.464 86.2109 137.285 87.0551 137.293ZM87.0609 138.824C86.6016 138.824 86.1873 138.938 85.8183 139.166C85.4531 139.39 85.1645 139.694 84.9525 140.079C84.7405 140.459 84.6345 140.884 84.6345 141.351C84.6345 141.818 84.7365 142.242 84.9407 142.623C85.1488 143 85.4315 143.3 85.7888 143.524C86.15 143.744 86.5623 143.854 87.0256 143.854C87.3711 143.854 87.6931 143.787 87.9915 143.654C88.2899 143.52 88.551 143.336 88.7748 143.1C88.9986 142.86 89.1733 142.59 89.299 142.287C89.4246 141.985 89.4874 141.667 89.4874 141.333C89.4874 140.889 89.3814 140.477 89.1694 140.096C88.9613 139.715 88.6747 139.409 88.3095 139.178C87.9444 138.942 87.5282 138.824 87.0609 138.824Z" fill="black"/>
<path d="M227.552 116.875H225.62L229.961 104.813H232.063L236.404 116.875H234.472L231.062 107.004H230.968L227.552 116.875ZM227.876 112.152H234.142V113.683H227.876V112.152ZM238.004 116.875V107.829H239.707V109.266H239.801C239.966 108.779 240.256 108.396 240.672 108.117C241.093 107.835 241.568 107.693 242.098 107.693C242.208 107.693 242.337 107.697 242.486 107.705C242.64 107.713 242.759 107.723 242.846 107.734V109.419C242.775 109.399 242.649 109.378 242.469 109.354C242.288 109.327 242.108 109.313 241.927 109.313C241.511 109.313 241.14 109.401 240.814 109.578C240.492 109.751 240.237 109.992 240.048 110.302C239.86 110.609 239.765 110.958 239.765 111.351V116.875H238.004ZM247.945 117.058C247.053 117.058 246.286 116.867 245.642 116.486C245.002 116.102 244.507 115.562 244.158 114.867C243.812 114.168 243.639 113.349 243.639 112.411C243.639 111.484 243.812 110.667 244.158 109.961C244.507 109.254 244.994 108.702 245.618 108.306C246.246 107.909 246.981 107.711 247.821 107.711C248.331 107.711 248.826 107.795 249.305 107.964C249.784 108.133 250.214 108.398 250.595 108.759C250.976 109.12 251.276 109.59 251.496 110.167C251.716 110.74 251.826 111.437 251.826 112.258V112.882H244.635V111.563H250.1C250.1 111.099 250.006 110.689 249.817 110.332C249.629 109.971 249.364 109.686 249.022 109.478C248.685 109.27 248.288 109.166 247.833 109.166C247.338 109.166 246.906 109.287 246.537 109.531C246.172 109.77 245.889 110.084 245.689 110.473C245.493 110.858 245.394 111.276 245.394 111.728V112.758C245.394 113.363 245.5 113.877 245.712 114.301C245.928 114.725 246.229 115.049 246.613 115.273C246.998 115.493 247.448 115.603 247.962 115.603C248.296 115.603 248.6 115.556 248.875 115.462C249.15 115.363 249.387 115.218 249.588 115.026C249.788 114.833 249.941 114.596 250.047 114.313L251.714 114.613C251.58 115.104 251.341 115.534 250.995 115.903C250.654 116.268 250.224 116.553 249.705 116.757C249.191 116.957 248.604 117.058 247.945 117.058ZM256.412 117.075C255.839 117.075 255.321 116.969 254.857 116.757C254.394 116.541 254.027 116.229 253.756 115.821C253.489 115.412 253.356 114.912 253.356 114.319C253.356 113.809 253.454 113.388 253.65 113.059C253.846 112.729 254.111 112.468 254.445 112.275C254.779 112.083 255.152 111.938 255.564 111.839C255.976 111.741 256.396 111.667 256.824 111.616C257.366 111.553 257.806 111.502 258.144 111.463C258.481 111.419 258.727 111.351 258.88 111.256C259.033 111.162 259.11 111.009 259.11 110.797V110.756C259.11 110.241 258.964 109.843 258.674 109.56C258.387 109.278 257.959 109.136 257.39 109.136C256.797 109.136 256.33 109.268 255.988 109.531C255.65 109.79 255.417 110.078 255.287 110.397L253.632 110.02C253.829 109.47 254.115 109.026 254.492 108.689C254.873 108.347 255.311 108.1 255.806 107.946C256.3 107.789 256.821 107.711 257.366 107.711C257.728 107.711 258.11 107.754 258.515 107.84C258.923 107.923 259.304 108.076 259.657 108.3C260.015 108.524 260.307 108.844 260.535 109.26C260.763 109.672 260.876 110.208 260.876 110.868V116.875H259.157V115.638H259.086C258.972 115.866 258.801 116.09 258.574 116.31C258.346 116.529 258.053 116.712 257.696 116.857C257.339 117.003 256.911 117.075 256.412 117.075ZM256.795 115.662C257.282 115.662 257.698 115.566 258.044 115.373C258.393 115.181 258.658 114.929 258.839 114.619C259.023 114.305 259.115 113.97 259.115 113.612V112.446C259.053 112.509 258.931 112.568 258.75 112.623C258.574 112.674 258.371 112.719 258.144 112.758C257.916 112.794 257.694 112.827 257.478 112.858C257.262 112.886 257.082 112.909 256.936 112.929C256.595 112.972 256.283 113.045 256 113.147C255.721 113.249 255.497 113.396 255.329 113.589C255.164 113.777 255.081 114.028 255.081 114.343C255.081 114.778 255.242 115.108 255.564 115.332C255.886 115.552 256.296 115.662 256.795 115.662Z" fill="black"/>
<path d="M223.769 28.8164V16.7547H225.589V21.9963H231.603V16.7547H233.428V28.8164H231.603V23.5571H225.589V28.8164H223.769ZM238.57 29.0167C237.997 29.0167 237.478 28.9106 237.015 28.6986C236.552 28.4827 236.185 28.1705 235.914 27.7622C235.647 27.3538 235.513 26.8532 235.513 26.2604C235.513 25.7499 235.611 25.3298 235.808 25C236.004 24.6702 236.269 24.4091 236.603 24.2167C236.936 24.0243 237.309 23.879 237.722 23.7809C238.134 23.6827 238.554 23.6081 238.982 23.5571C239.524 23.4942 239.964 23.4432 240.301 23.4039C240.639 23.3607 240.884 23.292 241.038 23.1978C241.191 23.1036 241.267 22.9504 241.267 22.7384V22.6972C241.267 22.1828 241.122 21.7843 240.831 21.5016C240.545 21.2189 240.117 21.0776 239.548 21.0776C238.955 21.0776 238.487 21.2091 238.146 21.4722C237.808 21.7313 237.575 22.0199 237.445 22.3379L235.79 21.961C235.986 21.4113 236.273 20.9676 236.65 20.63C237.031 20.2884 237.469 20.041 237.963 19.8879C238.458 19.7308 238.978 19.6523 239.524 19.6523C239.885 19.6523 240.268 19.6955 240.672 19.7819C241.081 19.8643 241.462 20.0175 241.815 20.2413C242.172 20.4651 242.465 20.7851 242.693 21.2013C242.92 21.6135 243.034 22.1495 243.034 22.8091V28.8164H241.314V27.5796H241.244C241.13 27.8073 240.959 28.0311 240.731 28.251C240.504 28.4709 240.211 28.6535 239.854 28.7987C239.496 28.944 239.069 29.0167 238.57 29.0167ZM238.953 27.6032C239.44 27.6032 239.856 27.507 240.201 27.3146C240.551 27.1222 240.816 26.8709 240.996 26.5607C241.181 26.2466 241.273 25.9109 241.273 25.5536V24.3875C241.21 24.4503 241.089 24.5092 240.908 24.5642C240.731 24.6152 240.529 24.6604 240.301 24.6996C240.074 24.735 239.852 24.7683 239.636 24.7998C239.42 24.8272 239.239 24.8508 239.094 24.8704C238.752 24.9136 238.44 24.9863 238.158 25.0883C237.879 25.1904 237.655 25.3377 237.486 25.5301C237.321 25.7185 237.239 25.9698 237.239 26.2839C237.239 26.7197 237.4 27.0495 237.722 27.2734C238.044 27.4932 238.454 27.6032 238.953 27.6032ZM245.191 28.8164V27.6091L250.091 21.3838V21.3014H245.35V19.7701H252.288V21.054L247.576 27.2027V27.2851H252.453V28.8164H245.191ZM257.163 29.0167C256.59 29.0167 256.072 28.9106 255.608 28.6986C255.145 28.4827 254.778 28.1705 254.507 27.7622C254.24 27.3538 254.106 26.8532 254.106 26.2604C254.106 25.7499 254.205 25.3298 254.401 25C254.597 24.6702 254.862 24.4091 255.196 24.2167C255.53 24.0243 255.903 23.879 256.315 23.7809C256.727 23.6827 257.147 23.6081 257.575 23.5571C258.117 23.4942 258.557 23.4432 258.895 23.4039C259.232 23.3607 259.478 23.292 259.631 23.1978C259.784 23.1036 259.86 22.9504 259.86 22.7384V22.6972C259.86 22.1828 259.715 21.7843 259.425 21.5016C259.138 21.2189 258.71 21.0776 258.141 21.0776C257.548 21.0776 257.081 21.2091 256.739 21.4722C256.401 21.7313 256.168 22.0199 256.038 22.3379L254.383 21.961C254.58 21.4113 254.866 20.9676 255.243 20.63C255.624 20.2884 256.062 20.041 256.556 19.8879C257.051 19.7308 257.571 19.6523 258.117 19.6523C258.478 19.6523 258.861 19.6955 259.266 19.7819C259.674 19.8643 260.055 20.0175 260.408 20.2413C260.766 20.4651 261.058 20.7851 261.286 21.2013C261.513 21.6135 261.627 22.1495 261.627 22.8091V28.8164H259.908V27.5796H259.837C259.723 27.8073 259.552 28.0311 259.325 28.251C259.097 28.4709 258.804 28.6535 258.447 28.7987C258.09 28.944 257.662 29.0167 257.163 29.0167ZM257.546 27.6032C258.033 27.6032 258.449 27.507 258.794 27.3146C259.144 27.1222 259.409 26.8709 259.59 26.5607C259.774 26.2466 259.866 25.9109 259.866 25.5536V24.3875C259.804 24.4503 259.682 24.5092 259.501 24.5642C259.325 24.6152 259.122 24.6604 258.895 24.6996C258.667 24.735 258.445 24.7683 258.229 24.7998C258.013 24.8272 257.833 24.8508 257.687 24.8704C257.346 24.9136 257.034 24.9863 256.751 25.0883C256.472 25.1904 256.248 25.3377 256.079 25.5301C255.915 25.7185 255.832 25.9698 255.832 26.2839C255.832 26.7197 255.993 27.0495 256.315 27.2734C256.637 27.4932 257.047 27.6032 257.546 27.6032ZM263.973 28.8164V19.7701H265.675V21.2071H265.769C265.934 20.7203 266.225 20.3375 266.641 20.0587C267.061 19.776 267.536 19.6346 268.066 19.6346C268.176 19.6346 268.306 19.6386 268.455 19.6464C268.608 19.6543 268.728 19.6641 268.814 19.6759V21.3603C268.743 21.3406 268.618 21.319 268.437 21.2955C268.256 21.268 268.076 21.2543 267.895 21.2543C267.479 21.2543 267.108 21.3426 266.782 21.5193C266.46 21.692 266.205 21.9335 266.017 22.2437C265.828 22.55 265.734 22.8994 265.734 23.292V28.8164H263.973ZM273.401 28.9931C272.67 28.9931 272.018 28.8066 271.445 28.4336C270.876 28.0567 270.428 27.5207 270.102 26.8257C269.78 26.1269 269.619 25.2886 269.619 24.3109C269.619 23.3333 269.782 22.4969 270.108 21.802C270.438 21.107 270.89 20.575 271.463 20.2059C272.036 19.8368 272.686 19.6523 273.412 19.6523C273.974 19.6523 274.425 19.7465 274.767 19.935C275.112 20.1195 275.379 20.3355 275.568 20.5829C275.76 20.8302 275.909 21.0481 276.015 21.2366H276.121V16.7547H277.882V28.8164H276.163V27.4088H276.015C275.909 27.6012 275.756 27.8211 275.556 28.0684C275.36 28.3158 275.089 28.5317 274.743 28.7163C274.398 28.9008 273.95 28.9931 273.401 28.9931ZM273.789 27.4913C274.296 27.4913 274.724 27.3578 275.073 27.0908C275.427 26.8199 275.693 26.4449 275.874 25.9659C276.059 25.4869 276.151 24.9293 276.151 24.2933C276.151 23.665 276.061 23.1153 275.88 22.6442C275.699 22.173 275.434 21.8059 275.085 21.5428C274.735 21.2798 274.304 21.1482 273.789 21.1482C273.259 21.1482 272.817 21.2857 272.464 21.5605C272.111 21.8354 271.844 22.2103 271.663 22.6854C271.486 23.1605 271.398 23.6964 271.398 24.2933C271.398 24.8979 271.488 25.4417 271.669 25.9246C271.85 26.4076 272.117 26.7904 272.47 27.0731C272.827 27.3519 273.267 27.4913 273.789 27.4913Z" fill="black"/>
<rect x="18.8184" y="156.844" width="136.365" height="1.84277" rx="0.921383" fill="#D9D9D9" fill-opacity="0.5"/>
<rect x="222.444" y="47.1992" width="178.748" height="11.0566" rx="5.5283" fill="#FA5C5C" fill-opacity="0.3"/>
<rect x="222.444" y="47.1992" width="63.5755" height="11.0566" rx="5.5283" fill="#FA5C5C"/>
<rect x="225.208" y="133.809" width="178.748" height="11.0566" rx="5.5283" fill="#06A561" fill-opacity="0.3"/>
<rect x="225.208" y="133.809" width="131.758" height="11.0566" rx="5.5283" fill="#06A561"/>
<rect x="331.167" y="23.2461" width="57.1258" height="5.5283" rx="2.76415" fill="#252525" fill-opacity="0.2"/>
<rect x="331.167" y="108.934" width="59.8899" height="5.5283" rx="2.76415" fill="#252525" fill-opacity="0.2"/>
<g filter="url(#filter3_d_1208_5674)">
<rect x="206.78" y="179.879" width="221.132" height="43.305" rx="4.60692" fill="white"/>
<rect x="206.78" y="179.879" width="221.132" height="43.305" rx="4.60692" stroke="black" stroke-width="0.00088575"/>
</g>
<path d="M226.221 206.25V205.037L232.564 195.755H226.168V194.188H234.79V195.401L228.447 204.683H234.843V206.25H226.221ZM240.795 206.433C239.947 206.433 239.206 206.238 238.574 205.85C237.942 205.461 237.451 204.917 237.102 204.218C236.752 203.519 236.578 202.703 236.578 201.768C236.578 200.83 236.752 200.009 237.102 199.306C237.451 198.603 237.942 198.058 238.574 197.669C239.206 197.28 239.947 197.086 240.795 197.086C241.643 197.086 242.383 197.28 243.015 197.669C243.647 198.058 244.138 198.603 244.487 199.306C244.837 200.009 245.012 200.83 245.012 201.768C245.012 202.703 244.837 203.519 244.487 204.218C244.138 204.917 243.647 205.461 243.015 205.85C242.383 206.238 241.643 206.433 240.795 206.433ZM240.801 204.954C241.35 204.954 241.806 204.809 242.167 204.518C242.528 204.228 242.795 203.841 242.968 203.358C243.145 202.875 243.233 202.343 243.233 201.762C243.233 201.185 243.145 200.655 242.968 200.172C242.795 199.685 242.528 199.294 242.167 199C241.806 198.706 241.35 198.558 240.801 198.558C240.247 198.558 239.788 198.706 239.422 199C239.061 199.294 238.792 199.685 238.616 200.172C238.443 200.655 238.356 201.185 238.356 201.762C238.356 202.343 238.443 202.875 238.616 203.358C238.792 203.841 239.061 204.228 239.422 204.518C239.788 204.809 240.247 204.954 240.801 204.954ZM248.738 200.879V206.25H246.977V197.204H248.667V198.676H248.779C248.987 198.197 249.313 197.812 249.757 197.522C250.205 197.231 250.768 197.086 251.447 197.086C252.064 197.086 252.604 197.215 253.067 197.475C253.53 197.73 253.89 198.111 254.145 198.617C254.4 199.124 254.528 199.75 254.528 200.496V206.25H252.767V200.708C252.767 200.052 252.596 199.54 252.254 199.171C251.913 198.798 251.443 198.611 250.847 198.611C250.438 198.611 250.075 198.7 249.757 198.876C249.443 199.053 249.194 199.312 249.009 199.654C248.828 199.991 248.738 200.4 248.738 200.879ZM260.788 206.433C259.897 206.433 259.129 206.242 258.485 205.861C257.845 205.477 257.351 204.937 257.001 204.242C256.656 203.543 256.483 202.724 256.483 201.786C256.483 200.859 256.656 200.042 257.001 199.336C257.351 198.629 257.837 198.077 258.462 197.681C259.09 197.284 259.824 197.086 260.664 197.086C261.175 197.086 261.67 197.17 262.149 197.339C262.628 197.508 263.058 197.773 263.438 198.134C263.819 198.495 264.12 198.965 264.339 199.542C264.559 200.115 264.669 200.812 264.669 201.633V202.257H257.478V200.938H262.944C262.944 200.474 262.849 200.064 262.661 199.707C262.473 199.346 262.207 199.061 261.866 198.853C261.528 198.645 261.132 198.541 260.676 198.541C260.181 198.541 259.75 198.662 259.381 198.906C259.015 199.145 258.733 199.459 258.532 199.848C258.336 200.233 258.238 200.651 258.238 201.103V202.133C258.238 202.738 258.344 203.252 258.556 203.676C258.772 204.1 259.072 204.424 259.457 204.648C259.842 204.868 260.291 204.978 260.806 204.978C261.14 204.978 261.444 204.931 261.719 204.837C261.993 204.738 262.231 204.593 262.431 204.401C262.632 204.208 262.785 203.971 262.891 203.688L264.557 203.988C264.424 204.479 264.184 204.909 263.839 205.278C263.497 205.643 263.067 205.928 262.549 206.132C262.035 206.332 261.448 206.433 260.788 206.433Z" fill="black"/>
<path fill-rule="evenodd" clip-rule="evenodd" d="M142.825 100.609C146.674 100.609 149.793 103.676 149.793 107.458C149.793 109.02 149.262 110.459 148.366 111.612L151.379 114.574C151.742 114.931 151.742 115.509 151.379 115.866C151.044 116.195 150.517 116.22 150.153 115.942L150.065 115.866L147.051 112.904C145.879 113.784 144.414 114.307 142.825 114.307C138.977 114.307 135.857 111.241 135.857 107.458C135.857 103.676 138.977 100.609 142.825 100.609ZM142.825 102.436C140.003 102.436 137.716 104.685 137.716 107.459C137.716 110.233 140.003 112.481 142.825 112.481C144.081 112.481 145.23 112.036 146.12 111.298C146.162 111.16 146.239 111.031 146.349 110.922C146.46 110.814 146.592 110.738 146.731 110.695C147.483 109.822 147.935 108.693 147.935 107.459C147.935 104.685 145.648 102.436 142.825 102.436Z" fill="#D9D9D9"/>
<rect x="344.066" y="198.309" width="57.1258" height="9.21383" rx="4.60692" fill="#FFD613"/>
<g filter="url(#filter4_d_1208_5674)">
<rect x="206.78" y="234.242" width="221.132" height="43.305" rx="4.60692" fill="white"/>
<rect x="206.78" y="234.242" width="221.132" height="43.305" rx="4.60692" stroke="black" stroke-width="0.00088575"/>
</g>
<path d="M226.533 260.613V248.552H228.353V259.047H233.818V260.613H226.533ZM238.386 260.814C237.813 260.814 237.294 260.708 236.831 260.495C236.368 260.28 236.001 259.967 235.73 259.559C235.463 259.151 235.329 258.65 235.329 258.057C235.329 257.547 235.427 257.127 235.624 256.797C235.82 256.467 236.085 256.206 236.419 256.014C236.752 255.821 237.125 255.676 237.538 255.578C237.95 255.48 238.37 255.405 238.798 255.354C239.34 255.291 239.78 255.24 240.117 255.201C240.455 255.158 240.7 255.089 240.854 254.995C241.007 254.9 241.083 254.747 241.083 254.535V254.494C241.083 253.98 240.938 253.581 240.647 253.298C240.361 253.016 239.933 252.874 239.363 252.874C238.771 252.874 238.303 253.006 237.962 253.269C237.624 253.528 237.39 253.817 237.261 254.135L235.606 253.758C235.802 253.208 236.089 252.765 236.466 252.427C236.847 252.085 237.284 251.838 237.779 251.685C238.274 251.528 238.794 251.449 239.34 251.449C239.701 251.449 240.084 251.492 240.488 251.579C240.897 251.661 241.278 251.814 241.631 252.038C241.988 252.262 242.281 252.582 242.508 252.998C242.736 253.41 242.85 253.946 242.85 254.606V260.613H241.13V259.376H241.06C240.946 259.604 240.775 259.828 240.547 260.048C240.32 260.268 240.027 260.45 239.67 260.596C239.312 260.741 238.884 260.814 238.386 260.814ZM238.769 259.4C239.256 259.4 239.672 259.304 240.017 259.111C240.367 258.919 240.632 258.668 240.812 258.358C240.997 258.043 241.089 257.708 241.089 257.35V256.184C241.026 256.247 240.905 256.306 240.724 256.361C240.547 256.412 240.345 256.457 240.117 256.497C239.89 256.532 239.668 256.565 239.452 256.597C239.236 256.624 239.055 256.648 238.91 256.667C238.568 256.71 238.256 256.783 237.974 256.885C237.695 256.987 237.471 257.135 237.302 257.327C237.137 257.515 237.055 257.767 237.055 258.081C237.055 258.517 237.216 258.846 237.538 259.07C237.86 259.29 238.27 259.4 238.769 259.4ZM246.957 255.242V260.613H245.196V251.567H246.886V253.039H246.998C247.206 252.56 247.532 252.176 247.975 251.885C248.423 251.594 248.986 251.449 249.666 251.449C250.282 251.449 250.822 251.579 251.285 251.838C251.749 252.093 252.108 252.474 252.363 252.98C252.618 253.487 252.746 254.113 252.746 254.859V260.613H250.985V255.071C250.985 254.416 250.814 253.903 250.473 253.534C250.131 253.161 249.662 252.975 249.065 252.975C248.657 252.975 248.293 253.063 247.975 253.24C247.661 253.416 247.412 253.675 247.227 254.017C247.047 254.355 246.957 254.763 246.957 255.242ZM258.494 260.79C257.764 260.79 257.112 260.603 256.539 260.23C255.969 259.854 255.522 259.318 255.196 258.623C254.874 257.924 254.713 257.085 254.713 256.108C254.713 255.13 254.876 254.294 255.202 253.599C255.532 252.904 255.983 252.372 256.556 252.003C257.13 251.634 257.78 251.449 258.506 251.449C259.067 251.449 259.519 251.543 259.86 251.732C260.206 251.916 260.473 252.132 260.661 252.38C260.854 252.627 261.003 252.845 261.109 253.033H261.215V248.552H262.976V260.613H261.256V259.206H261.109C261.003 259.398 260.85 259.618 260.65 259.865C260.453 260.113 260.182 260.329 259.837 260.513C259.491 260.698 259.044 260.79 258.494 260.79ZM258.883 259.288C259.389 259.288 259.817 259.155 260.167 258.888C260.52 258.617 260.787 258.242 260.968 257.763C261.152 257.284 261.245 256.726 261.245 256.09C261.245 255.462 261.154 254.912 260.974 254.441C260.793 253.97 260.528 253.603 260.179 253.34C259.829 253.077 259.397 252.945 258.883 252.945C258.353 252.945 257.911 253.083 257.558 253.357C257.204 253.632 256.937 254.007 256.757 254.482C256.58 254.957 256.492 255.493 256.492 256.09C256.492 256.695 256.582 257.239 256.763 257.722C256.943 258.204 257.21 258.587 257.564 258.87C257.921 259.149 258.361 259.288 258.883 259.288ZM277.776 248.552H279.602V256.485C279.602 257.329 279.404 258.077 279.007 258.729C278.611 259.376 278.053 259.887 277.335 260.26C276.616 260.629 275.774 260.814 274.808 260.814C273.846 260.814 273.006 260.629 272.287 260.26C271.569 259.887 271.011 259.376 270.615 258.729C270.218 258.077 270.02 257.329 270.02 256.485V248.552H271.84V256.337C271.84 256.883 271.96 257.368 272.199 257.792C272.442 258.216 272.786 258.55 273.23 258.793C273.673 259.033 274.2 259.153 274.808 259.153C275.421 259.153 275.949 259.033 276.392 258.793C276.84 258.55 277.182 258.216 277.417 257.792C277.657 257.368 277.776 256.883 277.776 256.337V248.552ZM288.886 253.776L287.289 254.058C287.223 253.854 287.117 253.66 286.971 253.475C286.83 253.291 286.638 253.139 286.394 253.022C286.151 252.904 285.847 252.845 285.481 252.845C284.983 252.845 284.567 252.957 284.233 253.181C283.899 253.401 283.732 253.685 283.732 254.035C283.732 254.337 283.844 254.58 284.068 254.765C284.292 254.95 284.653 255.101 285.152 255.218L286.589 255.548C287.421 255.741 288.041 256.037 288.45 256.438C288.858 256.838 289.062 257.358 289.062 257.998C289.062 258.54 288.905 259.023 288.591 259.447C288.281 259.867 287.847 260.197 287.289 260.437C286.736 260.676 286.094 260.796 285.364 260.796C284.351 260.796 283.524 260.58 282.884 260.148C282.244 259.712 281.851 259.094 281.706 258.293L283.408 258.034C283.514 258.477 283.732 258.813 284.062 259.041C284.392 259.265 284.822 259.376 285.352 259.376C285.929 259.376 286.39 259.257 286.736 259.017C287.081 258.774 287.254 258.477 287.254 258.128C287.254 257.845 287.148 257.608 286.936 257.415C286.728 257.223 286.408 257.078 285.976 256.979L284.445 256.644C283.601 256.451 282.976 256.145 282.572 255.725C282.171 255.305 281.971 254.773 281.971 254.129C281.971 253.595 282.12 253.128 282.419 252.727C282.717 252.327 283.13 252.015 283.656 251.791C284.182 251.563 284.784 251.449 285.464 251.449C286.441 251.449 287.211 251.661 287.772 252.085C288.334 252.505 288.705 253.069 288.886 253.776ZM294.897 260.796C294.006 260.796 293.238 260.605 292.594 260.225C291.954 259.84 291.46 259.3 291.11 258.605C290.765 257.906 290.592 257.087 290.592 256.149C290.592 255.222 290.765 254.406 291.11 253.699C291.46 252.992 291.947 252.441 292.571 252.044C293.199 251.647 293.933 251.449 294.774 251.449C295.284 251.449 295.779 251.534 296.258 251.702C296.737 251.871 297.167 252.136 297.548 252.498C297.928 252.859 298.229 253.328 298.449 253.905C298.669 254.478 298.778 255.175 298.778 255.996V256.62H291.587V255.301H297.053C297.053 254.838 296.959 254.427 296.77 254.07C296.582 253.709 296.317 253.424 295.975 253.216C295.637 253.008 295.241 252.904 294.785 252.904C294.291 252.904 293.859 253.026 293.49 253.269C293.125 253.509 292.842 253.823 292.642 254.211C292.445 254.596 292.347 255.014 292.347 255.466V256.497C292.347 257.101 292.453 257.616 292.665 258.04C292.881 258.464 293.181 258.788 293.566 259.011C293.951 259.231 294.401 259.341 294.915 259.341C295.249 259.341 295.553 259.294 295.828 259.2C296.103 259.102 296.34 258.956 296.54 258.764C296.741 258.572 296.894 258.334 297 258.051L298.667 258.352C298.533 258.842 298.294 259.272 297.948 259.642C297.606 260.007 297.177 260.291 296.658 260.495C296.144 260.696 295.557 260.796 294.897 260.796Z" fill="black"/>
<rect x="344.066" y="248.984" width="57.1258" height="9.21383" rx="4.60692" fill="#FFD613"/>
<defs>
<filter id="filter0_d_1208_5674" x="0.532684" y="84.1631" width="176.622" height="101.988" filterUnits="userSpaceOnUse" color-interpolation-filters="sRGB">
<feFlood flood-opacity="0" result="BackgroundImageFix"/>
<feColorMatrix in="SourceAlpha" type="matrix" values="0 0 0 0 0 0 0 0 0 0 0 0 0 0 0 0 0 0 127 0" result="hardAlpha"/>
<feOffset dy="0.88575"/>
<feGaussianBlur stdDeviation="1.7715"/>
<feColorMatrix type="matrix" values="0 0 0 0 0.0823529 0 0 0 0 0.133333 0 0 0 0 0.196078 0 0 0 0.08 0"/>
<feBlend mode="normal" in2="BackgroundImageFix" result="effect1_dropShadow_1208_5674"/>
<feBlend mode="normal" in="SourceGraphic" in2="effect1_dropShadow_1208_5674" result="shape"/>
</filter>
<filter id="filter1_d_1208_5674" x="203.237" y="87.8467" width="228.219" height="85.4024" filterUnits="userSpaceOnUse" color-interpolation-filters="sRGB">
<feFlood flood-opacity="0" result="BackgroundImageFix"/>
<feColorMatrix in="SourceAlpha" type="matrix" values="0 0 0 0 0 0 0 0 0 0 0 0 0 0 0 0 0 0 127 0" result="hardAlpha"/>
<feOffset dy="0.88575"/>
<feGaussianBlur stdDeviation="1.7715"/>
<feColorMatrix type="matrix" values="0 0 0 0 0.0823529 0 0 0 0 0.133333 0 0 0 0 0.196078 0 0 0 0.08 0"/>
<feBlend mode="normal" in2="BackgroundImageFix" result="effect1_dropShadow_1208_5674"/>
<feBlend mode="normal" in="SourceGraphic" in2="effect1_dropShadow_1208_5674" result="shape"/>
</filter>
<filter id="filter2_d_1208_5674" x="203.237" y="0.315407" width="228.219" height="83.5626" filterUnits="userSpaceOnUse" color-interpolation-filters="sRGB">
<feFlood flood-opacity="0" result="BackgroundImageFix"/>
<feColorMatrix in="SourceAlpha" type="matrix" values="0 0 0 0 0 0 0 0 0 0 0 0 0 0 0 0 0 0 127 0" result="hardAlpha"/>
<feOffset dy="0.88575"/>
<feGaussianBlur stdDeviation="1.7715"/>
<feColorMatrix type="matrix" values="0 0 0 0 0.0823529 0 0 0 0 0.133333 0 0 0 0 0.196078 0 0 0 0.08 0"/>
<feBlend mode="normal" in2="BackgroundImageFix" result="effect1_dropShadow_1208_5674"/>
<feBlend mode="normal" in="SourceGraphic" in2="effect1_dropShadow_1208_5674" result="shape"/>
</filter>
<filter id="filter3_d_1208_5674" x="203.237" y="177.222" width="228.219" height="50.3907" filterUnits="userSpaceOnUse" color-interpolation-filters="sRGB">
<feFlood flood-opacity="0" result="BackgroundImageFix"/>
<feColorMatrix in="SourceAlpha" type="matrix" values="0 0 0 0 0 0 0 0 0 0 0 0 0 0 0 0 0 0 127 0" result="hardAlpha"/>
<feOffset dy="0.88575"/>
<feGaussianBlur stdDeviation="1.7715"/>
<feColorMatrix type="matrix" values="0 0 0 0 0.0823529 0 0 0 0 0.133333 0 0 0 0 0.196078 0 0 0 0.08 0"/>
<feBlend mode="normal" in2="BackgroundImageFix" result="effect1_dropShadow_1208_5674"/>
<feBlend mode="normal" in="SourceGraphic" in2="effect1_dropShadow_1208_5674" result="shape"/>
</filter>
<filter id="filter4_d_1208_5674" x="203.237" y="231.585" width="228.219" height="50.3907" filterUnits="userSpaceOnUse" color-interpolation-filters="sRGB">
<feFlood flood-opacity="0" result="BackgroundImageFix"/>
<feColorMatrix in="SourceAlpha" type="matrix" values="0 0 0 0 0 0 0 0 0 0 0 0 0 0 0 0 0 0 127 0" result="hardAlpha"/>
<feOffset dy="0.88575"/>
<feGaussianBlur stdDeviation="1.7715"/>
<feColorMatrix type="matrix" values="0 0 0 0 0.0823529 0 0 0 0 0.133333 0 0 0 0 0.196078 0 0 0 0.08 0"/>
<feBlend mode="normal" in2="BackgroundImageFix" result="effect1_dropShadow_1208_5674"/>
<feBlend mode="normal" in="SourceGraphic" in2="effect1_dropShadow_1208_5674" result="shape"/>
</filter>
</defs>
</svg>
