<svg width="410" height="318" viewBox="0 0 410 318" fill="none" xmlns="http://www.w3.org/2000/svg">
<g filter="url(#filter0_d_1209_5675)">
<rect x="4.48145" y="2.71094" width="230.346" height="190.726" rx="4.60692" fill="white"/>
<rect x="4.48145" y="2.71094" width="230.346" height="190.726" rx="4.60692" stroke="black" stroke-width="0.00088575"/>
</g>
<path d="M40.2341 165.82V173.191H39.1184V166.936H39.0752L37.3116 168.088V167.022L39.1507 165.82H40.2341ZM42.5259 173.26C42.3291 173.26 42.1599 173.19 42.0184 173.051C41.8768 172.909 41.806 172.739 41.806 172.54C41.806 172.343 41.8768 172.175 42.0184 172.036C42.1599 171.895 42.3291 171.824 42.5259 171.824C42.7226 171.824 42.8918 171.895 43.0333 172.036C43.1749 172.175 43.2457 172.343 43.2457 172.54C43.2457 172.672 43.2121 172.793 43.1449 172.903C43.0801 173.011 42.9937 173.098 42.8858 173.163C42.7778 173.227 42.6578 173.26 42.5259 173.26ZM46.9159 173.292C46.4 173.292 45.9441 173.203 45.5482 173.026C45.1547 172.848 44.8464 172.604 44.6233 172.292C44.4001 171.98 44.2897 171.625 44.2921 171.226C44.2897 170.914 44.3533 170.628 44.4829 170.366C44.6149 170.102 44.7936 169.883 45.0192 169.707C45.2447 169.53 45.4967 169.417 45.775 169.369V169.326C45.4079 169.237 45.1139 169.04 44.8932 168.736C44.6724 168.431 44.5633 168.081 44.5657 167.685C44.5633 167.308 44.6629 166.972 44.8644 166.677C45.0684 166.379 45.3479 166.145 45.703 165.975C46.0581 165.805 46.4624 165.72 46.9159 165.72C47.3646 165.72 47.7653 165.806 48.118 165.979C48.4732 166.149 48.7527 166.383 48.9566 166.681C49.1606 166.976 49.2638 167.31 49.2662 167.685C49.2638 168.081 49.151 168.431 48.9278 168.736C48.7047 169.04 48.4144 169.237 48.0569 169.326V169.369C48.3328 169.417 48.5811 169.53 48.8019 169.707C49.025 169.883 49.2026 170.102 49.3346 170.366C49.4689 170.628 49.5373 170.914 49.5397 171.226C49.5373 171.625 49.4245 171.98 49.2014 172.292C48.9782 172.604 48.6687 172.848 48.2728 173.026C47.8793 173.203 47.427 173.292 46.9159 173.292ZM46.9159 172.382C47.2206 172.382 47.4846 172.331 47.7077 172.23C47.9309 172.127 48.1036 171.984 48.226 171.802C48.3484 171.617 48.4108 171.401 48.4132 171.154C48.4108 170.898 48.3436 170.671 48.2116 170.474C48.082 170.277 47.9057 170.123 47.6825 170.01C47.4594 169.897 47.2039 169.841 46.9159 169.841C46.6256 169.841 46.3677 169.897 46.1421 170.01C45.9166 170.123 45.739 170.277 45.6094 170.474C45.4799 170.671 45.4163 170.898 45.4187 171.154C45.4163 171.401 45.4751 171.617 45.595 171.802C45.7174 171.984 45.8914 172.127 46.1169 172.23C46.3425 172.331 46.6088 172.382 46.9159 172.382ZM46.9159 168.952C47.1607 168.952 47.3778 168.902 47.5674 168.804C47.7569 168.706 47.9057 168.569 48.0137 168.394C48.124 168.219 48.1804 168.013 48.1828 167.778C48.1804 167.548 48.1252 167.346 48.0173 167.174C47.9117 167.001 47.7641 166.868 47.5746 166.774C47.385 166.678 47.1655 166.63 46.9159 166.63C46.6616 166.63 46.4384 166.678 46.2465 166.774C46.0569 166.868 45.9094 167.001 45.8038 167.174C45.6982 167.346 45.6466 167.548 45.649 167.778C45.6466 168.013 45.6994 168.219 45.8074 168.394C45.9154 168.569 46.0641 168.706 46.2537 168.804C46.4456 168.902 46.6664 168.952 46.9159 168.952Z" fill="black"/>
<path d="M131.52 173.113V165.742H134.147C134.718 165.742 135.192 165.841 135.569 166.037C135.948 166.234 136.231 166.506 136.418 166.854C136.605 167.2 136.699 167.599 136.699 168.053C136.699 168.504 136.604 168.901 136.415 169.244C136.227 169.585 135.944 169.85 135.565 170.04C135.189 170.229 134.715 170.324 134.144 170.324H132.153V169.367H134.043C134.403 169.367 134.695 169.315 134.921 169.212C135.149 169.109 135.316 168.959 135.421 168.762C135.527 168.565 135.58 168.329 135.58 168.053C135.58 167.775 135.526 167.533 135.418 167.329C135.312 167.125 135.145 166.97 134.917 166.862C134.692 166.751 134.395 166.696 134.028 166.696H132.632V173.113H131.52ZM135.159 169.788L136.98 173.113H135.713L133.928 169.788H135.159ZM140.279 173.225C139.735 173.225 139.265 173.108 138.872 172.876C138.481 172.641 138.179 172.311 137.965 171.886C137.754 171.459 137.648 170.959 137.648 170.385C137.648 169.819 137.754 169.32 137.965 168.888C138.179 168.456 138.476 168.119 138.858 167.877C139.241 167.634 139.69 167.513 140.204 167.513C140.516 167.513 140.818 167.565 141.111 167.668C141.403 167.771 141.666 167.933 141.899 168.154C142.132 168.374 142.315 168.661 142.45 169.014C142.584 169.364 142.651 169.79 142.651 170.292V170.673H138.256V169.867H141.597C141.597 169.584 141.539 169.333 141.424 169.115C141.309 168.894 141.147 168.72 140.938 168.593C140.732 168.466 140.489 168.402 140.211 168.402C139.908 168.402 139.645 168.476 139.419 168.625C139.196 168.772 139.023 168.963 138.901 169.201C138.781 169.436 138.721 169.692 138.721 169.968V170.597C138.721 170.967 138.786 171.281 138.915 171.54C139.047 171.8 139.231 171.998 139.466 172.134C139.701 172.269 139.976 172.336 140.29 172.336C140.494 172.336 140.68 172.307 140.848 172.249C141.016 172.189 141.161 172.101 141.283 171.983C141.406 171.866 141.499 171.72 141.564 171.548L142.583 171.731C142.501 172.031 142.355 172.294 142.144 172.519C141.935 172.743 141.672 172.917 141.355 173.041C141.041 173.164 140.682 173.225 140.279 173.225ZM147.988 168.935L147.012 169.107C146.972 168.983 146.907 168.864 146.818 168.751C146.732 168.638 146.614 168.546 146.465 168.474C146.316 168.402 146.131 168.366 145.907 168.366C145.603 168.366 145.348 168.434 145.144 168.571C144.94 168.706 144.838 168.879 144.838 169.093C144.838 169.278 144.907 169.427 145.044 169.539C145.18 169.652 145.401 169.744 145.706 169.816L146.584 170.018C147.093 170.136 147.472 170.317 147.721 170.561C147.971 170.806 148.096 171.124 148.096 171.515C148.096 171.846 148 172.142 147.808 172.401C147.618 172.657 147.353 172.859 147.012 173.005C146.674 173.152 146.282 173.225 145.835 173.225C145.216 173.225 144.711 173.093 144.32 172.829C143.929 172.563 143.689 172.185 143.6 171.695L144.64 171.537C144.705 171.808 144.838 172.013 145.04 172.152C145.242 172.289 145.504 172.357 145.828 172.357C146.181 172.357 146.463 172.284 146.674 172.138C146.885 171.989 146.991 171.808 146.991 171.594C146.991 171.422 146.926 171.277 146.796 171.159C146.669 171.041 146.474 170.953 146.21 170.893L145.274 170.687C144.758 170.57 144.377 170.383 144.129 170.126C143.885 169.869 143.762 169.544 143.762 169.151C143.762 168.824 143.853 168.539 144.036 168.294C144.218 168.049 144.47 167.859 144.792 167.722C145.113 167.583 145.481 167.513 145.897 167.513C146.494 167.513 146.964 167.643 147.307 167.902C147.651 168.158 147.877 168.503 147.988 168.935ZM149.279 173.113V167.585H150.355V173.113H149.279ZM149.822 166.732C149.635 166.732 149.474 166.67 149.34 166.545C149.208 166.418 149.142 166.266 149.142 166.091C149.142 165.914 149.208 165.763 149.34 165.638C149.474 165.511 149.635 165.447 149.822 165.447C150.01 165.447 150.169 165.511 150.301 165.638C150.435 165.763 150.503 165.914 150.503 166.091C150.503 166.266 150.435 166.418 150.301 166.545C150.169 166.67 150.01 166.732 149.822 166.732ZM153.872 173.221C153.426 173.221 153.028 173.107 152.677 172.879C152.329 172.649 152.056 172.321 151.857 171.897C151.66 171.47 151.562 170.957 151.562 170.36C151.562 169.762 151.661 169.251 151.86 168.827C152.062 168.402 152.338 168.077 152.688 167.851C153.039 167.626 153.436 167.513 153.88 167.513C154.223 167.513 154.499 167.571 154.707 167.686C154.918 167.799 155.082 167.93 155.197 168.082C155.314 168.233 155.406 168.366 155.47 168.481H155.535V165.742H156.611V173.113H155.56V172.253H155.47C155.406 172.371 155.312 172.505 155.19 172.656C155.07 172.807 154.904 172.939 154.693 173.052C154.482 173.165 154.208 173.221 153.872 173.221ZM154.11 172.303C154.419 172.303 154.681 172.222 154.894 172.059C155.11 171.893 155.274 171.664 155.384 171.371C155.497 171.079 155.553 170.738 155.553 170.349C155.553 169.965 155.498 169.629 155.388 169.341C155.277 169.053 155.115 168.829 154.902 168.668C154.688 168.508 154.424 168.427 154.11 168.427C153.786 168.427 153.516 168.511 153.3 168.679C153.084 168.847 152.921 169.076 152.811 169.367C152.703 169.657 152.649 169.984 152.649 170.349C152.649 170.719 152.704 171.051 152.814 171.346C152.925 171.641 153.088 171.875 153.304 172.048C153.522 172.218 153.791 172.303 154.11 172.303ZM160.53 173.225C159.985 173.225 159.516 173.108 159.123 172.876C158.731 172.641 158.429 172.311 158.216 171.886C158.004 171.459 157.899 170.959 157.899 170.385C157.899 169.819 158.004 169.32 158.216 168.888C158.429 168.456 158.727 168.119 159.108 167.877C159.492 167.634 159.941 167.513 160.454 167.513C160.766 167.513 161.069 167.565 161.361 167.668C161.654 167.771 161.917 167.933 162.149 168.154C162.382 168.374 162.566 168.661 162.7 169.014C162.835 169.364 162.902 169.79 162.902 170.292V170.673H158.507V169.867H161.847C161.847 169.584 161.79 169.333 161.674 169.115C161.559 168.894 161.397 168.72 161.188 168.593C160.982 168.466 160.74 168.402 160.461 168.402C160.159 168.402 159.895 168.476 159.67 168.625C159.447 168.772 159.274 168.963 159.151 169.201C159.031 169.436 158.971 169.692 158.971 169.968V170.597C158.971 170.967 159.036 171.281 159.166 171.54C159.298 171.8 159.481 171.998 159.716 172.134C159.952 172.269 160.226 172.336 160.541 172.336C160.745 172.336 160.931 172.307 161.099 172.249C161.266 172.189 161.412 172.101 161.534 171.983C161.656 171.866 161.75 171.72 161.815 171.548L162.833 171.731C162.752 172.031 162.605 172.294 162.394 172.519C162.185 172.743 161.923 172.917 161.606 173.041C161.292 173.164 160.933 173.225 160.53 173.225ZM165.172 169.831V173.113H164.096V167.585H165.129V168.485H165.197C165.324 168.192 165.523 167.957 165.795 167.779C166.068 167.602 166.412 167.513 166.827 167.513C167.204 167.513 167.534 167.592 167.817 167.751C168.1 167.907 168.32 168.139 168.476 168.449C168.632 168.758 168.71 169.141 168.71 169.597V173.113H167.634V169.726C167.634 169.326 167.529 169.013 167.321 168.787C167.112 168.559 166.825 168.445 166.46 168.445C166.211 168.445 165.989 168.499 165.795 168.607C165.603 168.715 165.45 168.873 165.337 169.082C165.227 169.289 165.172 169.538 165.172 169.831ZM172.734 167.585V168.449H169.714V167.585H172.734ZM170.524 166.26H171.6V171.49C171.6 171.699 171.631 171.856 171.694 171.962C171.756 172.065 171.836 172.136 171.935 172.174C172.035 172.21 172.145 172.228 172.262 172.228C172.349 172.228 172.424 172.222 172.489 172.21C172.554 172.198 172.604 172.188 172.64 172.181L172.834 173.07C172.772 173.094 172.683 173.118 172.568 173.142C172.453 173.168 172.309 173.183 172.136 173.185C171.853 173.19 171.589 173.14 171.344 173.034C171.1 172.929 170.902 172.765 170.751 172.545C170.599 172.324 170.524 172.047 170.524 171.713V166.26ZM173.924 173.113V167.585H175V173.113H173.924ZM174.468 166.732C174.28 166.732 174.12 166.67 173.985 166.545C173.853 166.418 173.787 166.266 173.787 166.091C173.787 165.914 173.853 165.763 173.985 165.638C174.12 165.511 174.28 165.447 174.468 165.447C174.655 165.447 174.814 165.511 174.946 165.638C175.081 165.763 175.148 165.914 175.148 166.091C175.148 166.266 175.081 166.418 174.946 166.545C174.814 166.67 174.655 166.732 174.468 166.732ZM178.057 173.236C177.707 173.236 177.39 173.171 177.107 173.041C176.824 172.909 176.599 172.719 176.434 172.469C176.27 172.219 176.189 171.914 176.189 171.551C176.189 171.239 176.249 170.983 176.369 170.781C176.489 170.579 176.651 170.42 176.855 170.302C177.059 170.185 177.287 170.096 177.539 170.036C177.79 169.976 178.047 169.93 178.309 169.899C178.64 169.861 178.909 169.83 179.115 169.806C179.321 169.779 179.471 169.737 179.565 169.68C179.658 169.622 179.705 169.529 179.705 169.399V169.374C179.705 169.059 179.616 168.816 179.439 168.643C179.264 168.47 179.002 168.384 178.654 168.384C178.292 168.384 178.006 168.464 177.798 168.625C177.591 168.783 177.449 168.96 177.369 169.154L176.358 168.924C176.478 168.588 176.653 168.317 176.884 168.11C177.116 167.902 177.384 167.751 177.686 167.657C177.988 167.561 178.306 167.513 178.64 167.513C178.861 167.513 179.095 167.539 179.342 167.592C179.591 167.643 179.824 167.736 180.04 167.873C180.258 168.01 180.437 168.205 180.576 168.46C180.715 168.712 180.785 169.039 180.785 169.442V173.113H179.734V172.357H179.691C179.621 172.497 179.517 172.633 179.378 172.768C179.239 172.902 179.06 173.014 178.841 173.102C178.623 173.191 178.362 173.236 178.057 173.236ZM178.291 172.372C178.588 172.372 178.843 172.313 179.054 172.195C179.267 172.078 179.429 171.924 179.54 171.735C179.652 171.543 179.709 171.338 179.709 171.119V170.407C179.67 170.445 179.596 170.481 179.486 170.515C179.378 170.546 179.254 170.573 179.115 170.597C178.976 170.619 178.84 170.639 178.708 170.659C178.576 170.675 178.466 170.69 178.377 170.702C178.168 170.728 177.978 170.773 177.805 170.835C177.635 170.897 177.498 170.987 177.395 171.105C177.294 171.22 177.243 171.374 177.243 171.566C177.243 171.832 177.342 172.034 177.539 172.17C177.735 172.305 177.986 172.372 178.291 172.372ZM183.294 165.742V173.113H182.218V165.742H183.294Z" fill="black"/>
<g filter="url(#filter1_d_1209_5675)">
<rect x="213.636" y="124.336" width="192.569" height="188.884" rx="4.60692" fill="white"/>
<rect x="213.636" y="124.336" width="192.569" height="188.884" rx="4.60692" stroke="black" stroke-width="0.00088575"/>
</g>
<rect x="139.004" y="22.0625" width="69.1038" height="6.44968" rx="3.22484" fill="#D9D9D9" fill-opacity="0.5"/>
<rect x="36.4521" y="22.0469" width="69.1038" height="6.44968" rx="3.22484" fill="#D9D9D9" fill-opacity="0.5"/>
<rect x="236.67" y="186.066" width="69.1038" height="6.44968" rx="3.22484" fill="#D9D9D9" fill-opacity="0.5"/>
<rect x="236.67" y="216.473" width="69.1038" height="6.44968" rx="3.22484" fill="#D9D9D9" fill-opacity="0.5"/>
<rect x="236.67" y="246.879" width="69.1038" height="6.44968" rx="3.22484" fill="#D9D9D9" fill-opacity="0.5"/>
<rect x="236.67" y="277.285" width="69.1038" height="6.44968" rx="3.22484" fill="#D9D9D9" fill-opacity="0.5"/>
<rect x="36.7285" y="154.742" width="46.9906" height="4.60692" rx="2.30346" fill="#D9D9D9" fill-opacity="0.5"/>
<rect x="129.79" y="154.742" width="70.9465" height="4.60692" rx="2.30346" fill="#D9D9D9" fill-opacity="0.5"/>
<rect x="36.7979" y="130.148" width="67.261" height="6.44968" rx="3.22484" transform="rotate(-90 36.7979 130.148)" fill="#FA5C5C" fill-opacity="0.5"/>
<rect x="55.2197" y="130.215" width="61.167" height="8.63638" rx="4.31819" transform="rotate(-90 55.2197 130.215)" fill="#FF0000" fill-opacity="0.5"/>
<rect x="75.5029" y="130.238" width="71.322" height="6.44968" rx="3.22484" transform="rotate(-90 75.5029 130.238)" fill="#FA5C5C" fill-opacity="0.5"/>
<rect x="94.8301" y="130.285" width="52.5189" height="6.44968" rx="3.22484" transform="rotate(-90 94.8301 130.285)" fill="#FA5C5C" fill-opacity="0.5"/>
<rect x="114.157" y="130.246" width="33.7366" height="6.44968" rx="3.22484" transform="rotate(-90 114.157 130.246)" fill="#FA5C5C" fill-opacity="0.5"/>
<rect x="133.492" y="129.898" width="22.3925" height="6.44968" rx="3.22484" transform="rotate(-90 133.492 129.898)" fill="#FA5C5C" fill-opacity="0.5"/>
<rect x="172.177" y="130.164" width="10.9486" height="6.44968" rx="3.22484" transform="rotate(-90 172.177 130.164)" fill="#FA5C5C" fill-opacity="0.5"/>
<rect x="152.868" y="130.539" width="45.9095" height="6.44968" rx="3.22484" transform="rotate(-90 152.868 130.539)" fill="#FA5C5C" fill-opacity="0.5"/>
<rect x="333.415" y="186.066" width="45.9095" height="6.44968" rx="3.22484" fill="#FA5C5C" fill-opacity="0.5"/>
<rect x="333.415" y="216.473" width="45.9095" height="6.44968" rx="3.22484" fill="#06A561" fill-opacity="0.78"/>
<rect x="333.415" y="246.879" width="45.9095" height="6.44968" rx="3.22484" fill="#06A561" fill-opacity="0.78"/>
<rect x="333.415" y="277.285" width="45.9095" height="6.44968" rx="3.22484" fill="#06A561" fill-opacity="0.78"/>
<path d="M249.034 148.844V162.246H247.175L240.363 152.417H240.239V162.246H238.217V148.844H240.088L246.907 158.686H247.031V148.844H249.034ZM256.158 162.449C255.168 162.449 254.315 162.237 253.6 161.814C252.889 161.387 252.339 160.787 251.951 160.015C251.567 159.238 251.375 158.328 251.375 157.286C251.375 156.256 251.567 155.349 251.951 154.564C252.339 153.778 252.88 153.165 253.573 152.725C254.271 152.284 255.087 152.064 256.021 152.064C256.588 152.064 257.138 152.158 257.67 152.345C258.202 152.533 258.68 152.827 259.103 153.229C259.526 153.63 259.86 154.151 260.104 154.793C260.349 155.43 260.471 156.204 260.471 157.116V157.809H252.481V156.343H258.553C258.553 155.829 258.449 155.373 258.239 154.976C258.03 154.574 257.735 154.258 257.356 154.027C256.981 153.796 256.54 153.68 256.034 153.68C255.484 153.68 255.004 153.815 254.594 154.086C254.189 154.352 253.874 154.701 253.652 155.133C253.434 155.56 253.325 156.025 253.325 156.527V157.672C253.325 158.344 253.443 158.915 253.678 159.386C253.918 159.858 254.252 160.217 254.679 160.466C255.107 160.71 255.606 160.833 256.178 160.833C256.549 160.833 256.887 160.78 257.192 160.676C257.498 160.566 257.762 160.405 257.984 160.191C258.207 159.978 258.377 159.714 258.494 159.399L260.346 159.733C260.198 160.279 259.932 160.756 259.548 161.166C259.169 161.572 258.691 161.888 258.115 162.115C257.543 162.338 256.891 162.449 256.158 162.449ZM264.803 162.246L261.845 152.195H263.867L265.837 159.576H265.935L267.911 152.195H269.933L271.896 159.543H271.995L273.951 152.195H275.973L273.022 162.246H271.026L268.984 154.989H268.834L266.792 162.246H264.803ZM282.864 162.246V148.844H284.886V160.505H290.959V162.246H282.864ZM297.441 162.449C296.45 162.449 295.597 162.237 294.882 161.814C294.171 161.387 293.621 160.787 293.233 160.015C292.849 159.238 292.657 158.328 292.657 157.286C292.657 156.256 292.849 155.349 293.233 154.564C293.621 153.778 294.162 153.165 294.856 152.725C295.554 152.284 296.37 152.064 297.303 152.064C297.87 152.064 298.42 152.158 298.952 152.345C299.484 152.533 299.962 152.827 300.385 153.229C300.809 153.63 301.142 154.151 301.387 154.793C301.631 155.43 301.753 156.204 301.753 157.116V157.809H293.763V156.343H299.836C299.836 155.829 299.731 155.373 299.522 154.976C299.312 154.574 299.018 154.258 298.638 154.027C298.263 153.796 297.822 153.68 297.316 153.68C296.767 153.68 296.287 153.815 295.877 154.086C295.471 154.352 295.157 154.701 294.934 155.133C294.716 155.56 294.607 156.025 294.607 156.527V157.672C294.607 158.344 294.725 158.915 294.96 159.386C295.2 159.858 295.534 160.217 295.962 160.466C296.389 160.71 296.889 160.833 297.46 160.833C297.831 160.833 298.169 160.78 298.475 160.676C298.78 160.566 299.044 160.405 299.266 160.191C299.489 159.978 299.659 159.714 299.777 159.399L301.629 159.733C301.48 160.279 301.214 160.756 300.83 161.166C300.451 161.572 299.973 161.888 299.397 162.115C298.826 162.338 298.174 162.449 297.441 162.449ZM306.849 162.469C306.212 162.469 305.636 162.351 305.122 162.115C304.607 161.875 304.199 161.528 303.898 161.075C303.601 160.621 303.453 160.065 303.453 159.406C303.453 158.839 303.562 158.372 303.78 158.006C303.998 157.639 304.293 157.349 304.663 157.135C305.034 156.922 305.449 156.76 305.907 156.651C306.365 156.542 306.832 156.459 307.307 156.402C307.909 156.333 308.398 156.276 308.773 156.232C309.148 156.184 309.421 156.108 309.591 156.003C309.761 155.898 309.846 155.728 309.846 155.493V155.447C309.846 154.875 309.685 154.433 309.362 154.119C309.044 153.804 308.568 153.647 307.935 153.647C307.277 153.647 306.758 153.794 306.378 154.086C306.003 154.374 305.743 154.694 305.599 155.048L303.76 154.629C303.979 154.018 304.297 153.525 304.716 153.15C305.139 152.771 305.625 152.496 306.175 152.326C306.725 152.151 307.303 152.064 307.909 152.064C308.311 152.064 308.736 152.112 309.185 152.208C309.639 152.299 310.062 152.469 310.455 152.718C310.852 152.967 311.177 153.322 311.43 153.785C311.683 154.243 311.809 154.838 311.809 155.571V162.246H309.899V160.872H309.82C309.694 161.125 309.504 161.374 309.251 161.618C308.998 161.862 308.673 162.065 308.276 162.226C307.879 162.388 307.403 162.469 306.849 162.469ZM307.274 160.898C307.815 160.898 308.278 160.791 308.662 160.577C309.05 160.364 309.345 160.084 309.545 159.74C309.75 159.391 309.853 159.018 309.853 158.621V157.325C309.783 157.395 309.648 157.46 309.447 157.521C309.251 157.578 309.026 157.628 308.773 157.672C308.52 157.711 308.274 157.748 308.034 157.783C307.794 157.814 307.593 157.84 307.432 157.862C307.052 157.91 306.705 157.99 306.391 158.104C306.081 158.217 305.833 158.381 305.645 158.595C305.462 158.804 305.37 159.083 305.37 159.432C305.37 159.916 305.549 160.283 305.907 160.532C306.265 160.776 306.72 160.898 307.274 160.898ZM318.178 162.442C317.367 162.442 316.643 162.235 316.006 161.821C315.373 161.402 314.876 160.806 314.514 160.034C314.156 159.258 313.977 158.326 313.977 157.24C313.977 156.154 314.158 155.224 314.52 154.452C314.887 153.68 315.388 153.089 316.025 152.679C316.662 152.269 317.384 152.064 318.191 152.064C318.815 152.064 319.317 152.168 319.696 152.378C320.08 152.583 320.377 152.823 320.586 153.098C320.8 153.373 320.966 153.615 321.084 153.824H321.202V148.844H323.158V162.246H321.247V160.682H321.084C320.966 160.896 320.796 161.14 320.573 161.415C320.355 161.69 320.054 161.93 319.67 162.135C319.286 162.34 318.789 162.442 318.178 162.442ZM318.61 160.774C319.173 160.774 319.648 160.625 320.037 160.329C320.429 160.028 320.726 159.611 320.927 159.079C321.132 158.547 321.234 157.927 321.234 157.22C321.234 156.522 321.134 155.912 320.933 155.388C320.733 154.865 320.438 154.457 320.05 154.164C319.662 153.872 319.182 153.726 318.61 153.726C318.021 153.726 317.53 153.879 317.138 154.184C316.745 154.489 316.449 154.906 316.248 155.434C316.052 155.962 315.953 156.557 315.953 157.22C315.953 157.892 316.054 158.496 316.254 159.033C316.455 159.57 316.752 159.995 317.144 160.309C317.541 160.619 318.03 160.774 318.61 160.774ZM333.483 154.649L331.709 154.963C331.635 154.736 331.518 154.52 331.356 154.315C331.199 154.11 330.985 153.942 330.715 153.811C330.444 153.68 330.106 153.615 329.7 153.615C329.146 153.615 328.684 153.739 328.313 153.988C327.942 154.232 327.757 154.548 327.757 154.937C327.757 155.272 327.881 155.543 328.13 155.748C328.379 155.953 328.78 156.121 329.334 156.252L330.931 156.618C331.856 156.832 332.545 157.161 332.999 157.606C333.452 158.051 333.679 158.629 333.679 159.341C333.679 159.943 333.505 160.479 333.156 160.95C332.811 161.417 332.329 161.784 331.709 162.05C331.094 162.316 330.381 162.449 329.57 162.449C328.444 162.449 327.526 162.209 326.815 161.729C326.104 161.245 325.667 160.558 325.506 159.668L327.397 159.38C327.515 159.873 327.757 160.246 328.123 160.499C328.49 160.748 328.968 160.872 329.557 160.872C330.198 160.872 330.71 160.739 331.094 160.473C331.478 160.202 331.67 159.873 331.67 159.485C331.67 159.17 331.552 158.907 331.317 158.693C331.086 158.479 330.73 158.318 330.25 158.208L328.549 157.835C327.611 157.622 326.917 157.281 326.468 156.815C326.023 156.348 325.8 155.757 325.8 155.041C325.8 154.448 325.966 153.929 326.298 153.484C326.629 153.039 327.087 152.692 327.672 152.443C328.256 152.19 328.926 152.064 329.681 152.064C330.767 152.064 331.622 152.299 332.246 152.771C332.87 153.237 333.282 153.863 333.483 154.649Z" fill="black"/>
<defs>
<filter id="filter0_d_1209_5675" x="0.937958" y="0.053688" width="237.433" height="197.813" filterUnits="userSpaceOnUse" color-interpolation-filters="sRGB">
<feFlood flood-opacity="0" result="BackgroundImageFix"/>
<feColorMatrix in="SourceAlpha" type="matrix" values="0 0 0 0 0 0 0 0 0 0 0 0 0 0 0 0 0 0 127 0" result="hardAlpha"/>
<feOffset dy="0.88575"/>
<feGaussianBlur stdDeviation="1.7715"/>
<feColorMatrix type="matrix" values="0 0 0 0 0.0823529 0 0 0 0 0.133333 0 0 0 0 0.196078 0 0 0 0.08 0"/>
<feBlend mode="normal" in2="BackgroundImageFix" result="effect1_dropShadow_1209_5675"/>
<feBlend mode="normal" in="SourceGraphic" in2="effect1_dropShadow_1209_5675" result="shape"/>
</filter>
<filter id="filter1_d_1209_5675" x="210.092" y="121.679" width="199.656" height="195.969" filterUnits="userSpaceOnUse" color-interpolation-filters="sRGB">
<feFlood flood-opacity="0" result="BackgroundImageFix"/>
<feColorMatrix in="SourceAlpha" type="matrix" values="0 0 0 0 0 0 0 0 0 0 0 0 0 0 0 0 0 0 127 0" result="hardAlpha"/>
<feOffset dy="0.88575"/>
<feGaussianBlur stdDeviation="1.7715"/>
<feColorMatrix type="matrix" values="0 0 0 0 0.0823529 0 0 0 0 0.133333 0 0 0 0 0.196078 0 0 0 0.08 0"/>
<feBlend mode="normal" in2="BackgroundImageFix" result="effect1_dropShadow_1209_5675"/>
<feBlend mode="normal" in="SourceGraphic" in2="effect1_dropShadow_1209_5675" result="shape"/>
</filter>
</defs>
</svg>
